<svg width="43" height="57" viewBox="0 0 43 57" xmlns="http://www.w3.org/2000/svg"><title>css3</title><g fill="none" fill-rule="evenodd"><path fill="#4E4E4E" d="M38.16 52.294l-16.943 4.562-16.944-4.562L.363 9.936H42.07z"/><path fill="#666664" d="M21.217 13.367v39.85l.038.01 13.712-3.691 3.164-36.17H21.217z"/><path d="M13.44 4.988V2.62h3.456V.027h-6.048v7.327h6.048V4.988H13.44zm9.674-2.369h2.416V.027h-6.049v2.592c.81.81 1.231 1.197 2.402 2.367l-2.402.003v2.365h6.05V4.988L23.113 2.62zm8.573 0h2.417V.027h-6.05v2.592c.81.81 1.232 1.197 2.402 2.367l-2.402.003v2.365h6.05V4.988L31.687 2.62z" fill="#4E4E4E"/><path fill="#E8E8E0" d="M21.202 23.958l-12.127 5.05.402 5 11.725-5.012 12.472-5.333.517-5.115z"/><path fill="#E8E8E0" d="M9.075 29.009l.402 5 11.725-5.013v-5.038l-12.127 5.05zM34.19 18.548l-12.988 5.41v5.038l12.472-5.333z"/><path fill="#E8E8E0" d="M9.093 29.009l.403 5 17.99.057-.403 6.667-5.92 1.667-5.69-1.437-.345-4.138H9.84l.69 7.989 10.691 3.16 10.633-3.103 1.38-15.862H9.093z"/><path d="M21.202 29.009H9.075l.402 5 11.725.037V29.01zm0 13.375l-.058.016-5.69-1.437-.344-4.138H9.822l.69 7.989 10.69 3.161v-5.591z" fill="#E8E8E0" opacity=".05"/><path fill="#E8E8E0" d="M7.983 18.548H34.19l-.517 5.116H8.614l-.631-5.116z"/></g></svg>