<svg width="51" height="51" viewBox="0 0 51 51" xmlns="http://www.w3.org/2000/svg"><title>EJS</title><g fill="none" fill-rule="evenodd"><path fill="#4E4E4E" d="M0 0h51v51H0z"/><path d="M24.684 29.382v2.843h-6.54v3.718h5.009v2.734h-5.009v3.794h6.54v2.843H14.426V29.382h10.258zm9.152 10.159c0 .889-.111 1.698-.333 2.427a5.13 5.13 0 0 1-1.006 1.876 4.52 4.52 0 0 1-1.69 1.213c-.678.288-1.476.432-2.395.432a10.562 10.562 0 0 1-2.493-.284l.197-2.154a.648.648 0 0 1 .224-.46c.135-.116.323-.174.563-.174.124 0 .277.02.46.06.182.04.4.06.656.06.357 0 .669-.05.935-.148a1.45 1.45 0 0 0 .661-.492c.175-.23.306-.53.394-.902.087-.372.131-.831.131-1.378V29.382h3.696v10.159zm11.777-6.922a1.39 1.39 0 0 1-.344.393.77.77 0 0 1-.465.132c-.168 0-.348-.053-.541-.159a98.94 98.94 0 0 0-.656-.355 5.445 5.445 0 0 0-.837-.356 3.347 3.347 0 0 0-1.072-.158c-.692 0-1.208.147-1.547.443-.339.295-.508.694-.508 1.197 0 .32.102.587.306.798.204.212.472.394.803.547a8.69 8.69 0 0 0 1.138.421c.426.128.862.27 1.306.426.445.157.88.341 1.307.553.427.211.806.48 1.137.809.332.328.6.727.804 1.197.204.47.306 1.037.306 1.7a5.54 5.54 0 0 1-.382 2.067 4.839 4.839 0 0 1-1.11 1.679c-.485.477-1.083.853-1.794 1.126-.71.274-1.518.41-2.422.41-.495 0-1-.05-1.514-.153a8.994 8.994 0 0 1-1.493-.432 8.656 8.656 0 0 1-1.356-.661 5.761 5.761 0 0 1-1.104-.853l1.093-1.728a.96.96 0 0 1 .81-.437c.218 0 .439.069.661.207.222.139.474.292.755.46.28.167.603.32.967.459.365.138.795.208 1.29.208.671 0 1.193-.148 1.564-.443.372-.295.558-.764.558-1.405 0-.372-.102-.675-.306-.908a2.365 2.365 0 0 0-.804-.58 7.405 7.405 0 0 0-1.132-.404 33.771 33.771 0 0 1-1.3-.388 9.52 9.52 0 0 1-1.302-.525 4.107 4.107 0 0 1-1.132-.82 3.838 3.838 0 0 1-.804-1.269c-.204-.506-.306-1.132-.306-1.875a4.516 4.516 0 0 1 1.422-3.27 5.226 5.226 0 0 1 1.716-1.066c.678-.266 1.455-.399 2.33-.399.488 0 .964.038 1.427.115.463.076.902.19 1.317.339.416.15.804.328 1.165.536.36.207.683.443.968.705l-.919 1.717z" fill="#E8E8E0"/></g></svg>