<svg width="57" height="55" viewBox="0 0 57 55" xmlns="http://www.w3.org/2000/svg"><title>github</title><g fill="#4E4E4E" fill-rule="evenodd"><path d="M28.39 0C12.713 0 0 12.61 0 28.164c0 12.443 8.135 23 19.415 26.724 1.419.261 1.94-.61 1.94-1.354 0-.672-.027-2.89-.039-5.244-7.898 1.704-9.565-3.323-9.565-3.323-1.291-3.255-3.152-4.12-3.152-4.12-2.576-1.749.194-1.713.194-1.713 2.851.199 4.352 2.902 4.352 2.902 2.532 4.306 6.642 3.061 8.262 2.342.254-1.82.99-3.063 1.802-3.766-6.306-.713-12.935-3.128-12.935-13.92 0-3.074 1.11-5.586 2.926-7.559-.295-.71-1.267-3.574.275-7.453 0 0 2.384-.757 7.809 2.887 2.264-.624 4.693-.937 7.106-.948 2.412.011 4.843.324 7.112.948 5.419-3.644 7.8-2.887 7.8-2.887 1.545 3.88.572 6.744.278 7.453 1.82 1.973 2.921 4.485 2.921 7.56 0 10.817-6.641 13.199-12.963 13.896 1.018.874 1.926 2.588 1.926 5.216 0 3.768-.033 6.8-.033 7.729 0 .749.51 1.627 1.95 1.35 11.274-3.728 19.398-14.28 19.398-26.72C56.78 12.609 44.07 0 28.39 0"/><path d="M10.633 40.12c-.062.14-.285.182-.487.086-.206-.092-.321-.283-.254-.423.06-.144.283-.185.488-.088.207.092.324.284.253.425m1.396 1.236c-.135.125-.4.067-.58-.13-.185-.196-.22-.459-.082-.585.14-.125.396-.067.582.13.186.198.222.46.08.585m.959 1.582c-.175.12-.46.007-.635-.243-.174-.25-.174-.551.004-.671.176-.12.456-.013.635.236.173.255.173.555-.005.678m1.62 1.831c-.155.17-.486.125-.73-.107-.247-.228-.316-.55-.16-.72.157-.17.49-.123.735.108.246.226.322.551.156.72m2.093.618c-.068.22-.387.32-.709.227-.32-.097-.531-.355-.466-.578.067-.222.387-.326.711-.226.32.096.531.352.465.577m2.383.262c.008.232-.265.425-.603.43-.34.006-.614-.182-.617-.41 0-.234.266-.425.606-.43.337-.007.614.18.614.41m2.34-.089c.041.227-.193.46-.528.521-.33.06-.635-.08-.677-.305-.041-.232.198-.465.527-.525.336-.058.636.079.679.309"/></g></svg>