<svg width="68" height="42" viewBox="0 0 68 42" xmlns="http://www.w3.org/2000/svg"><title>gulp</title><g stroke-width=".81" stroke="#4E4E4E" fill="#4E4E4E" fill-rule="evenodd"><path d="M18.617 21.684c-.046.068-.129.283-.249.643a113.405 113.405 0 0 0-.997 3.18c-.2.673-.406 1.36-.618 2.06a177.9 177.9 0 0 0-.61 2.06 330.387 330.387 0 0 0-.91 3.19c-.103.367-.166.585-.189.653a4.865 4.865 0 0 1-.721 1.478c-.172.238-.36.435-.567.592a1.044 1.044 0 0 1-.635.234c-.367 0-.633-.122-.8-.367-.166-.245-.248-.693-.248-1.345v-.286c0-.095.005-.197.017-.306.011-.217.097-.626.258-1.223.16-.599.352-1.275.575-2.03.223-.754.464-1.535.722-2.344.257-.809.489-1.533.695-2.172a33.947 33.947 0 0 1-1.975 2.029 21.253 21.253 0 0 1-2.182 1.815c-.744.537-1.494.975-2.25 1.315-.756.34-1.483.51-2.182.51-.801 0-1.491-.177-2.07-.53a4.546 4.546 0 0 1-1.434-1.387 6.28 6.28 0 0 1-.842-1.937 8.731 8.731 0 0 1-.275-2.161v-.266c0-.081.006-.163.018-.244a24.57 24.57 0 0 1 .558-4.017A32.64 32.64 0 0 1 2.9 16.729a37.735 37.735 0 0 1 1.71-3.986 35.195 35.195 0 0 1 2.112-3.68 28.537 28.537 0 0 1 2.43-3.192 19.375 19.375 0 0 1 2.646-2.508c.904-.7 1.818-1.247 2.74-1.641.921-.394 1.835-.591 2.74-.591 1.041 0 2.05.285 3.022.856.973.57 1.884 1.496 2.732 2.773.194.285.317.574.369.866.051.293.077.568.077.826 0 .612-.146 1.095-.438 1.448-.292.354-.638.53-1.04.53-.366 0-.706-.193-1.021-.58-.315-.388-.668-.942-1.057-1.663-.366-.652-.77-1.124-1.21-1.417a2.545 2.545 0 0 0-1.435-.438c-.802 0-1.658.333-2.568 1-.91.665-1.813 1.546-2.706 2.64a28.935 28.935 0 0 0-2.568 3.752 39.194 39.194 0 0 0-2.173 4.323 30.84 30.84 0 0 0-1.503 4.363c-.372 1.434-.558 2.722-.558 3.864 0 .38.026.771.077 1.172.052.401.149.765.292 1.091a2.2 2.2 0 0 0 .584.805c.247.212.559.316.937.316.423 0 .904-.142 1.442-.428a10.843 10.843 0 0 0 1.675-1.121c.578-.462 1.16-.986 1.744-1.57a28.203 28.203 0 0 0 1.632-1.774c.503-.598.95-1.173 1.34-1.723.389-.55.68-1.03.875-1.438l1.598-4.792c.195-.516.45-.883.764-1.1.315-.218.639-.327.971-.327.16 0 .32.028.48.082.161.054.304.139.43.255.126.115.226.265.3.448.075.184.112.398.112.642 0 .653-.057 1.265-.171 1.836-.115.571-.26 1.128-.438 1.672a29.012 29.012 0 0 1-.593 1.641c-.217.55-.429 1.125-.635 1.723zm21.661 3.997a16.08 16.08 0 0 1-1.76 1.988 17.9 17.9 0 0 1-2.07 1.723c-.711.503-1.41.907-2.096 1.213-.687.306-1.306.46-1.855.46-.55 0-.997-.184-1.34-.551-.344-.367-.516-.992-.516-1.876 0-.626.092-1.353.275-2.182-.298.53-.67 1.067-1.116 1.61a9.765 9.765 0 0 1-1.53 1.49 7.592 7.592 0 0 1-1.923 1.09 6.299 6.299 0 0 1-2.319.418c-.378 0-.742-.048-1.091-.143a2.273 2.273 0 0 1-.919-.49 2.442 2.442 0 0 1-.635-.927c-.16-.387-.241-.873-.241-1.458 0-.013.023-.22.069-.622.045-.4.191-1.033.438-1.896.246-.863.627-1.981 1.142-3.354.516-1.373 1.243-3.038 2.182-4.995.24-.517.518-.887.833-1.112a1.727 1.727 0 0 1 1.52-.265c.172.048.332.122.481.224a1.2 1.2 0 0 1 .36.387c.093.157.138.337.138.54 0 .137-.017.266-.051.388-.058.232-.18.534-.37.907-.189.374-.41.803-.66 1.285-.253.483-.52 1.003-.8 1.56-.28.557-.54 1.135-.781 1.733-.24.599-.447 1.207-.618 1.825a7.875 7.875 0 0 0-.292 1.804c0 .245.057.47.171.673.115.204.303.306.567.306.744 0 1.454-.245 2.13-.734a9.45 9.45 0 0 0 1.873-1.825 17.492 17.492 0 0 0 1.554-2.345c.464-.836.85-1.6 1.16-2.294.217-.462.409-.958.575-1.488.166-.53.346-1.02.541-1.468.195-.449.418-.822.67-1.122.251-.299.567-.448.945-.448.412 0 .738.156.979.469.24.313.36.686.36 1.121 0 .245-.077.581-.232 1.01-.155.428-.35.917-.584 1.468-.234.55-.49 1.138-.764 1.763-.275.626-.53 1.261-.764 1.907-.235.646-.43 1.278-.584 1.896a7.127 7.127 0 0 0-.232 1.723c0 .49.251.734.755.734.355 0 .796-.122 1.322-.366a9.065 9.065 0 0 0 1.658-1.03 15.631 15.631 0 0 0 1.735-1.56 12.588 12.588 0 0 0 1.537-1.937l.173 2.773z"/><path d="M40.81 24.66c-.125.314-.249.678-.369 1.092a4.03 4.03 0 0 0-.18 1.111 1 1 0 0 0 .103.49c.069.122.2.183.395.183.24 0 .541-.084.902-.255.36-.17.75-.394 1.168-.673.418-.278.853-.598 1.306-.958.452-.36.901-.734 1.348-1.121a37.42 37.42 0 0 0 1.28-1.162c.406-.388.77-.745 1.09-1.071a.775.775 0 0 1 .327-.204c.126-.04.235-.061.326-.061a.69.69 0 0 1 .567.286c.149.19.223.44.223.754 0 .285-.08.605-.24.958-.16.354-.44.7-.842 1.04a51.76 51.76 0 0 1-2.216 2.284 22.825 22.825 0 0 1-2.224 1.906c-.739.55-1.472.99-2.199 1.316-.727.326-1.434.489-2.122.489-.47 0-.861-.075-1.176-.224a1.956 1.956 0 0 1-.756-.612 2.45 2.45 0 0 1-.404-.918 5.045 5.045 0 0 1-.12-1.121c0-.666.083-1.349.25-2.05.165-.7.363-1.342.592-1.926.4-1.06.807-2.114 1.22-3.16.411-1.047.79-2.006 1.134-2.876l5.204-13.152c.206-.53.484-.904.833-1.121.35-.217.701-.326 1.057-.326.354 0 .678.115.97.346.292.232.438.605.438 1.122a2.3 2.3 0 0 1-.146.774c-.097.273-.22.565-.37.877-.286.64-.626 1.42-1.021 2.345a340.209 340.209 0 0 0-2.663 6.413l-1.391 3.435a400.865 400.865 0 0 0-1.271 3.171c-.396 1-.736 1.866-1.022 2.6z"/><path d="M65.151 20.97c.16-.108.31-.196.447-.265a.897.897 0 0 1 .395-.102c.252 0 .44.113.567.337.126.224.189.5.189.825 0 .354-.077.714-.232 1.081a2.277 2.277 0 0 1-.696.918 176.969 176.969 0 0 0-3.28 2.977 35.168 35.168 0 0 1-2.723 2.314c-.853.646-1.686 1.146-2.5 1.499a6.482 6.482 0 0 1-2.61.53c-.871 0-1.544-.19-2.019-.571-.475-.38-.713-.904-.713-1.57v-.153c0-.048.006-.105.017-.174.046-.407.224-.876.533-1.406.31-.53.681-1.081 1.116-1.652.436-.57.9-1.149 1.392-1.733.492-.584.947-1.138 1.366-1.662.417-.523.764-1.002 1.038-1.438.276-.434.413-.787.413-1.06a.479.479 0 0 0-.172-.387c-.114-.095-.304-.143-.567-.143-.458 0-.93.12-1.417.357a7.023 7.023 0 0 0-1.443.958c-.475.402-.94.86-1.391 1.377a20.14 20.14 0 0 0-1.272 1.61 23.334 23.334 0 0 0-1.915 3.242c-.068.15-.166.361-.292.633-.126.272-.263.578-.412.918-.149.34-.306.69-.472 1.05-.167.36-.318.7-.455 1.02l-.37.856a18.76 18.76 0 0 1-.232.52c-.057.122-.152.352-.283.692-.132.34-.284.738-.456 1.193L46.162 35a383.472 383.472 0 0 0-.971 2.61c-.126.34-.206.57-.24.693-.115.353-.25.686-.404.999a4.106 4.106 0 0 1-.533.826c-.2.237-.43.428-.687.57a1.76 1.76 0 0 1-.867.215c-.413 0-.753-.1-1.023-.296-.268-.197-.403-.574-.403-1.132 0-.272.034-.55.103-.835a7.61 7.61 0 0 1 .258-.847c.103-.279.209-.55.317-.815.11-.265.21-.52.3-.765.62-1.36 1.25-2.722 1.89-4.088a182.973 182.973 0 0 0 1.847-4.058 99.166 99.166 0 0 0 1.64-3.946 40 40 0 0 0 1.254-3.71c.092-.246.218-.592.378-1.04.16-.45.344-.89.55-1.326.206-.435.438-.812.696-1.131.257-.32.535-.48.832-.48.459 0 .79.105.997.316.206.211.31.52.31.928 0 .082-.012.211-.035.387a13.78 13.78 0 0 1-.198 1.122c-.04.177-.077.306-.112.387.424-.462.882-.92 1.375-1.376a14.223 14.223 0 0 1 1.529-1.234 8.81 8.81 0 0 1 1.614-.897 4.23 4.23 0 0 1 1.65-.347c.377 0 .752.055 1.124.164.372.108.704.268.996.479.293.21.53.476.713.795.183.32.275.69.275 1.111 0 .558-.14 1.152-.42 1.784a13.131 13.131 0 0 1-1.057 1.907c-.424.639-.882 1.26-1.375 1.866a71.513 71.513 0 0 1-1.382 1.651c-.43.496-.79.918-1.082 1.264-.292.347-.444.582-.456.704 0 .163.052.295.155.397.103.102.275.153.515.153.195 0 .482-.109.86-.326.377-.218.907-.595 1.588-1.132a79.234 79.234 0 0 0 2.594-2.161c1.048-.903 2.34-2.041 3.874-3.415z"/></g></svg>