<svg width="56" height="56" viewBox="0 0 56 56" xmlns="http://www.w3.org/2000/svg"><title>js</title><g fill="none" fill-rule="evenodd"><path fill="#4E4E4E" d="M0 0h56v56H0z"/><path d="M14.725 46.798l4.285-2.594c.827 1.466 1.579 2.706 3.383 2.706 1.729 0 2.82-.676 2.82-3.307V25.709h5.262v17.968c0 5.45-3.195 7.932-7.857 7.932-4.21 0-6.653-2.18-7.894-4.812m18.61-.563l4.284-2.481c1.128 1.842 2.594 3.195 5.188 3.195 2.18 0 3.571-1.09 3.571-2.594 0-1.804-1.428-2.443-3.834-3.495l-1.316-.565c-3.796-1.616-6.315-3.646-6.315-7.931 0-3.947 3.007-6.955 7.706-6.955 3.346 0 5.752 1.166 7.48 4.21l-4.097 2.632c-.902-1.616-1.88-2.255-3.383-2.255-1.541 0-2.519.977-2.519 2.255 0 1.579.978 2.218 3.233 3.196l1.316.564c4.473 1.917 6.991 3.871 6.991 8.27 0 4.736-3.72 7.33-8.72 7.33-4.887 0-8.045-2.331-9.586-5.376" fill="#E8E8E0"/></g></svg>