<svg width="108" height="31" viewBox="0 0 108 31" xmlns="http://www.w3.org/2000/svg"><title>mongodb</title><g fill="none" fill-rule="evenodd"><path d="M100.557 12.838c-.097.02-.195.235-.195.353-.02.783-.039 2.86-.039 4.271 0 .04.059.118.117.118.292.02.993.039 1.596.039.837 0 1.324-.118 1.597-.235.7-.353 1.031-1.117 1.031-1.96 0-1.9-1.324-2.625-3.29-2.625a3.102 3.102 0 0 0-.817.039zm5.022 8.759c0-1.94-1.421-3.018-3.99-3.018-.117 0-.935-.02-1.13.02-.058.02-.136.059-.136.117 0 1.391-.02 3.606.04 4.468.038.372.31.901.642 1.058.35.196 1.148.235 1.693.235 1.538 0 2.881-.862 2.881-2.88zm-8.993-9.837c.194 0 .778.06 2.277.06 1.421 0 2.55-.04 3.932-.04 1.694 0 4.03.607 4.03 3.155 0 1.254-.876 2.253-2.025 2.743-.058.02-.058.058 0 .078 1.635.412 3.076 1.43 3.076 3.35 0 1.882-1.168 3.077-2.862 3.822-1.031.45-2.316.607-3.62.607-.993 0-3.66-.118-5.139-.078-.156-.06.136-.765.272-.882.35-.02.623-.04.993-.157.526-.137.584-.294.662-1.097.039-.686.039-3.116.039-4.84 0-2.37.02-3.977 0-4.761-.02-.607-.234-.804-.662-.921a34.84 34.84 0 0 0-1.324-.196c-.097-.098.234-.764.351-.843zM85.354 23.948c.467.372 1.382.529 2.2.529 1.05 0 2.102-.196 3.114-1.117 1.032-.94 1.752-2.39 1.752-4.702 0-2.215-.837-4.018-2.55-5.075-.973-.608-2.219-.862-3.66-.862-.428 0-.836.02-1.09.137-.058.039-.194.215-.194.313-.04.392-.04 3.41-.04 5.173 0 1.822 0 4.37.04 4.663 0 .294.136.745.428.94zM80.935 11.76c.37 0 1.791.06 2.472.06 1.227 0 2.103-.06 4.42-.06 1.946 0 3.58.53 4.749 1.529 1.42 1.234 2.16 2.939 2.16 5.016 0 2.958-1.343 4.663-2.686 5.643-1.343 1-3.095 1.587-5.586 1.587-1.324 0-3.601-.04-5.49-.059h-.02c-.096-.176.157-.862.312-.882.506-.058.643-.078.896-.176.408-.157.486-.372.545-1.097.058-1.352.039-2.978.039-4.82 0-1.313.02-3.88-.02-4.703-.058-.686-.35-.862-.934-.98-.292-.058-.681-.137-1.226-.195-.078-.138.272-.745.37-.863zM57.382 24.712c-.487-.059-.837-.137-1.265-.333-.059-.04-.156-.235-.156-.314-.039-.685-.039-2.645-.039-3.957 0-1.059-.175-1.98-.623-2.626-.525-.745-1.284-1.176-2.258-1.176-.856 0-2.005.588-2.959 1.41-.02.02-.175.158-.155-.058 0-.215.039-.646.058-.94a.51.51 0 0 0-.136-.412c-.623.314-2.375.725-3.017.784-.468.098-.584.549-.098.705h.02c.525.157.876.333 1.148.51.195.157.175.372.175.549.02 1.469.02 3.722-.039 4.957-.019.49-.155.666-.506.744l.04-.02c-.273.06-.487.118-.818.157-.117.118-.117.745 0 .882.214 0 1.343-.059 2.277-.059 1.285 0 1.947.06 2.278.06.136-.158.175-.745.097-.883-.37-.02-.642-.058-.895-.137-.35-.078-.448-.254-.468-.666-.038-1.039-.038-3.233-.038-4.722 0-.412.116-.608.233-.725.448-.392 1.168-.666 1.81-.666.623 0 1.032.196 1.343.45.429.353.565.863.623 1.235.098.842.059 2.508.059 3.958 0 .784-.059.98-.35 1.077-.137.06-.487.138-.896.177-.136.137-.097.744 0 .882.564 0 1.226-.06 2.2-.06 1.206 0 1.985.06 2.297.06.097-.118.136-.686.058-.843zm5.392-7.485c-1.032 0-1.674.804-1.674 2.057 0 1.274.564 2.744 2.16 2.744.273 0 .78-.118 1.013-.392.37-.353.623-1.058.623-1.803 0-1.626-.798-2.606-2.122-2.606zm-.136 8.66c-.39 0-.662.118-.837.216-.818.529-1.188 1.039-1.188 1.646 0 .568.214 1.019.682 1.41.564.49 1.343.726 2.335.726 1.986 0 2.862-1.078 2.862-2.136 0-.745-.37-1.234-1.129-1.509-.545-.235-1.538-.352-2.725-.352zm.136 5.095c-1.187 0-2.044-.255-2.784-.823-.72-.548-1.031-1.371-1.031-1.94 0-.156.039-.588.39-.98.213-.235.68-.685 1.79-1.45.039-.019.058-.038.058-.078 0-.039-.039-.078-.078-.098-.914-.352-1.187-.92-1.265-1.234v-.04c-.02-.117-.058-.234.117-.352.136-.098.331-.216.545-.352.33-.197.681-.412.895-.589.04-.039.04-.078.04-.117 0-.04-.04-.079-.079-.098-1.362-.45-2.043-1.47-2.043-2.998 0-1 .447-1.9 1.245-2.469.545-.43 1.908-.96 2.803-.96h.059c.915.02 1.42.216 2.14.47.39.138.76.196 1.267.196.758 0 1.09-.235 1.362-.509.02.04.058.137.078.392.02.255-.059.627-.253.901-.156.216-.506.373-.857.373h-.097a4.441 4.441 0 0 1-.506-.079l-.078.04c-.02.039 0 .078.02.136l.019.04c.039.176.117.705.117.842 0 1.607-.643 2.312-1.324 2.841-.662.49-1.42.803-2.278.882-.019 0-.097 0-.272.02-.097 0-.234.02-.253.02h-.02c-.155.038-.544.234-.544.567 0 .294.175.647 1.012.706.175.02.35.02.545.04 1.11.077 2.491.175 3.134.39a2.195 2.195 0 0 1 1.46 2.097c0 1.45-1.032 2.802-2.745 3.645a6.227 6.227 0 0 1-2.59.568zm11.095-13.657c-.408 0-.778.098-1.05.294-.76.47-1.15 1.41-1.15 2.782 0 2.567 1.285 4.37 3.115 4.37.545 0 .974-.157 1.343-.47.565-.47.857-1.411.857-2.724 0-2.547-1.265-4.252-3.115-4.252zm.35 8.386c-3.308 0-4.496-2.449-4.496-4.741 0-1.607.643-2.842 1.927-3.723.915-.569 2.005-.882 2.979-.882 2.53 0 4.301 1.822 4.301 4.448 0 1.783-.7 3.194-2.043 4.056-.643.43-1.752.842-2.667.842zm-34.687-8.386c-.409 0-.779.098-1.051.294-.76.47-1.149 1.41-1.149 2.782 0 2.567 1.285 4.37 3.115 4.37.545 0 .973-.157 1.343-.47.564-.47.857-1.411.857-2.724 0-2.547-1.246-4.252-3.115-4.252zm.35 8.386c-3.309 0-4.496-2.449-4.496-4.741 0-1.607.642-2.842 1.927-3.723.915-.569 2.005-.882 2.978-.882 2.53 0 4.302 1.822 4.302 4.448 0 1.783-.7 3.194-2.044 4.056-.623.43-1.732.842-2.667.842zm-22.249-.196c-.039-.058-.078-.235-.058-.45 0-.157.039-.255.058-.294.409-.06.623-.118.857-.177.389-.098.545-.313.564-.803.059-1.175.059-3.41.039-4.957v-.04c0-.176 0-.391-.214-.548a4.383 4.383 0 0 0-1.168-.51c-.175-.058-.292-.156-.273-.274 0-.117.117-.254.37-.294.643-.059 2.316-.47 2.978-.764.04.04.098.157.098.314l-.02.215a8.1 8.1 0 0 0-.039.725c0 .078.078.137.156.137.04 0 .078-.02.117-.039 1.246-.98 2.375-1.332 2.959-1.332.954 0 1.693.45 2.258 1.39.039.06.078.08.136.08.039 0 .097-.02.117-.06 1.148-.881 2.297-1.41 3.056-1.41 1.81 0 2.88 1.352 2.88 3.644 0 .647 0 1.49-.019 2.254 0 .685-.019 1.312-.019 1.763 0 .098.136.411.35.47.273.137.643.196 1.13.275h.019c.039.137-.04.646-.117.744-.117 0-.292 0-.487-.02a28.544 28.544 0 0 0-1.48-.039c-1.206 0-1.829.02-2.432.06-.039-.158-.059-.628 0-.745.35-.06.525-.118.74-.177.389-.117.486-.294.506-.803 0-.372.077-3.547-.04-4.31-.116-.785-.7-1.705-1.985-1.705-.487 0-1.246.196-1.985.764a.35.35 0 0 0-.078.195v.02c.078.412.078.882.078 1.607v1.273c0 .882-.02 1.705 0 2.332 0 .431.253.53.467.608.117.02.194.039.292.058.175.04.35.079.623.138.039.078.039.333-.02.548-.02.118-.058.176-.078.196a71.67 71.67 0 0 0-2.335-.04c-.292 0-.799.02-1.227.02-.35 0-.681.02-.876.02a1.04 1.04 0 0 1-.058-.392c0-.176.039-.313.078-.352.097-.02.175-.04.272-.04.234-.039.428-.078.623-.117.331-.098.448-.275.467-.706.059-.98.117-3.781-.02-4.487-.233-1.136-.875-1.704-1.907-1.704-.603 0-1.363.294-1.985.764-.098.078-.176.274-.176.45v1.157c0 1.41 0 3.174.02 3.938.02.235.097.51.545.607.097.02.253.06.448.079l.35.059c.04.117.02.587-.058.744-.195 0-.429-.02-.701-.02-.409-.02-.935-.039-1.518-.039-.682 0-1.168.02-1.558.04-.272-.04-.486-.04-.72-.04z" fill="#3C3C3C"/><path d="M7.394 30.218l-.798-.275s.097-4.095-1.363-4.388c-.973-1.137.156-48.202 3.66-.157 0 0-1.207.607-1.421 1.646-.234 1.019-.078 3.174-.078 3.174z" fill="#FFF"/><path d="M7.394 30.218l-.798-.275s.097-4.095-1.363-4.388c-.973-1.137.156-48.202 3.66-.157 0 0-1.207.607-1.421 1.646-.234 1.019-.078 3.174-.078 3.174z" fill="#3C3C3C"/><path d="M7.822 26.26s6.989-4.624 5.353-14.245C11.6 5.02 7.881 2.728 7.472 1.845 7.024 1.22 6.596.123 6.596.123l.292 19.456c0 .02-.603 5.957.935 6.682" fill="#555"/><path d="M6.187 26.515s-6.56-4.507-6.17-12.442c.37-7.936 5.002-11.835 5.898-12.54.584-.628.603-.863.642-1.49.409.882.331 13.187.39 14.637.174 5.584-.312 10.777-.76 11.835z" fill="#777"/></g></svg>