<svg width="81" height="49" viewBox="0 0 81 49" xmlns="http://www.w3.org/2000/svg"><title>node</title><g fill="#4E4E4E" fill-rule="evenodd"><path d="M39.638 48.858c-.271 0-.524-.072-.76-.199l-2.407-1.424c-.362-.199-.181-.27-.072-.307.488-.162.579-.198 1.086-.487.054-.036.126-.018.18.018l1.847 1.1c.072.036.163.036.217 0l7.222-4.166c.072-.036.108-.108.108-.198V34.88c0-.09-.036-.162-.108-.198l-7.222-4.148c-.072-.036-.163-.036-.217 0l-7.222 4.148c-.072.036-.109.126-.109.198v8.315c0 .072.037.162.109.198l1.973 1.136c1.068.541 1.737-.09 1.737-.721v-8.206a.22.22 0 0 1 .218-.217h.923a.22.22 0 0 1 .217.217v8.206c0 1.425-.778 2.254-2.136 2.254-.416 0-.742 0-1.665-.45l-1.9-1.083a1.519 1.519 0 0 1-.76-1.316v-8.315c0-.54.289-1.046.76-1.316l7.221-4.166a1.62 1.62 0 0 1 1.52 0l7.222 4.166c.471.27.76.775.76 1.316v8.315a1.52 1.52 0 0 1-.76 1.316l-7.22 4.167a1.858 1.858 0 0 1-.76.162z"/><path d="M41.865 43.14c-3.168 0-3.82-1.442-3.82-2.669a.22.22 0 0 1 .218-.216h.941c.109 0 .2.072.2.18.144.956.56 1.425 2.479 1.425 1.52 0 2.172-.343 2.172-1.154 0-.47-.181-.812-2.552-1.046-1.973-.199-3.204-.631-3.204-2.2 0-1.461 1.23-2.327 3.294-2.327 2.317 0 3.457.793 3.602 2.525a.29.29 0 0 1-.054.162c-.036.036-.09.072-.145.072h-.941a.212.212 0 0 1-.2-.162c-.217-.992-.778-1.317-2.262-1.317-1.665 0-1.864.578-1.864 1.01 0 .523.235.686 2.48.974 2.226.289 3.276.704 3.276 2.255-.018 1.587-1.322 2.489-3.62 2.489zm10.425-8.729c0 .758-.633 1.39-1.394 1.39-.76 0-1.393-.614-1.393-1.39a1.39 1.39 0 0 1 1.393-1.388c.76 0 1.394.613 1.394 1.388zm-2.57 0c0 .65.525 1.173 1.158 1.173.652 0 1.177-.541 1.177-1.173 0-.649-.525-1.154-1.177-1.154-.615 0-1.158.505-1.158 1.154zm.652-.775h.543c.18 0 .543 0 .543.415 0 .288-.181.342-.29.379.217.018.235.162.253.36.018.126.037.343.073.415h-.326c0-.072-.054-.469-.054-.487-.018-.09-.055-.126-.163-.126h-.272v.631h-.307v-1.587zm.29.685h.234c.2 0 .236-.144.236-.216 0-.217-.145-.217-.236-.217h-.253v.433h.018zM17.23 16.34a.917.917 0 0 0-.47-.794l-7.674-4.4a1.117 1.117 0 0 0-.416-.126h-.073a.863.863 0 0 0-.416.126l-7.674 4.4a.917.917 0 0 0-.47.794l.017 11.831c0 .163.09.325.236.397.144.09.325.09.452 0l4.561-2.597a.917.917 0 0 0 .47-.794v-5.536c0-.325.182-.632.471-.794l1.937-1.118a.88.88 0 0 1 .47-.126.78.78 0 0 1 .453.126l1.937 1.118c.29.162.47.469.47.794v5.536c0 .325.181.632.471.794l4.561 2.597c.145.09.326.09.47 0a.448.448 0 0 0 .236-.397l-.018-11.831zM54.118.054a.5.5 0 0 0-.452 0 .47.47 0 0 0-.236.397v11.723a.346.346 0 0 1-.162.288.347.347 0 0 1-.326 0l-1.919-1.1a.936.936 0 0 0-.923 0l-7.674 4.419a.917.917 0 0 0-.47.794v8.819c0 .324.18.631.47.793l7.674 4.419c.29.162.634.162.923 0l7.674-4.419a.917.917 0 0 0 .471-.793V3.409a.924.924 0 0 0-.47-.812L54.117.054zm-.706 22.436c0 .09-.036.162-.108.198l-2.625 1.515a.27.27 0 0 1-.235 0l-2.625-1.515c-.072-.036-.108-.126-.108-.198v-3.03c0-.09.036-.162.108-.198l2.625-1.515a.27.27 0 0 1 .235 0l2.625 1.515c.072.036.108.126.108.198v3.03zm26.245-3.102a.9.9 0 0 0 .452-.794v-2.146a.939.939 0 0 0-.452-.793l-7.62-4.4a.936.936 0 0 0-.923 0l-7.674 4.418a.917.917 0 0 0-.471.793v8.82c0 .324.181.63.47.793l7.62 4.329c.29.162.634.162.906 0l4.615-2.561a.448.448 0 0 0 .235-.397.448.448 0 0 0-.235-.397l-7.71-4.419a.47.47 0 0 1-.236-.396v-2.76c0-.162.09-.324.235-.397l2.408-1.37a.443.443 0 0 1 .47 0l2.408 1.37a.47.47 0 0 1 .235.397v2.164c0 .163.09.325.235.397.145.09.326.09.47 0l4.562-2.651z"/><path d="M71.458 18.973a.165.165 0 0 1 .18 0l1.467.848a.19.19 0 0 1 .09.162v1.696a.19.19 0 0 1-.09.162l-1.466.847a.165.165 0 0 1-.181 0l-1.466-.847a.19.19 0 0 1-.09-.162v-1.696a.19.19 0 0 1 .09-.162l1.466-.848zm-42.354-7.629a.936.936 0 0 1 .923 0l7.602 4.383a.9.9 0 0 1 .453.793v8.748a.939.939 0 0 1-.453.793l-7.602 4.383a.936.936 0 0 1-.923 0l-7.602-4.383a.9.9 0 0 1-.452-.793V16.52a.94.94 0 0 1 .452-.793l7.602-4.383z"/></g></svg>