<svg xmlns="http://www.w3.org/2000/svg" viewBox="0 0 50 50" width="50" height="50"><style>.st0{enable-background:new}.st1{fill:#3c3c3c}</style><g class="st0"><path class="st1" d="M1.8 17h5.5v.2c.4-.2.8-.3 1.2-.4.4-.1.8-.2 1.3-.2.9 0 1.8.2 2.6.5.8.4 1.5.8 2.1 1.4.6.6 1 1.3 1.4 2.1.3.8.5 1.7.5 2.6 0 .9-.2 1.8-.5 2.6s-.8 1.5-1.3 2.1c-.6.6-1.3 1.1-2.1 1.4-.8.3-1.7.5-2.6.5-.5 0-1-.1-1.5-.2s-.9-.2-1.3-.4V32h2.4v3.3H1.1V32h2.1V20.4H1.8V17zm7.7 3c-.5 0-1 .1-1.4.4-.4.3-.8.6-1.1 1.1v3.6c.3.4.6.8 1.1 1 .4.3 1 .4 1.5.4.4 0 .8-.1 1.2-.2.4-.2.7-.4 1-.7.3-.3.5-.6.7-1 .2-.4.2-.8.2-1.3s-.1-1-.2-1.4c-.2-.4-.4-.8-.7-1-.3-.3-.6-.5-1-.6-.5-.2-.9-.3-1.3-.3zm16.4-3h6v9.3h1.5v3.3H28v-1.1c-.4.4-.9.7-1.5.9-.6.2-1.2.3-2 .3-.7 0-1.4-.1-2-.3-.6-.2-1.2-.6-1.6-1-.5-.4-.8-1-1.1-1.7-.3-.7-.4-1.5-.4-2.4v-4.1h-1.6V17h5.6v7.4c0 .8.2 1.5.6 1.9.4.4 1 .6 1.7.6.5 0 .9-.2 1.3-.5s.7-.7.9-1.2v-5h-2V17zm18.7 12c-.5.3-.9.4-1.4.6-.5.1-.9.2-1.4.2-1 0-1.9-.2-2.7-.5-.8-.3-1.5-.8-2.1-1.4-.6-.6-1.1-1.3-1.4-2.1s-.5-1.7-.5-2.6c0-.9.2-1.7.5-2.5s.8-1.5 1.3-2.1c.6-.6 1.3-1.1 2.1-1.4s1.7-.5 2.6-.5c.6 0 1.1.1 1.6.2s.9.3 1.4.5V17h3.7v12.1c0 1.1-.2 2-.5 2.8-.4.8-.9 1.4-1.5 1.9s-1.3.9-2.1 1.1c-.8.2-1.7.4-2.6.4-1.1 0-2.1-.2-3.1-.5-.9-.3-1.8-.7-2.5-1.2l1.5-2.7c.6.4 1.2.6 1.8.8.7.2 1.4.3 2.2.3.4 0 .8 0 1.2-.1s.7-.3 1-.5c.3-.2.5-.5.6-.9.2-.3.3-.8.3-1.5zM42 26.4c.6 0 1.1-.1 1.5-.4.5-.3.8-.7 1.1-1.1v-3.1c-.3-.5-.7-.9-1.1-1.2-.5-.3-1-.5-1.6-.5-.4 0-.8.1-1.2.2-.4.2-.7.4-1 .6-.3.3-.5.6-.7 1-.2.4-.2.8-.2 1.3s.1.9.2 1.3c.2.4.4.7.7 1 .3.3.6.5 1 .6.4.2.8.3 1.3.3z"/></g></svg>