<svg width="56" height="56" viewBox="0 0 56 56" fill="none" xmlns="http://www.w3.org/2000/svg">
<rect width="56" height="56" fill="#E8E8E0"/>
<path d="M0 28.0009V56H56V0H0V28.0009ZM45.1285 25.7697C46.5503 26.1249 47.6353 26.7567 48.631 27.7874C49.1472 28.3386 49.9111 29.3431 49.9732 29.5828C49.9907 29.6528 47.5556 31.289 46.0796 32.2051C46.0271 32.2401 45.8127 32.01 45.5721 31.6539C44.852 30.6039 44.0969 30.1516 42.941 30.0719C41.2436 29.9564 40.1411 30.8454 40.1586 32.3294C40.1586 32.7651 40.2199 33.0223 40.3984 33.3793C40.772 34.1528 41.4658 34.6148 43.6428 35.558C47.6519 37.2817 49.3668 38.4192 50.4326 40.0379C51.6225 41.8421 51.8903 44.7225 51.0818 46.8644C50.1928 49.1936 47.9888 50.7755 44.887 51.3005C43.9271 51.4694 41.6513 51.4431 40.6206 51.2568C38.3719 50.8569 36.2387 49.7457 34.9228 48.288C34.4065 47.7193 33.403 46.2344 33.4651 46.1268C33.4913 46.0918 33.7232 45.9492 33.9813 45.7978L36.0611 44.5991L37.6711 43.6655L38.0088 44.1642C38.4795 44.8843 39.5111 45.8704 40.1332 46.1994C41.9199 47.1418 44.3734 47.0079 45.5817 45.9238C46.0979 45.4531 46.3106 44.964 46.3106 44.2439C46.3106 43.5946 46.2318 43.3103 45.8932 42.822C45.4575 42.2008 44.5685 41.6758 42.0433 40.5821C39.1542 39.3379 37.9099 38.5644 36.7725 37.3377C36.1145 36.6264 35.4924 35.4889 35.2343 34.5378C35.0208 33.7468 34.9674 31.7641 35.1363 30.9644C35.7313 28.1645 37.8382 26.2264 40.8787 25.649C41.8657 25.4626 44.1599 25.5335 45.1276 25.7732L45.1285 25.7697ZM31.982 28.1059L31.9995 30.3983H24.711V51.1089H19.5556V30.3983H12.2671V28.1496L12.3284 25.8397C12.3546 25.8047 16.7907 25.7872 22.1683 25.7959L31.9549 25.8222L31.982 28.1059Z" fill="#4E4E4E"/>
</svg>
