<svg width="56" height="56" viewBox="0 0 56 56" xmlns="http://www.w3.org/2000/svg"><title>wordpress</title><path d="M3.98 28c0 9.507 5.525 17.724 13.537 21.617L6.06 18.224a23.93 23.93 0 0 0-2.08 9.775zm40.234-1.213c0-2.968-1.066-5.024-1.98-6.624-1.218-1.979-2.36-3.654-2.36-5.633 0-2.208 1.675-4.264 4.034-4.264.107 0 .208.014.311.02A23.93 23.93 0 0 0 28 3.98c-8.39 0-15.773 4.306-20.068 10.827a53.55 53.55 0 0 0 1.545.028c2.513 0 6.402-.304 6.402-.304 1.295-.077 1.447 1.825.154 1.978 0 0-1.302.154-2.75.23l8.748 26.017 5.256-15.765-3.742-10.253a43.323 43.323 0 0 1-2.519-.23c-1.294-.075-1.142-2.054.152-1.978 0 0 3.967.305 6.327.305 2.512 0 6.401-.305 6.401-.305 1.296-.076 1.448 1.826.154 1.979 0 0-1.304.153-2.75.229l8.681 25.82 2.396-8.006c1.038-3.322 1.829-5.708 1.829-7.765zM28.421 30.1l-7.207 20.942a24.018 24.018 0 0 0 14.762-.383 2.11 2.11 0 0 1-.171-.33L28.42 30.1zm20.655-13.625c.103.765.161 1.587.161 2.47 0 2.438-.455 5.178-1.826 8.604l-7.337 21.213c7.14-4.164 11.944-11.9 11.944-20.762a23.89 23.89 0 0 0-2.943-11.525zM27.999 0C12.561 0 0 12.56 0 28s12.56 28 28 28c15.437 0 28-12.56 28-28S43.438 0 28 0zm0 54.717c-14.73 0-26.715-11.986-26.715-26.718 0-14.73 11.984-26.715 26.715-26.715 14.73 0 26.715 11.984 26.715 26.715 0 14.732-11.985 26.718-26.715 26.718z" fill="#4E4E4E" fill-rule="evenodd"/></svg>