<?xml version="1.0" encoding="UTF-8"?>
<svg width="43px" height="57px" viewBox="0 0 43 57" version="1.1" xmlns="http://www.w3.org/2000/svg" xmlns:xlink="http://www.w3.org/1999/xlink">
    <!-- Generator: Sketch 41 (35326) - http://www.bohemiancoding.com/sketch -->
    <title>css3</title>
    <desc>Created with Sketch.</desc>
    <defs></defs>
    <g id="Page-1" stroke="none" stroke-width="1" fill="none" fill-rule="evenodd">
        <g id="About-Myself" transform="translate(-504.000000, -543.000000)">
            <g id="what-I-do?" transform="translate(288.000000, 454.000000)">
                <g id="skills" transform="translate(0.000000, 87.000000)">
                    <g id="css3" transform="translate(216.000000, 2.000000)">
                        <g id="Group">
                            <polygon id="Shape" fill="#4E4E4E" points="38.1601029 52.2939207 21.2168774 56.8560655 4.27340319 52.2939207 0.363562051 9.93585714 42.0704416 9.93585714"></polygon>
                            <polygon id="Shape" fill="#666664" points="21.216753 13.366795 21.216753 53.2173956 21.2550653 53.2278444 34.966502 49.5356865 38.1313687 13.366795 21.216753 13.366795"></polygon>
                            <path d="M13.4398052,4.98819481 L13.4398052,2.61920779 L16.8961558,2.61920779 L16.8961558,0.026974026 L10.8475714,0.026974026 L10.8475714,7.35367532 L16.8961558,7.35367532 L16.8961558,4.98819481 L13.4398052,4.98819481 Z M23.1137532,2.61920779 L25.5301948,2.61920779 L25.5301948,0.026974026 L19.481026,0.026974026 L19.481026,2.61920779 C20.2903247,3.42850649 20.7123896,3.81585714 21.8828571,4.98632468 C21.1986234,4.98632468 19.481026,4.98877922 19.481026,4.98866234 L19.481026,7.35367532 L25.5301948,7.35367532 L25.5301948,4.98819481 L23.1137532,2.61920779 Z M31.6873636,2.61920779 L34.1036883,2.61920779 L34.1036883,0.026974026 L28.0542857,0.026974026 L28.0542857,2.61920779 C28.8635844,3.42850649 29.2858831,3.81585714 30.4563506,4.98632468 C29.7723506,4.98632468 28.0542857,4.98877922 28.0542857,4.98866234 L28.0542857,7.35367532 L34.1038052,7.35367532 L34.1038052,4.98819481 L31.6873636,2.61920779 L31.6873636,2.61920779 Z" id="Shape" fill="#4E4E4E"></path>
                            <polygon id="Shape" fill="#E8E8E0" points="21.2017018 23.9580213 9.0748752 29.008523 9.47702958 34.0088953 21.2017018 28.9958352 33.6737119 23.6634646 34.1908031 18.5482799"></polygon>
                            <polygon id="Shape" fill="#E8E8E0" points="9.07475081 29.008523 9.47690519 34.0088953 21.2015774 28.9958352 21.2015774 23.9580213 9.07475081 29.008523"></polygon>
                            <polygon id="Shape" fill="#E8E8E0" points="34.1908031 18.5484043 21.2017018 23.9580213 21.2017018 28.9958352 33.6737119 23.6634646"></polygon>
                            <polygon id="Shape" fill="#E8E8E0" points="9.09340938 29.008523 9.49568815 34.0088953 27.4856594 34.0662393 27.0832562 40.7333196 21.1635139 42.399903 15.4728988 40.9630688 15.1280885 36.8248467 9.84049852 36.8248467 10.5302437 44.8138244 21.2209823 47.974835 31.853755 44.8711684 33.2332453 29.008523 9.09340938 29.008523"></polygon>
                            <path d="M21.2017018,29.008523 L9.0748752,29.008523 L9.47702958,34.0088953 L21.2017018,34.0463369 L21.2017018,29.008523 Z M21.2017018,42.3839811 L21.1442334,42.4000274 L15.4543647,40.9631932 L15.1095543,36.8249711 L9.82208873,36.8249711 L10.5117095,44.8139488 L21.2017018,47.9749594 L21.2017018,42.3839811 Z" id="Shape" fill="#E8E8E0" opacity="0.05"></path>
                            <polygon id="Shape" fill="#E8E8E0" points="7.9827269 18.5484043 34.1908031 18.5484043 33.6737119 23.663589 8.61487926 23.663589 7.9827269 18.5484043"></polygon>
                            <polygon id="Shape" fill="#E8E8E0" opacity="0" points="21.2017018 18.5484043 7.9827269 18.5484043 8.61487926 23.663589 21.2017018 23.663589 21.2017018 18.5484043"></polygon>
                        </g>
                    </g>
                </g>
            </g>
        </g>
    </g>
</svg>