<?xml version="1.0" encoding="UTF-8"?>
<svg width="51px" height="51px" viewBox="0 0 51 51" version="1.1" xmlns="http://www.w3.org/2000/svg" xmlns:xlink="http://www.w3.org/1999/xlink">
    <!-- Generator: Sketch 41 (35326) - http://www.bohemiancoding.com/sketch -->
    <title>EJS</title>
    <desc>Created with Sketch.</desc>
    <defs></defs>
    <g id="Page-1" stroke="none" stroke-width="1" fill="none" fill-rule="evenodd">
        <g id="About-Myself" transform="translate(-938.000000, -721.000000)">
            <g id="what-I-use-?" transform="translate(880.000000, 454.000000)">
                <g id="tools" transform="translate(0.000000, 89.000000)">
                    <g id="EJS" transform="translate(58.000000, 178.000000)">
                        <rect id="Rectangle-9" fill="#4E4E4E" x="0" y="0" width="51" height="51"></rect>
                        <path d="M24.6835157,29.3819907 L24.6835157,32.2250907 L18.1443857,32.2250907 L18.1443857,35.9429907 L23.1526157,35.9429907 L23.1526157,38.6767407 L18.1443857,38.6767407 L18.1443857,42.4711857 L24.6835157,42.4711857 L24.6835157,45.3142857 L14.4264857,45.3142857 L14.4264857,29.3819907 L24.6835157,29.3819907 Z M33.8361108,39.5406057 C33.8361108,40.4299902 33.7249394,41.2391721 33.5025933,41.9681757 C33.2802472,42.6971794 32.9449105,43.3222906 32.4965733,43.8435282 C32.048236,44.3647658 31.4850892,44.7693568 30.8071158,45.0573132 C30.1291424,45.3452697 29.3308954,45.4892457 28.4123508,45.4892457 C27.9968187,45.4892457 27.5867603,45.4673759 27.1821633,45.4236357 C26.7775663,45.3798955 26.356573,45.3069962 25.9191708,45.2049357 L26.1160008,43.0507407 C26.1305808,42.8611998 26.2053026,42.7081113 26.3401683,42.5914707 C26.4750339,42.4748301 26.6627496,42.4165107 26.9033208,42.4165107 C27.0272514,42.4165107 27.1803399,42.436558 27.3625908,42.4766532 C27.5448417,42.5167484 27.7635395,42.5367957 28.0186908,42.5367957 C28.3759026,42.5367957 28.6875469,42.4875887 28.9536333,42.3891732 C29.2197196,42.2907577 29.4402399,42.1267344 29.6152008,41.8970982 C29.7901617,41.6674621 29.9213803,41.3667526 30.0088608,40.9949607 C30.0963412,40.6231689 30.1400808,40.1639034 30.1400808,39.6171507 L30.1400808,29.3819907 L33.8361108,29.3819907 L33.8361108,39.5406057 Z M45.6131058,32.6187507 C45.5037553,32.7937116 45.3889389,32.9249303 45.2686533,33.0124107 C45.1483677,33.0998912 44.9934568,33.1436307 44.8039158,33.1436307 C44.636245,33.1436307 44.4558193,33.0907787 44.2626333,32.9850732 C44.0694474,32.8793677 43.8507496,32.7609064 43.6065333,32.6296857 C43.3623171,32.4984651 43.0834774,32.3800037 42.7700058,32.2742982 C42.4565343,32.1685927 42.0993278,32.1157407 41.6983758,32.1157407 C41.0058224,32.1157407 40.49006,32.2633617 40.1510733,32.5586082 C39.8120866,32.8538547 39.6425958,33.2529782 39.6425958,33.7559907 C39.6425958,34.0767523 39.7446548,34.3428347 39.9487758,34.5542457 C40.1528969,34.7656568 40.4208017,34.9479049 40.7524983,35.1009957 C41.084195,35.2540865 41.4632712,35.3944176 41.8897383,35.5219932 C42.3162055,35.6495689 42.7517786,35.7917224 43.1964708,35.9484582 C43.6411631,36.105194 44.0767362,36.2892647 44.5032033,36.5006757 C44.9296705,36.7120868 45.3087467,36.9818141 45.6404433,37.3098657 C45.97214,37.6379174 46.2400448,38.0370409 46.4441658,38.5072482 C46.6482869,38.9774556 46.7503458,39.5442474 46.7503458,40.2076407 C46.7503458,40.9439344 46.6227721,41.6328325 46.3676208,42.2743557 C46.1124696,42.9158789 45.7425058,43.4753808 45.2577183,43.9528782 C44.7729309,44.4303756 44.1751569,44.8058068 43.4643783,45.0791832 C42.7535998,45.3525596 41.9462404,45.4892457 41.0422758,45.4892457 C40.5465534,45.4892457 40.0417259,45.4382162 39.5277783,45.3361557 C39.0138308,45.2340952 38.5162932,45.0901191 38.0351508,44.9042232 C37.5540084,44.7183273 37.102033,44.497807 36.6792108,44.2426557 C36.2563887,43.9875044 35.8882474,43.7031973 35.5747758,43.3897257 L36.6682758,41.6619957 C36.7484662,41.5307751 36.8614601,41.4250711 37.0072608,41.3448807 C37.1530616,41.2646903 37.309795,41.2245957 37.4774658,41.2245957 C37.6961669,41.2245957 37.9166872,41.29385 38.1390333,41.4323607 C38.3613794,41.5708714 38.6128819,41.7239599 38.8935483,41.8916307 C39.1742147,42.0593016 39.496794,42.21239 39.8612958,42.3509007 C40.2257977,42.4894114 40.6559034,42.5586657 41.1516258,42.5586657 C41.8223092,42.5586657 42.343539,42.4110447 42.7153308,42.1157982 C43.0871227,41.8205517 43.2730158,41.3521739 43.2730158,40.7106507 C43.2730158,40.3388589 43.1709569,40.0363269 42.9668358,39.8030457 C42.7627148,39.5697645 42.49481,39.3765815 42.1631133,39.2234907 C41.8314167,39.0703999 41.454163,38.9355363 41.0313408,38.8188957 C40.6085187,38.7022551 40.1747681,38.5728589 39.7300758,38.4307032 C39.2853836,38.2885475 38.851633,38.1135893 38.4288108,37.9058232 C38.0059887,37.6980572 37.628735,37.4246849 37.2970383,37.0856982 C36.9653417,36.7467115 36.6974369,36.3238957 36.4933158,35.8172382 C36.2891948,35.3105807 36.1871358,34.6854694 36.1871358,33.9418857 C36.1871358,33.3441027 36.3074196,32.7609086 36.5479908,32.1922857 C36.788562,31.6236629 37.1421235,31.1170129 37.6086858,30.6723207 C38.0752482,30.2276285 38.6475074,29.8722445 39.3254808,29.6061582 C40.0034542,29.3400719 40.7798315,29.2070307 41.6546358,29.2070307 C42.1430683,29.2070307 42.618736,29.2453028 43.0816533,29.3218482 C43.5445707,29.3983936 43.9837888,29.5113875 44.3993208,29.6608332 C44.8148529,29.810279 45.2030415,29.9888822 45.5638983,30.1966482 C45.9247551,30.4044143 46.2473344,30.6395144 46.5316458,30.9019557 L45.6131058,32.6187507 Z" fill="#E8E8E0"></path>
                    </g>
                </g>
            </g>
        </g>
    </g>
</svg>