<?xml version="1.0" encoding="UTF-8"?>
<svg width="57px" height="57px" viewBox="0 0 57 57" version="1.1" xmlns="http://www.w3.org/2000/svg" xmlns:xlink="http://www.w3.org/1999/xlink">
    <!-- Generator: Sketch 41 (35326) - http://www.bohemiancoding.com/sketch -->
    <title>git</title>
    <desc>Created with Sketch.</desc>
    <defs></defs>
    <g id="Page-1" stroke="none" stroke-width="1" fill="none" fill-rule="evenodd">
        <g id="About-Myself" transform="translate(-880.000000, -627.000000)" fill="#4E4E4E">
            <g id="what-I-use-?" transform="translate(880.000000, 454.000000)">
                <g id="tools" transform="translate(0.000000, 89.000000)">
                    <g id="git" transform="translate(0.000000, 84.000000)">
                        <path d="M55.9251249,25.9603779 L31.0383419,1.07493081 C29.6059914,-0.35831027 27.2814556,-0.35831027 25.8473239,1.07493081 L20.6794623,6.24279247 L27.235143,12.7984732 C28.7585601,12.283691 30.5055244,12.6290315 31.719894,13.8434011 C32.9400526,15.0655636 33.2829439,16.827446 32.7556929,18.3557614 L39.0735763,24.6738675 C40.6021145,24.1472845 42.3657781,24.4879492 43.5866047,25.7107797 C45.2928228,27.4163299 45.2928228,30.1806127 43.5866047,31.8872761 C41.8799412,33.5941623 39.1156584,33.5941623 37.4081043,31.8872761 C36.1247112,30.6025471 35.8076481,28.7177582 36.4573603,27.1366731 L30.5654191,21.2447319 L30.5647511,36.7498755 C30.9918683,36.9610619 31.3819657,37.2400252 31.719894,37.5759318 C33.4261122,39.281482 33.4261122,42.0459874 31.719894,43.7539868 C30.0132305,45.4599823 27.2476118,45.4599823 25.5433975,43.7539868 C23.8371794,42.0459874 23.8371794,39.2817047 25.5433975,37.5761544 C25.9522816,37.1670641 26.438207,36.8430887 26.9730761,36.6229612 L26.9730761,20.9733134 C26.4374287,20.7546503 25.9512291,20.4304921 25.5433975,20.0201202 C24.2506528,18.7291567 23.9398241,16.8323444 24.6022277,15.2450249 L18.1398401,8.7819693 L1.07543179,25.8452643 C-0.358477263,27.2798414 -0.358477263,29.6045998 1.07543179,31.0380636 L25.9626601,55.9239559 C27.3954559,57.3574196 29.7195463,57.3574196 31.1541233,55.9239559 L55.9249022,31.1536224 C57.3583659,29.7197133 57.3583659,27.3936189 55.9249022,25.9603779" id="Shape"></path>
                    </g>
                </g>
            </g>
        </g>
    </g>
</svg>