<?xml version="1.0" encoding="UTF-8"?>
<svg width="57px" height="55px" viewBox="0 0 57 55" version="1.1" xmlns="http://www.w3.org/2000/svg" xmlns:xlink="http://www.w3.org/1999/xlink">
    <!-- Generator: Sketch 41 (35326) - http://www.bohemiancoding.com/sketch -->
    <title>github</title>
    <desc>Created with Sketch.</desc>
    <defs></defs>
    <g id="Page-1" stroke="none" stroke-width="1" fill="none" fill-rule="evenodd">
        <g id="About-Myself" transform="translate(-992.000000, -628.000000)" fill="#4E4E4E">
            <g id="what-I-use-?" transform="translate(880.000000, 454.000000)">
                <g id="tools" transform="translate(0.000000, 89.000000)">
                    <g id="github" transform="translate(112.000000, 85.000000)">
                        <g id="Group">
                            <path d="M28.3897852,0 C12.7125586,0 0,12.6091365 0,28.163755 C0,40.6074498 8.13452344,51.1643574 19.4147344,54.8884538 C20.8335,55.1490964 21.3545156,54.27749 21.3545156,53.5335542 C21.3545156,52.8620683 21.3280195,50.6432932 21.3159961,48.29 C13.4177109,49.9936747 11.7511289,44.9670281 11.7511289,44.9670281 C10.4597227,41.7116466 8.59898438,40.8462249 8.59898438,40.8462249 C6.02329688,39.0981526 8.79314063,39.1339357 8.79314063,39.1339357 C11.6440313,39.3327309 13.1451797,42.0363454 13.1451797,42.0363454 C15.6772266,46.3420281 19.7865703,45.0971285 21.4066172,44.3777108 C21.6613359,42.5571888 22.3972148,41.3149398 23.2090195,40.6116466 C16.9033945,39.8992972 10.2744727,37.4843775 10.2744727,26.6928916 C10.2744727,23.6181928 11.3835234,21.1056426 13.1997305,19.1333735 C12.9049336,18.4238956 11.9332617,15.5594779 13.4747109,11.6801004 C13.4747109,11.6801004 15.8586914,10.9231325 21.2839336,14.5670482 C23.5483477,13.9428313 25.977082,13.6300602 28.3897852,13.6194578 C30.8024883,13.6300602 33.2330039,13.9428313 35.5018711,14.5670482 C40.9206562,10.9231325 43.3012969,11.6801004 43.3012969,11.6801004 C44.8465312,15.5594779 43.8744141,18.4238956 43.5796172,19.1333735 C45.399832,21.1056426 46.5013125,23.6179719 46.5013125,26.6928916 C46.5013125,37.51 39.8599219,39.892008 33.5382656,40.5891165 C34.5564727,41.4631526 35.4637969,43.1772088 35.4637969,45.8046185 C35.4637969,49.5728916 35.4308438,52.6058434 35.4308438,53.5335542 C35.4308438,54.283012 35.9418398,55.161245 37.3810898,54.8846988 C48.6550664,51.1564056 56.7793477,40.603253 56.7793477,28.163755 C56.7793477,12.6091365 44.0685703,0 28.3897852,0" id="Shape"></path>
                            <path d="M10.6329492,40.1199598 C10.5706055,40.2597791 10.3483945,40.301747 10.1464453,40.2058835 C9.94048828,40.113996 9.82470703,39.9231526 9.89150391,39.7826707 C9.95273438,39.6386546 10.1749453,39.5984538 10.380457,39.6952008 C10.5868594,39.7868675 10.7044219,39.9794779 10.6329492,40.1199598 M12.0294492,41.3560241 C11.8940742,41.4806024 11.6293359,41.4227309 11.4496523,41.2259237 C11.263957,41.0295582 11.2292227,40.7671486 11.3666016,40.6405823 C11.506207,40.5162249 11.7629297,40.5743173 11.9490703,40.7709036 C12.1347656,40.9694779 12.1708359,41.2303414 12.0292266,41.356245 M12.9875391,42.9375502 C12.8134219,43.05749 12.5288672,42.9450602 12.3531914,42.6945783 C12.1792969,42.4443173 12.1792969,42.1439157 12.3569766,42.0235341 C12.5333203,41.9031526 12.8134219,42.0113855 12.9915469,42.2598795 C13.1652188,42.5145582 13.1652188,42.8149598 12.9873164,42.9377711 M14.6075859,44.7693373 C14.4519492,44.9394177 14.1206367,44.8939157 13.8779414,44.6615462 C13.6299023,44.4344779 13.5606563,44.1122088 13.7167383,43.9419076 C13.8741563,43.7713855 14.2074727,43.8193173 14.4519492,44.0496988 C14.6984297,44.2763253 14.7736875,44.6010241 14.6078086,44.7693373 M16.7014453,45.3878112 C16.6330898,45.608253 16.3138008,45.7085341 15.9922852,45.6148795 C15.6712148,45.5183534 15.4610273,45.2599197 15.5258203,45.0370482 C15.5926172,44.8150602 15.9132422,44.7105823 16.237207,44.8108635 C16.557832,44.9069478 16.7684648,45.1633936 16.701668,45.3878112 M19.0847578,45.65 C19.0927734,45.8823695 18.8200195,46.0749799 18.4824727,46.0791767 C18.1429219,46.0864659 17.8683867,45.898494 17.8648242,45.6701004 C17.8648242,45.4355221 18.1313438,45.2446787 18.4706719,45.2391566 C18.8082188,45.2325301 19.0847578,45.4191767 19.0847578,45.65 M21.4257656,45.5609839 C21.4662891,45.7876104 21.2316094,46.0204217 20.8965117,46.0822691 C20.5669805,46.1419076 20.2619414,46.0020884 20.2198594,45.7774498 C20.1788906,45.5450803 20.4180234,45.31249 20.7468867,45.2521888 C21.0826523,45.1943173 21.3830156,45.3306024 21.4257656,45.5609839" id="Shape"></path>
                        </g>
                    </g>
                </g>
            </g>
        </g>
    </g>
</svg>