<?xml version="1.0" encoding="UTF-8"?>
<svg width="68px" height="42px" viewBox="0 0 68 42" version="1.1" xmlns="http://www.w3.org/2000/svg" xmlns:xlink="http://www.w3.org/1999/xlink">
    <!-- Generator: Sketch 41 (35326) - http://www.bohemiancoding.com/sketch -->
    <title>gulp</title>
    <desc>Created with Sketch.</desc>
    <defs></defs>
    <g id="Page-1" stroke="none" stroke-width="1" fill="none" fill-rule="evenodd">
        <g id="About-Myself" transform="translate(-985.000000, -546.000000)" stroke-width="0.81" stroke="#4E4E4E" fill="#4E4E4E">
            <g id="what-I-use-?" transform="translate(880.000000, 454.000000)">
                <g id="tools" transform="translate(0.000000, 89.000000)">
                    <g id="gulp" transform="translate(106.000000, 4.000000)">
                        <g id="Layer_1">
                            <g id="Group">
                                <path d="M17.6173043,20.6844444 C17.5713913,20.7524183 17.4884348,20.9665359 17.3681739,21.3265359 C17.247913,21.6870588 17.1018261,22.1388235 16.929913,22.6828758 C16.7582609,23.2264052 16.5717391,23.8345098 16.3716522,24.507451 C16.1710435,25.1801307 15.9649565,25.8666667 15.7531304,26.5667974 C15.5413043,27.267451 15.338087,27.9534641 15.1434783,28.6264052 C14.9483478,29.299085 14.774087,29.9071895 14.6196522,30.4512418 C14.4649565,30.9945098 14.3363478,31.4501961 14.2330435,31.8175163 C14.13,32.1843137 14.0668696,32.4015686 14.0441739,32.4700654 C13.9867826,32.6873203 13.8952174,32.9286275 13.7694783,33.1939869 C13.6432174,33.4588235 13.4945217,33.7105882 13.3228696,33.9484967 C13.1509565,34.1861438 12.9623478,34.383268 12.756,34.5398693 C12.5496522,34.6959477 12.3378261,34.7741176 12.1205217,34.7741176 C11.7537391,34.7741176 11.4876522,34.6517647 11.3217391,34.4073203 C11.1553043,34.1623529 11.0726087,33.7142484 11.0726087,33.0616993 L11.0726087,32.7759477 C11.0726087,32.6807843 11.078087,32.5788235 11.0898261,32.4703268 C11.1010435,32.2528105 11.1871304,31.8444444 11.3475652,31.2465359 C11.5077391,30.648366 11.6997391,29.9722876 11.9230435,29.2177778 C12.1463478,28.463268 12.3868696,27.6818301 12.6446087,26.8729412 C12.9023478,26.0640523 13.134,25.3403922 13.3403478,24.700915 C12.7330435,25.3811765 12.0748696,26.0572549 11.3650435,26.7299346 C10.6546957,27.4028758 9.92765217,28.0078431 9.1833913,28.5445752 C8.43886957,29.0820915 7.68886957,29.5202614 6.93313043,29.8598693 C6.1773913,30.1992157 5.44982609,30.3696732 4.75147826,30.3696732 C3.94982609,30.3696732 3.25982609,30.1926797 2.68147826,29.8394771 C2.10313043,29.4857516 1.62521739,29.0237908 1.24721739,28.4528105 C0.869217391,27.8818301 0.588521739,27.2363399 0.405391304,26.515817 C0.222,25.7952941 0.130434783,25.0750327 0.130434783,24.3545098 L0.130434783,24.0891503 C0.130434783,24.0078431 0.135913043,23.9262745 0.147652174,23.8447059 C0.21626087,22.5396078 0.40226087,21.2007843 0.705913043,19.8277124 C1.00930435,18.4546405 1.40713043,17.088366 1.89991304,15.7291503 C2.39217391,14.3701961 2.96191304,13.0410458 3.60913043,11.7427451 C4.25582609,10.4447059 4.96017391,9.21777778 5.72191304,8.06222222 C6.4833913,6.90718954 7.29365217,5.84339869 8.15243478,4.87111111 C9.01121739,3.89934641 9.89295652,3.06326797 10.797913,2.36313725 C11.7023478,1.66326797 12.6156522,1.11607843 13.5375652,0.721830065 C14.4592174,0.327843137 15.3727826,0.130718954 16.2772174,0.130718954 C17.3191304,0.130718954 18.3271304,0.41620915 19.3004348,0.986928105 C20.2734783,1.5579085 21.183913,2.48261438 22.0317391,3.76 C22.226087,4.0454902 22.3494783,4.33437908 22.4008696,4.62640523 C22.4522609,4.91895425 22.478087,5.19398693 22.478087,5.45228758 C22.478087,6.06379085 22.332,6.5469281 22.040087,6.90013072 C21.7481739,7.25385621 21.4017391,7.4303268 21.0007826,7.4303268 C20.6342609,7.4303268 20.2938261,7.23660131 19.9786957,6.84915033 C19.6635652,6.46169935 19.3113913,5.90797386 18.9221739,5.18745098 C18.5556522,4.53490196 18.1518261,4.0627451 17.7112174,3.77045752 C17.2703478,3.47816993 16.7921739,3.33202614 16.2766957,3.33202614 C15.4750435,3.33202614 14.6191304,3.66535948 13.7086957,4.33124183 C12.7982609,4.99738562 11.8964348,5.8779085 11.0032174,6.97202614 C10.1097391,8.06640523 9.25382609,9.31660131 8.43495652,10.7236601 C7.61634783,12.130719 6.89165217,13.5715033 6.26191304,15.0465359 C5.63191304,16.5215686 5.13104348,17.9762092 4.75904348,19.4096732 C4.38678261,20.8439216 4.20078261,22.1317647 4.20078261,23.2739869 C4.20078261,23.6543791 4.2266087,24.0454902 4.278,24.4460131 C4.32965217,24.8470588 4.42669565,25.2109804 4.57017391,25.5369935 C4.71313043,25.863268 4.90773913,26.1317647 5.15426087,26.3422222 C5.40052174,26.5537255 5.71252174,26.6583007 6.09052174,26.6583007 C6.51417391,26.6583007 6.99521739,26.515817 7.5333913,26.2300654 C8.07130435,25.9448366 8.62982609,25.5709804 9.20817391,25.1087582 C9.78626087,24.6465359 10.3674783,24.1233987 10.9518261,23.5385621 C11.535913,22.9545098 12.0795652,22.3631373 12.5835652,21.7647059 C13.0873043,21.1667974 13.5341739,20.5921569 13.9233913,20.0415686 C14.3126087,19.4912418 14.6045217,19.0120261 14.7993913,18.604183 L16.3969565,13.8122876 C16.5915652,13.2959477 16.8461739,12.9291503 17.1613043,12.7113725 C17.4761739,12.4941176 17.7996522,12.385098 18.132,12.385098 C18.2921739,12.385098 18.4523478,12.412549 18.6127826,12.4666667 C18.7729565,12.5210458 18.9161739,12.6060131 19.0421739,12.7215686 C19.1681739,12.8371242 19.268087,12.9866667 19.3426957,13.1701961 C19.4170435,13.3537255 19.4543478,13.5678431 19.4543478,13.8122876 C19.4543478,14.4648366 19.3969565,15.0766013 19.2826957,15.6475817 C19.1681739,16.219085 19.022087,16.7759477 18.8446957,17.3197386 C18.6670435,17.863268 18.4695652,18.410719 18.2522609,18.9610458 C18.0349565,19.511634 17.8231304,20.0862745 17.6173043,20.6844444 Z" id="Shape"></path>
                                <path d="M39.2778261,24.6810458 C38.7735652,25.3607843 38.1868696,26.023268 37.5172174,26.6690196 C36.8473043,27.3147712 36.1570435,27.8891503 35.4472174,28.3921569 C34.7368696,28.894902 34.0385217,29.2993464 33.3516522,29.6052288 C32.6645217,29.9111111 32.0462609,30.0640523 31.4966087,30.0640523 C30.9469565,30.0640523 30.5003478,29.8805229 30.1565217,29.5137255 C29.8132174,29.1469281 29.6413043,28.5215686 29.6413043,27.6376471 C29.6413043,27.0122876 29.7328696,26.2849673 29.916,25.4556863 C29.618087,25.9861438 29.2463478,26.5231373 28.7997391,27.0666667 C28.3528696,27.6104575 27.8433913,28.1066667 27.2707826,28.5552941 C26.6981739,29.0039216 26.0569565,29.3673203 25.3468696,29.6457516 C24.6367826,29.924183 23.8635652,30.0640523 23.028,30.0640523 C22.6502609,30.0640523 22.2863478,30.0162092 21.9370435,29.9210458 C21.5874783,29.8261438 21.2814783,29.663268 21.0182609,29.4318954 C20.7545217,29.2010458 20.5429565,28.8920261 20.3825217,28.5040523 C20.222087,28.1171242 20.142,27.6308497 20.142,27.0462745 C20.142,27.0326797 20.1649565,26.8253595 20.2108696,26.4243137 C20.2562609,26.0235294 20.4023478,25.3913725 20.6488696,24.5278431 C20.8948696,23.665098 21.276,22.5469281 21.7912174,21.1738562 C22.3066957,19.8007843 23.0337391,18.1359477 23.9726087,16.1785621 C24.2131304,15.6619608 24.4906957,15.2915033 24.8055652,15.0671895 C25.1206957,14.8428758 25.4611304,14.730719 25.8276522,14.730719 C25.988087,14.730719 26.154,14.7547712 26.325913,14.8018301 C26.4978261,14.8499346 26.6577391,14.924183 26.8069565,15.0261438 C26.9556522,15.1281046 27.075913,15.2575163 27.1677391,15.4133333 C27.2595652,15.5696732 27.3052174,15.7495425 27.3052174,15.9537255 C27.3052174,16.0896732 27.288,16.219085 27.2535652,16.3406536 C27.1961739,16.572549 27.0733043,16.8745098 26.8841739,17.2481046 C26.6950435,17.6222222 26.4748696,18.050719 26.2231304,18.5330719 C25.9708696,19.0156863 25.7047826,19.5356863 25.4243478,20.0930719 C25.1436522,20.6504575 24.8833043,21.2279739 24.6427826,21.8261438 C24.4022609,22.4245752 24.1961739,23.0326797 24.0245217,23.6509804 C23.8526087,24.2695425 23.7553043,24.8711111 23.7326087,25.4551634 C23.7326087,25.7001307 23.7897391,25.9244444 23.9042609,26.1281046 C24.0185217,26.3320261 24.2073913,26.4342484 24.4711304,26.4342484 C25.2153913,26.4342484 25.9252174,26.189281 26.6011304,25.6998693 C27.2767826,25.210719 27.9005217,24.6023529 28.4736522,23.8750327 C29.046,23.1482353 29.5643478,22.3662745 30.027913,21.5301961 C30.4917391,20.6941176 30.8786087,19.9296732 31.1874783,19.2363399 C31.4050435,18.7741176 31.5965217,18.2779085 31.7629565,17.7477124 C31.9288696,17.2177778 32.1091304,16.7286275 32.304,16.2797386 C32.4986087,15.8311111 32.721913,15.4575163 32.9736522,15.1584314 C33.2253913,14.8593464 33.5405217,14.7098039 33.9185217,14.7098039 C34.3306957,14.7098039 34.6567826,14.8664052 34.8975652,15.1785621 C35.138087,15.4915033 35.258087,15.865098 35.258087,16.3001307 C35.258087,16.545098 35.1811304,16.8813072 35.0264348,17.309281 C34.8714783,17.7377778 34.6768696,18.2271895 34.442087,18.7775163 C34.2075652,19.3278431 33.9526957,19.915817 33.678,20.5411765 C33.4030435,21.1667974 33.147913,21.8020915 32.9136522,22.4475817 C32.6786087,23.0935948 32.4842609,23.7257516 32.3295652,24.3443137 C32.1748696,24.9626144 32.0976522,25.5369935 32.0976522,26.0669281 C32.0976522,26.5566013 32.3493913,26.8010458 32.8531304,26.8010458 C33.207913,26.8010458 33.6490435,26.6786928 34.1754783,26.4345098 C34.7026957,26.1895425 35.2549565,25.8462745 35.8333043,25.4047059 C36.4113913,24.9631373 36.9897391,24.4428758 37.568087,23.8449673 C38.1461739,23.2467974 38.6590435,22.6010458 39.1053913,21.9077124 L39.2778261,24.6810458 Z" id="Shape"></path>
                                <path d="M39.8105217,23.660915 C39.6845217,23.9738562 39.5613913,24.3375163 39.4411304,24.7521569 C39.3206087,25.1667974 39.2608696,25.5369935 39.2608696,25.863268 C39.2608696,26.0669281 39.2953043,26.2300654 39.363913,26.3526797 C39.4327826,26.4750327 39.5645217,26.5362092 39.7593913,26.5362092 C39.9996522,26.5362092 40.3001739,26.4515033 40.6609565,26.2813072 C41.0214783,26.1113725 41.4106957,25.8867974 41.8291304,25.608366 C42.2473043,25.3301961 42.6824348,25.0104575 43.1345217,24.6499346 C43.5866087,24.2899346 44.0363478,23.915817 44.4829565,23.5286275 C44.9298261,23.140915 45.356087,22.7537255 45.7627826,22.3665359 C46.1692174,21.9788235 46.5328696,21.6219608 46.8537391,21.2959477 C46.9453043,21.2007843 47.0538261,21.132549 47.180087,21.0920261 C47.3055652,21.0512418 47.4146087,21.0308497 47.5064348,21.0308497 C47.7352174,21.0308497 47.9246087,21.1260131 48.0733043,21.3166013 C48.2217391,21.5069281 48.2963478,21.7579085 48.2963478,22.0711111 C48.2963478,22.3563399 48.216,22.675817 48.056087,23.029281 C47.8956522,23.3830065 47.6152174,23.7296732 47.214,24.0690196 C46.4809565,24.8713725 45.7426957,25.6324183 44.9981739,26.3529412 C44.2536522,27.0734641 43.5125217,27.7087582 42.774,28.259085 C42.0352174,28.8099346 41.3021739,29.2481046 40.5751304,29.5746405 C39.8478261,29.9006536 39.1408696,30.0637908 38.4534783,30.0637908 C37.983913,30.0637908 37.5915652,29.9890196 37.2769565,29.8397386 C36.9615652,29.6899346 36.710087,29.4860131 36.5212174,29.2282353 C36.332087,28.9696732 36.1974783,28.6640523 36.1173913,28.3103268 C36.0370435,27.9568627 35.9973913,27.5835294 35.9973913,27.1890196 C35.9973913,26.5228758 36.0803478,25.84 36.2462609,25.1393464 C36.4121739,24.4397386 36.6096522,23.7971242 36.8386957,23.2128105 C37.2393913,22.1521569 37.6463478,21.0993464 38.0585217,20.0522876 C38.4704348,19.0057516 38.8484348,18.0473203 39.1925217,17.1769935 L44.3968696,4.02535948 C44.6029565,3.4951634 44.8805217,3.12130719 45.230087,2.90379085 C45.5793913,2.68653595 45.9313043,2.57751634 46.2866087,2.57751634 C46.6411304,2.57751634 46.9651304,2.6930719 47.2573043,2.92418301 C47.5489565,3.15555556 47.6953043,3.52915033 47.6953043,4.04575163 C47.6953043,4.29045752 47.6462609,4.54875817 47.5489565,4.82039216 C47.4516522,5.09281046 47.3285217,5.38457516 47.1798261,5.6972549 C46.8933913,6.33620915 46.5529565,7.1179085 46.1577391,8.04183007 C45.7625217,8.96653595 45.3386087,9.97228758 44.8862609,11.0596078 C44.4341739,12.147451 43.970087,13.2789542 43.4953043,14.4546405 C43.0197391,15.6303268 42.555913,16.7756863 42.1035652,17.8904575 C41.6514783,19.0054902 41.2278261,20.0619608 40.8326087,21.0611765 C40.4373913,22.0603922 40.0966957,22.9270588 39.8105217,23.660915 Z" id="Shape"></path>
                                <path d="M64.1509565,19.9704575 C64.3113913,19.8616993 64.4606087,19.7735948 64.5978261,19.705098 C64.7350435,19.6376471 64.8667826,19.6031373 64.9930435,19.6031373 C65.2445217,19.6031373 65.4336522,19.7155556 65.559913,19.9396078 C65.6856522,20.1639216 65.7487826,20.4392157 65.7487826,20.7654902 C65.7487826,21.1194771 65.6718261,21.4789542 65.5168696,21.8462745 C65.3624348,22.2130719 65.1305217,22.5189542 64.8211304,22.7636601 C63.5955652,23.8512418 62.502,24.8433987 61.5406957,25.740915 C60.5786087,26.6379085 59.6707826,27.4096732 58.8177391,28.0554248 C57.9646957,28.7011765 57.1317391,29.2007843 56.3186087,29.5539869 C55.5054783,29.9071895 54.6352174,30.0839216 53.7073043,30.0839216 C52.8370435,30.0839216 52.1642609,29.8933333 51.6892174,29.5129412 C51.213913,29.132549 50.9762609,28.6091503 50.9762609,27.9427451 L50.9762609,27.7898039 C50.9762609,27.7424837 50.9817391,27.6847059 50.9934783,27.6164706 C51.0388696,27.2088889 51.2167826,26.7396078 51.525913,26.2096732 C51.8353043,25.6794771 52.2073043,25.1288889 52.6424348,24.5581699 C53.0775652,23.987451 53.5411304,23.4094118 54.033913,22.8248366 C54.5261739,22.2407843 54.9811304,21.6865359 55.3995652,21.1628758 C55.8174783,20.64 56.163913,20.1607843 56.4383478,19.7254902 C56.7135652,19.290719 56.8507826,18.9375163 56.8507826,18.6653595 C56.8507826,18.5022222 56.7931304,18.3733333 56.6791304,18.2779085 C56.5648696,18.1830065 56.3754783,18.1354248 56.1122609,18.1354248 C55.653913,18.1354248 55.182,18.2541176 54.6952174,18.4922876 C54.2081739,18.7296732 53.7271304,19.0494118 53.252087,19.4501961 C52.7767826,19.8515033 52.3126957,20.3103268 51.8606087,20.8266667 C51.4082609,21.3435294 50.9848696,21.8802614 50.5893913,22.4376471 C50.1941739,22.9952941 49.833913,23.5555556 49.5073043,24.12 C49.1809565,24.6839216 48.9031304,25.2039216 48.6743478,25.6797386 C48.6057391,25.829281 48.5081739,26.0402614 48.3821739,26.3118954 C48.2561739,26.5840523 48.1186957,26.8899346 47.9702609,27.2298039 C47.8210435,27.5694118 47.6637391,27.92 47.4975652,28.2794771 C47.3313913,28.64 47.1798261,28.9801307 47.0426087,29.299085 C46.9051304,29.6185621 46.7817391,29.9035294 46.6732174,30.1555556 C46.5641739,30.4067974 46.4866957,30.5801307 46.4413043,30.6752941 C46.3836522,30.7976471 46.2892174,31.0284967 46.1577391,31.368366 C46.026,31.7082353 45.8744348,32.1056209 45.7022609,32.5613072 C45.5308696,33.0164706 45.350087,33.4956863 45.1614783,33.9986928 C44.9728696,34.5016993 44.7952174,34.9775163 44.6290435,35.4261438 C44.4628696,35.8745098 44.3167826,36.2687582 44.1910435,36.6086275 C44.0650435,36.9482353 43.9846957,37.1796078 43.9502609,37.3016993 C43.836,37.6551634 43.7011304,37.9879739 43.5466957,38.300915 C43.392,38.6133333 43.2146087,38.8886275 43.0142609,39.1267974 C42.813913,39.364183 42.5846087,39.5547712 42.3271304,39.6977778 C42.0691304,39.8405229 41.780087,39.911634 41.4597391,39.911634 C41.0473043,39.911634 40.7068696,39.8128105 40.4373913,39.6159477 C40.1686957,39.4188235 40.0338261,39.0415686 40.0338261,38.484183 C40.0338261,38.2122876 40.068,37.9338562 40.1368696,37.6486275 C40.206,37.3628758 40.2918261,37.0805229 40.3946087,36.8020915 C40.4976522,36.5233987 40.6038261,36.2517647 40.7123478,35.9869281 C40.8213913,35.7215686 40.9218261,35.4669281 41.0128696,35.2219608 C41.6313913,33.8624837 42.2611304,32.4998693 42.9023478,31.1335948 C43.5438261,29.7673203 44.1592174,28.4154248 44.7487826,27.075817 C45.3386087,25.7369935 45.8853913,24.4216993 46.3896522,23.1301961 C46.8933913,21.8389542 47.3113043,20.6018301 47.6433913,19.4193464 C47.7349565,19.1743791 47.8609565,18.8279739 48.0213913,18.379085 C48.1815652,17.930719 48.3646957,17.4891503 48.5710435,17.0538562 C48.7771304,16.619085 49.0090435,16.2418301 49.2665217,15.9226144 C49.5242609,15.6031373 49.8018261,15.4431373 50.0994783,15.4431373 C50.5578261,15.4431373 50.8896522,15.5482353 51.0957391,15.7592157 C51.302087,15.9701961 51.4051304,16.2789542 51.4051304,16.6870588 C51.4051304,16.7686275 51.3936522,16.8980392 51.3709565,17.0742484 C51.3477391,17.2509804 51.3193043,17.4384314 51.2851304,17.6352941 C51.2506957,17.8324183 51.2133913,18.0193464 51.1732174,18.1963399 C51.1330435,18.3730719 51.0957391,18.5019608 51.0613043,18.583268 C51.4849565,18.1210458 51.9430435,17.6624837 52.4358261,17.2070588 C52.928087,16.7518954 53.4378261,16.3401307 53.9647826,15.9733333 C54.4912174,15.6065359 55.0296522,15.307451 55.5793043,15.075817 C56.1289565,14.8449673 56.6786087,14.7294118 57.2282609,14.7294118 C57.6057391,14.7294118 57.9811304,14.7837908 58.3531304,14.892549 C58.7251304,15.0013072 59.0574783,15.1610458 59.3493913,15.3715033 C59.6415652,15.5827451 59.8789565,15.8475817 60.062087,16.1667974 C60.2449565,16.4865359 60.3367826,16.8569935 60.3367826,17.2781699 C60.3367826,17.835817 60.1966957,18.4303268 59.9162609,19.0624837 C59.6355652,19.6943791 59.2833913,20.3299346 58.86,20.9686275 C58.4358261,21.6078431 57.9777391,22.2295425 57.4854783,22.8345098 C56.9926957,23.4394771 56.5322609,23.9900654 56.1026087,24.4860131 C55.6732174,24.9822222 55.3126957,25.4036601 55.0205217,25.7500654 C54.7286087,26.0969935 54.5765217,26.3315033 54.5653043,26.4535948 C54.5653043,26.6169935 54.6169565,26.749281 54.72,26.8512418 C54.8230435,26.9532026 54.9949565,27.004183 55.2354783,27.004183 C55.430087,27.004183 55.7165217,26.8951634 56.0945217,26.6776471 C56.472,26.4603922 57.0018261,26.0831373 57.6832174,25.5464052 C58.364087,25.0094118 59.2293913,24.2888889 60.2770435,23.3845752 C61.3254783,22.4823529 62.6165217,21.3435294 64.1509565,19.9704575 Z" id="Shape"></path>
                            </g>
                        </g>
                    </g>
                </g>
            </g>
        </g>
    </g>
</svg>