<?xml version="1.0" encoding="UTF-8"?>
<svg width="41px" height="58px" viewBox="0 0 41 58" version="1.1" xmlns="http://www.w3.org/2000/svg" xmlns:xlink="http://www.w3.org/1999/xlink">
    <!-- Generator: Sketch 41 (35326) - http://www.bohemiancoding.com/sketch -->
    <title>html5</title>
    <desc>Created with Sketch.</desc>
    <defs></defs>
    <g id="Page-1" stroke="none" stroke-width="1" fill="none" fill-rule="evenodd">
        <g id="About-Myself" transform="translate(-410.000000, -541.000000)">
            <g id="what-I-do?" transform="translate(288.000000, 454.000000)">
                <g id="skills" transform="translate(0.000000, 87.000000)">
                    <g id="html5" transform="translate(122.000000, 0.000000)">
                        <g id="HTML5-Logo">
                            <polygon id="Shape" fill="#464646" points="3.73124935 53.3017137 0 11 41 11 37.2647946 53.2950873 20.4749072 58"></polygon>
                            <polygon id="Shape" fill="#666664" points="21 54 34.7621232 50.1928787 38 14 21 14"></polygon>
                            <polygon id="Shape" fill="#E8E8E0" points="21 30.7090779 14.1396881 30.7090779 13.6658938 25.2910386 21 25.2910386 21 20 20.9820757 20 8 20 8.12409983 21.4194958 9.39832086 36 21 36"></polygon>
                            <polygon id="Shape" fill="#E8E8E0" points="21 43.6424777 14.8822183 42.1018389 14.492665 38 11.5315541 38 9 38 9.76657529 46.0753573 20.974817 49"></polygon>
                            <polygon id="Shape" fill="#464646" points="4 0 6.74460715 0 6.74460715 2.64179364 9.25527392 2.64179364 9.25527392 0 12 0 12 8 9.25539285 8 9.25539285 5.32112856 6.74472608 5.32112856 6.74472608 8 4.00011893 8 4.00011893 0"></polygon>
                            <polygon id="Shape" fill="#464646" points="15.2318267 2.65291698 13 2.65291698 13 0 20 0 20 2.65291698 17.7671846 2.65291698 17.7671846 8 15.2319366 8 15.2319366 2.65291698"></polygon>
                            <polygon id="Shape" fill="#464646" points="21 0 23.7863594 0 25.5003474 2.81096113 27.2125984 0 30 0 30 8 27.3388143 8 27.3388143 4.03476044 25.5003474 6.87920746 25.454377 6.87920746 23.6146364 4.03476044 23.6146364 8 21 8 21 0"></polygon>
                            <polygon id="Shape" fill="#464646" points="31 0 33.493905 0 33.493905 5.35565726 37 5.35565726 37 8 31 8"></polygon>
                            <polygon id="Shape" fill="#E8E8E0" points="20.0072128 30.6959197 19.9738848 35.9923759 26.413853 35.9923759 25.8001367 42.1880136 20.9731255 43.6412362 20.9036865 49.0213013 30.5252075 46.1279297 32.0272258 30.6959197"></polygon>
                            <polygon id="Shape" fill="#E8E8E0" points="20 20 20 23.105415 20 24.9877783 20 25.3079614 32.5186455 25.3079614 32.6394413 23.8761534 32.8758901 21.3414151 33 20"></polygon>
                        </g>
                    </g>
                </g>
            </g>
        </g>
    </g>
</svg>