<?xml version="1.0" encoding="UTF-8"?>
<svg width="107px" height="28px" viewBox="0 0 107 28" version="1.1" xmlns="http://www.w3.org/2000/svg" xmlns:xlink="http://www.w3.org/1999/xlink">
    <!-- Generator: Sketch 41 (35326) - http://www.bohemiancoding.com/sketch -->
    <title>jQuery</title>
    <desc>Created with Sketch.</desc>
    <defs>
        <polygon id="path-1" points="0.339677419 4.99002265 4.67402277 4.99002265 4.67402277 0.242174206 0.339677419 0.242174206 0.339677419 4.99002265"></polygon>
        <polygon id="path-3" points="0.0230550285 0.0709554998 0.0230550285 22.8029381 97.2461101 22.8029381 97.2461101 0.0709554998 0.0230550285 0.0709554998"></polygon>
    </defs>
    <g id="Page-1" stroke="none" stroke-width="1" fill="none" fill-rule="evenodd">
        <g id="About-Myself" transform="translate(-439.000000, -732.000000)">
            <g id="what-I-do?" transform="translate(288.000000, 454.000000)">
                <g id="skills" transform="translate(0.000000, 87.000000)">
                    <g id="jQuery" transform="translate(151.000000, 191.000000)">
                        <path d="M41.1962619,24.3855543 C41.1881926,24.6215584 41.1720541,24.8648895 41.141314,25.1232601 L42.0980977,23.3825366 L41.9928131,22.8148926 L42.9534393,22.6675828 L43.302723,25.0789129 L43.744611,23.5672522 C43.7795778,23.4195568 43.7976376,23.3092673 43.8018643,23.1985922 C43.8053226,23.087917 43.7949478,22.9699149 43.7565228,22.8075656 L44.7624905,22.6159087 C44.7989943,22.8222195 44.8224336,22.9996083 44.8162856,23.1835527 C44.8074478,23.4272694 44.7467362,23.6925813 44.5784345,24.0905491 L43.7684345,26.2735876 L42.5707258,26.2735876 L42.3186575,24.6439248 L41.3807021,26.2735876 L40.2194972,26.2735876 C40.265223,24.7542144 40.2102751,23.8032564 40.1053748,22.8075656 L41.1025047,22.6529289 C41.1785863,23.2059191 41.2181641,23.7589092 41.1962619,24.3855543" id="Fill-1" fill="#4E4E4E"></path>
                        <path d="M47.4330313,23.5525984 C46.9688567,23.8032564 46.7967125,23.8992777 46.3763425,24.1572627 L45.9279222,26.2735876 L44.8923672,26.2735876 L45.6235958,22.7705454 L46.5400332,22.6159087 L46.5008397,23.1025709 C46.8535816,22.89626 47.1379269,22.7485646 47.4510911,22.6159087 L47.4330313,23.5525984" id="Fill-2" fill="#4E4E4E"></path>
                        <path d="M48.3825142,21.1779029 L49.4530361,21.0305931 L49.2159535,22.1365734 L48.1527324,22.2842688 L48.3825142,21.1779029 Z M48.0478321,22.7632185 L49.1187381,22.6159087 L48.3448577,26.2735876 L47.3093027,26.2735876 L48.0478321,22.7632185 L48.0478321,22.7632185 Z" id="Fill-3" fill="#4E4E4E"></path>
                        <path d="M51.0261575,23.5155781 L50.648055,25.3072045 C50.6396015,25.3442248 50.6307638,25.381245 50.6299953,25.4032258 C50.6284583,25.4548999 50.6568928,25.4772663 50.7306689,25.4772663 C50.9070398,25.4772663 51.1072343,25.4032258 51.2939801,25.3295709 L51.4741935,26.0522373 C51.1748624,26.2145865 50.7441176,26.3472425 50.3252846,26.3472425 C49.8038567,26.3472425 49.5333444,26.0965844 49.5483302,25.6689233 C49.5498672,25.6172492 49.5594734,25.5655751 49.5683112,25.513901 L49.9906025,23.5155781 L49.4618738,23.5155781 L49.6374763,22.6822366 L50.1665892,22.6822366 L50.3433444,21.8195874 L51.413482,21.671892 L51.2021442,22.6822366 L52.0544118,22.6822366 L51.8196347,23.5155781 L51.0261575,23.5155781" id="Fill-4" fill="#4E4E4E"></path>
                        <path d="M54.1451186,23.6189264 C54.1493454,23.4932117 54.0421395,23.4122299 53.851167,23.4122299 C53.4761385,23.4122299 53.3585579,23.6262533 53.2970778,23.9212585 L53.2444355,24.1719165 C53.4223435,24.1275693 53.5034203,24.1129155 53.7186006,24.0462019 C54.0010247,23.9652201 54.1374336,23.8325641 54.1451186,23.6189264 Z M52.2596015,23.9652201 C52.4348197,23.1392055 52.8209915,22.6085817 53.9526091,22.6085817 C54.6281214,22.6085817 55.1322581,22.9035869 55.1111243,23.5082512 C55.0869165,24.2089368 54.7157306,24.5332497 53.825038,24.7985615 C53.3866082,24.9312175 53.3793074,24.9312175 53.0680645,25.0125849 L53.015038,25.2632429 C52.9885247,25.3962845 52.9988994,25.513901 53.1898719,25.513901 C53.5649004,25.513901 54.1151471,25.3295709 54.6073719,25.1159332 L54.7799004,25.8532534 C54.3368596,26.1258921 53.6459772,26.3472425 53.0142694,26.3472425 C52.2722818,26.3472425 51.9675712,26.0229295 51.9887049,25.4109384 C51.9933159,25.2778968 52.0136812,25.130587 52.0482638,24.9755647 L52.2596015,23.9652201 L52.2596015,23.9652201 Z" id="Fill-5" fill="#4E4E4E"></path>
                        <polyline id="Fill-6" fill="#4E4E4E" points="57.7839706 21.2145376 58.8544924 21.0672278 57.7624526 26.2735876 56.7265133 26.2735876 57.7839706 21.2145376"></polyline>
                        <path d="M60.8737287,23.6189264 C60.8783397,23.4932117 60.7711338,23.4122299 60.5801613,23.4122299 C60.2051328,23.4122299 60.0871679,23.6262533 60.0256879,23.9212585 L59.9734298,24.1719165 C60.1513378,24.1275693 60.2320304,24.1129155 60.4475949,24.0462019 C60.7296347,23.9652201 60.8664279,23.8325641 60.8737287,23.6189264 Z M58.9885958,23.9652201 C59.163814,23.1392055 59.5499858,22.6085817 60.6812192,22.6085817 C61.3571157,22.6085817 61.8612524,22.9035869 61.8401186,23.5082512 C61.8159108,24.2089368 61.4447249,24.5332497 60.553648,24.7985615 C60.1156025,24.9312175 60.1083017,24.9312175 59.7970588,25.0125849 L59.7440323,25.2632429 C59.717519,25.3962845 59.7278937,25.513901 59.9188662,25.513901 C60.2938947,25.513901 60.8437571,25.3295709 61.335982,25.1159332 L61.5088947,25.8532534 C61.0654696,26.1258921 60.3749715,26.3472425 59.7432638,26.3472425 C59.0008918,26.3472425 58.6961812,26.0229295 58.7176992,25.4109384 C58.7223102,25.2778968 58.7422913,25.130587 58.7768738,24.9755647 L58.9885958,23.9652201 L58.9885958,23.9652201 Z" id="Fill-7" fill="#4E4E4E"></path>
                        <path d="M61.9258065,26.1112383 L62.1509772,25.3442248 C62.4191841,25.4402461 62.7246632,25.5285548 63.1139089,25.5285548 C63.4593501,25.5285548 63.4847106,25.4255922 63.5200617,25.255916 C63.5550285,25.0935668 63.4551233,25.005258 63.0585769,24.7912346 C62.3235057,24.3928812 62.3031404,24.1275693 62.4176471,23.589233 C62.5840275,22.8148926 62.8191888,22.6085817 63.8109393,22.6085817 C64.1486954,22.6085817 64.5794402,22.6822366 64.8703178,22.7778723 L64.6735816,23.5599253 C64.4115228,23.4858848 64.0249668,23.4272694 63.7748197,23.4272694 C63.4662666,23.4272694 63.4205408,23.463904 63.3771205,23.655561 C63.3421537,23.8252372 63.3775047,23.8622575 63.7164137,24.0462019 C64.5237239,24.4889025 64.6436101,24.6439248 64.5210342,25.2115688 C64.3458159,26.0229295 64.0995114,26.3472425 63.0266841,26.3472425 C62.6962287,26.3472425 62.2366651,26.2512212 61.9258065,26.1112383" id="Fill-8" fill="#4E4E4E"></path>
                        <g id="Group-12" transform="translate(64.554080, 22.366408)">
                            <mask id="mask-2" fill="white">
                                <use xlink:href="#path-1"></use>
                            </mask>
                            <g id="Clip-10"></g>
                            <path d="M0.339677419,3.74483075 L0.564848197,2.97781722 C0.833055028,3.07383853 1.13853416,3.16214727 1.52816414,3.16214727 C1.87322106,3.16214727 1.89896584,3.05918467 1.93431689,2.88950848 C1.96928368,2.72715921 1.86937856,2.63885046 1.47283207,2.42482708 C0.73737666,2.02647365 0.717395636,1.76116178 0.831902277,1.22282549 C0.997898482,0.448485034 1.23305977,0.242174206 2.2251945,0.242174206 C2.56256641,0.242174206 2.99369545,0.3158291 3.2841888,0.411464773 L3.08783681,1.19351778 C2.82577799,1.11947726 2.43883776,1.06086185 2.18907495,1.06086185 C1.88052182,1.06086185 1.83479602,1.09749648 1.79137571,1.28915346 C1.75640892,1.45882965 1.79175996,1.49584991 2.13028463,1.67979433 C2.93797913,2.12249495 3.05786528,2.27751729 2.93490512,2.84516129 C2.75968691,3.65652201 2.5137666,3.98083491 1.44093928,3.98083491 C1.11009962,3.98083491 0.650920304,3.88481361 0.339677419,3.74483075" id="Fill-9" fill="#4E4E4E" mask="url(#mask-2)"></path>
                            <polyline id="Fill-11" fill="#4E4E4E" mask="url(#mask-2)" points="3.17813567 4.71082818 3.77218691 3.90718002 3.38255693 3.90718002 3.63808349 2.68319765 4.67402277 2.68319765 4.39351992 3.99548877 3.54202087 5.01316031 3.17813567 4.71082818"></polyline>
                        </g>
                        <path d="M72.4481214,25.196915 C72.4047011,25.388572 72.4531167,25.4772663 72.6367884,25.4772663 C73.0041319,25.4772663 73.2750285,25.2852237 73.4794497,25.1082206 L73.8141319,23.5082512 C73.6973197,23.4858848 73.5582211,23.4785579 73.4114374,23.4785579 C72.8750237,23.4785579 72.7547533,23.7662362 72.6767505,24.1129155 L72.4481214,25.196915 Z M73.3949146,26.2735876 L73.3760863,25.9639285 C73.111722,26.1775663 72.7386148,26.3472425 72.2241034,26.3472425 C71.445612,26.3472425 71.2711622,25.8752341 71.4386954,25.071586 L71.6411954,24.1055885 C71.8179507,23.2502663 72.060797,22.6085817 73.5666746,22.6085817 C73.6769545,22.6085817 73.9040465,22.6232356 73.9989564,22.645602 L74.2982875,21.2145376 L75.3611243,21.0672278 L74.2694687,26.2735876 L73.3949146,26.2735876 L73.3949146,26.2735876 Z" id="Fill-13" fill="#4E4E4E"></path>
                        <path d="M77.6650901,23.8842382 C77.6743121,23.6189264 77.5179222,23.4785579 77.1797818,23.4785579 C76.7901518,23.4785579 76.5553748,23.6775418 76.4846727,24.031548 L76.2994639,24.9238906 C76.2898577,24.9755647 76.2810199,25.0272388 76.2794829,25.071586 C76.2706452,25.3295709 76.4270351,25.4772663 76.7651755,25.4772663 C77.161722,25.4772663 77.388814,25.2778968 77.4599004,24.9238906 L77.6454934,24.031548 C77.6543311,23.9802595 77.6635531,23.9285854 77.6650901,23.8842382 Z M75.2331689,25.1452409 C75.2362429,25.064259 75.2470019,24.9755647 75.2646774,24.8945828 L75.4406641,24.0612414 C75.6335579,23.1392055 76.1008065,22.6085817 77.3496205,22.6085817 C78.3121679,22.6085817 78.7260057,23.1615719 78.7041034,23.8032564 C78.7010294,23.8842382 78.6906546,23.9729326 78.6729791,24.0612414 L78.4973767,24.8945828 C78.3125522,25.7576177 77.8806546,26.3472425 76.580351,26.3472425 C75.6692932,26.3472425 75.2108824,25.8015792 75.2331689,25.1452409 L75.2331689,25.1452409 Z" id="Fill-14" fill="#4E4E4E"></path>
                        <path d="M85.0280977,23.8325641 C85.0369355,23.7882169 85.0457732,23.7515823 85.0465417,23.721889 C85.0488472,23.6482341 85.0134962,23.6189264 84.9105171,23.6189264 C84.7195446,23.6189264 84.264592,23.8105833 83.9656452,23.9652201 L83.4811053,26.2735876 L82.452851,26.2735876 L82.9639042,23.8325641 C82.9723577,23.7882169 82.9815797,23.7515823 82.9819639,23.721889 C82.9846537,23.6482341 82.9493027,23.6189264 82.8463235,23.6189264 C82.655351,23.6189264 82.1930977,23.8105833 81.9087524,23.9578931 L81.4242125,26.2735876 L80.3882732,26.2735876 L81.1202704,22.7705454 L82.0363235,22.6159087 L82.0151898,23.0138765 C82.5827277,22.7485646 83.0284583,22.6085817 83.4399905,22.6085817 C83.7923482,22.6085817 83.9706404,22.7632185 84.042111,23.028916 C84.5969687,22.7115443 85.0930361,22.6085817 85.5041841,22.6085817 C85.9818074,22.6085817 86.1485721,22.8812205 86.1328178,23.338575 C86.1282068,23.463904 86.1159108,23.6038869 86.0817125,23.7515823 L85.5529839,26.2735876 L84.5170446,26.2735876 L85.0280977,23.8325641" id="Fill-15" fill="#4E4E4E"></path>
                        <path d="M88.9117173,23.8842382 C88.9213235,23.6189264 88.7645493,23.4785579 88.4264089,23.4785579 C88.0371632,23.4785579 87.8020019,23.6775418 87.7316841,24.031548 L87.5460911,24.9238906 C87.5368691,24.9755647 87.5280313,25.0272388 87.5264943,25.071586 C87.5172723,25.3295709 87.6736622,25.4772663 88.0118027,25.4772663 C88.4087334,25.4772663 88.6354412,25.2778968 88.7069118,24.9238906 L88.8921205,24.031548 C88.9013425,23.9802595 88.9101803,23.9285854 88.9117173,23.8842382 Z M86.4801803,25.1452409 C86.4832543,25.064259 86.493629,24.9755647 86.5113046,24.8945828 L86.6872913,24.0612414 C86.8805693,23.1392055 87.3478178,22.6085817 88.5966319,22.6085817 C89.5591793,22.6085817 89.9730171,23.1615719 89.9507306,23.8032564 C89.9476565,23.8842382 89.9372818,23.9729326 89.9196063,24.0612414 L89.7440038,24.8945828 C89.5595636,25.7576177 89.127666,26.3472425 87.8273624,26.3472425 C86.9163046,26.3472425 86.4575095,25.8015792 86.4801803,25.1452409 L86.4801803,25.1452409 Z" id="Fill-16" fill="#4E4E4E"></path>
                        <path d="M92.6996584,23.5525984 C92.2354839,23.8032564 92.0629554,23.8992777 91.6429696,24.1572627 L91.1945493,26.2735876 L90.1586101,26.2735876 L90.8906072,22.7705454 L91.8062761,22.6159087 L91.7674668,23.1025709 C92.1202087,22.89626 92.4045541,22.7485646 92.717334,22.6159087 L92.6996584,23.5525984" id="Fill-17" fill="#4E4E4E"></path>
                        <path d="M94.8203368,23.6189264 C94.8249478,23.4932117 94.7177419,23.4122299 94.5263852,23.4122299 C94.151741,23.4122299 94.0337761,23.6262533 93.972296,23.9212585 L93.9196537,24.1719165 C94.0975617,24.1275693 94.1786385,24.1129155 94.394203,24.0462019 C94.6762429,23.9652201 94.8130361,23.8325641 94.8203368,23.6189264 Z M92.935204,23.9652201 C93.1104222,23.1392055 93.4965939,22.6085817 94.6278273,22.6085817 C95.3037239,22.6085817 95.8074763,22.9035869 95.7867268,23.5082512 C95.7621347,24.2089368 95.3909488,24.5332497 94.4998719,24.7985615 C94.0618264,24.9312175 94.0549099,24.9312175 93.7432827,25.0125849 L93.6906404,25.2632429 C93.6637429,25.3962845 93.6745019,25.513901 93.8654744,25.513901 C94.2401186,25.513901 94.7903653,25.3295709 95.2825901,25.1159332 L95.4551186,25.8532534 C95.0120778,26.1258921 94.3211954,26.3472425 93.6898719,26.3472425 C92.9475,26.3472425 92.6427894,26.0229295 92.6643074,25.4109384 C92.6685342,25.2778968 92.6888994,25.130587 92.723482,24.9755647 L92.935204,23.9652201 L92.935204,23.9652201 Z" id="Fill-18" fill="#4E4E4E"></path>
                        <g id="Group-22" transform="translate(0.000000, 3.470649)">
                            <mask id="mask-4" fill="white">
                                <use xlink:href="#path-3"></use>
                            </mask>
                            <g id="Clip-20"></g>
                            <polyline id="Fill-19" fill="#4E4E4E" mask="url(#mask-4)" points="96.2101708 21.5789557 97.2461101 21.5789557 96.9905835 22.8029381 95.9546442 22.8029381 96.2101708 21.5789557"></polyline>
                            <path d="M1.25649905,1.81052213 C-0.494530361,4.33522679 -0.278197343,7.61961804 1.06168406,10.3024301 C1.0916556,10.3679868 1.12623814,10.4300728 1.15889943,10.4933158 C1.1777277,10.5341923 1.19924573,10.5754545 1.22230076,10.6155598 C1.23229127,10.6379262 1.24804554,10.6622207 1.26072581,10.6842015 C1.28224383,10.7277774 1.30529886,10.7682683 1.32835389,10.8099161 C1.37138994,10.8827998 1.414426,10.9568403 1.4570778,11.0289527 C1.48166983,11.069058 1.50472486,11.1095489 1.53200664,11.1496542 C1.57773245,11.227551 1.63075901,11.3042909 1.67840607,11.3821877 C1.69953985,11.4153517 1.71990512,11.4477444 1.74296015,11.4801371 C1.81135674,11.5850279 1.88052182,11.6887617 1.95660342,11.7909531 C1.97351044,11.8152476 1.98657495,11.8318296 1.99810247,11.8476403 C2.06265655,11.9363347 2.12721063,12.0227153 2.19445446,12.1083247 C2.21750949,12.1399461 2.24325427,12.1715676 2.2663093,12.2024178 C2.32778937,12.2772296 2.3881167,12.3520414 2.44844402,12.4264675 C2.47149905,12.4530758 2.49416983,12.4812267 2.51876186,12.5086062 C2.59907021,12.6053988 2.68360531,12.7021913 2.76967742,12.7970558 C2.86842979,12.9050315 2.95334915,12.9948828 3.03942125,13.0839628 C3.06631879,13.111728 3.09360057,13.1379507 3.12395636,13.1668727 C3.18966319,13.233972 3.25575427,13.3014568 3.32607211,13.3677848 C3.35489089,13.3951644 3.38332543,13.4217727 3.41060721,13.448381 C3.50244307,13.5347616 3.59427894,13.6211422 3.69034156,13.7036665 C3.71032258,13.7210198 3.72761385,13.7349024 3.74221537,13.7483993 C3.82636622,13.8208973 3.91128558,13.8930097 3.99735769,13.9643509 C4.03194023,13.9932729 4.06613852,14.0202669 4.10072106,14.0484177 C4.17219165,14.1054906 4.24404649,14.1598641 4.31551708,14.2146232 C4.35317362,14.2427741 4.39044592,14.2716961 4.42887097,14.3013895 C4.50648956,14.3592336 4.58679791,14.4163065 4.66556926,14.4722226 C4.69438805,14.4934321 4.72282258,14.514256 4.75317837,14.5335374 C4.85500474,14.603336 4.92954934,14.6538532 5.00716793,14.7047561 C5.04136622,14.7271225 5.07441176,14.7487176 5.10745731,14.771084 C5.2277277,14.847824 5.34838235,14.9222501 5.4675,14.9939769 C5.50169829,15.0121014 5.53628083,15.0317684 5.56932638,15.0510498 C5.65808824,15.1027239 5.7483871,15.1540124 5.84022296,15.2029871 C5.89055977,15.2311379 5.94051233,15.2554325 5.99238615,15.2812695 C6.05386622,15.3152047 6.1184203,15.3495256 6.18451139,15.3834609 C6.25751898,15.4158536 6.28364801,15.4297362 6.30900854,15.4424619 C6.40968216,15.4922079 6.51304554,15.5388688 6.61909867,15.586301 C6.6390797,15.5959417 6.66059772,15.6044255 6.68211575,15.6152231 C6.8012334,15.6668972 6.92035104,15.7166432 7.04215844,15.7648467 C7.07097723,15.7756442 7.09941176,15.7887556 7.12976755,15.7987819 C7.24004744,15.8419722 7.35493833,15.8843913 7.46829222,15.9252678 C7.63582543,15.9838832 7.76070683,16.0247597 7.88827799,16.0644794 C7.91824953,16.0729632 7.94860531,16.0837608 7.98011385,16.091859 C8.11075901,16.131193 8.23679317,16.1774683 8.37012808,16.2025341 C16.8363188,17.751215 19.2959061,11.0964375 19.2959061,11.0964375 C17.229407,13.7958315 13.5621205,14.5092428 10.0884962,13.7160066 C9.95938805,13.6866989 9.83181689,13.6454367 9.70117173,13.6064883 C9.67081594,13.5980045 9.63661765,13.5879782 9.60626186,13.5771806 C9.4802277,13.5390035 9.35573055,13.4977413 9.2335389,13.4560935 C9.07023245,13.398635 8.96110531,13.3569872 8.85236243,13.3145682 C8.82200664,13.3014568 8.7904981,13.2906592 8.76014231,13.2790904 C8.63987192,13.2316582 8.52075427,13.1807553 8.40471063,13.1294669 C8.37896584,13.1202118 8.35706357,13.1094142 8.33285579,13.0993879 C8.23102941,13.0523413 8.13342979,13.0064516 8.03467742,12.9586338 C8.00432163,12.9459081 7.9774241,12.9316398 7.94706831,12.9166004 C7.86944972,12.8795801 7.79221537,12.8387036 7.71613378,12.7982126 C7.66310721,12.7712187 7.61161765,12.7457673 7.56128083,12.7180021 C7.46829222,12.6674849 7.37491935,12.6142682 7.28154649,12.5625941 C7.2527277,12.5429271 7.22121917,12.5263451 7.18817362,12.5086062 C7.06790323,12.4364938 6.94609583,12.3624533 6.82697818,12.286099 C6.79277989,12.2645039 6.7608871,12.2429087 6.72937856,12.2205423 C6.6421537,12.1650119 6.55608159,12.1067822 6.47116224,12.0493236 C6.44388046,12.0296566 6.41698292,12.009604 6.38816414,11.9895513 C6.30631879,11.9317072 6.22601044,11.873863 6.14454934,11.8137051 C6.10996679,11.7863255 6.0742315,11.7593316 6.03657495,11.731952 C5.96356736,11.6748791 5.89055977,11.6189631 5.81755218,11.559962 C5.78565939,11.5333537 5.7529981,11.5071311 5.72110531,11.4816796 C5.6265797,11.4053253 5.53781784,11.3285854 5.44713472,11.2495317 C5.31956357,11.1380853 5.22350095,11.0497766 5.12897533,10.9618535 C5.10015655,10.9344739 5.07594877,10.9094081 5.04712998,10.8831854 C4.97834915,10.8157006 4.90956831,10.7493726 4.84232448,10.6811165 C4.81350569,10.65258 4.78737666,10.6255861 4.76047913,10.5982065 C4.67440702,10.5110547 4.58948767,10.4212034 4.50648956,10.329424 C4.40620019,10.2199057 4.32166509,10.1219563 4.23674573,10.0224643 C4.2136907,9.99585603 4.19255693,9.96886209 4.1695019,9.94263941 C4.10763757,9.86628512 4.0461575,9.7895452 3.98314042,9.71319092 C3.96277514,9.68349758 3.93972011,9.65573239 3.91704934,9.62681031 C3.8436575,9.53233152 3.77372391,9.43823835 3.70340607,9.34106017 C1.77562144,6.70182408 1.08012808,3.05995593 2.62212524,0.0709554998" id="Fill-21" fill="#4E4E4E" mask="url(#mask-4)"></path>
                        </g>
                        <path d="M6.69210626,3.15289221 C5.42292694,4.98115321 5.49324478,7.42873233 6.481537,9.36304095 C6.64484345,9.68696823 6.83120493,10.0016404 7.04062144,10.3001163 C7.23005693,10.5735264 7.43947343,10.8974536 7.69307875,11.1168758 C7.78222486,11.2175246 7.87828748,11.3154741 7.9774241,11.4141948 C8.00163188,11.4384893 8.02622391,11.4623982 8.05196869,11.4882353 C8.14649431,11.5796291 8.24255693,11.6694803 8.3413093,11.7574034 C8.3443833,11.7612597 8.35014706,11.7647304 8.35322106,11.768201 C8.35437381,11.7689723 8.35591082,11.7701292 8.35591082,11.7701292 C8.4661907,11.8680786 8.57839184,11.9610149 8.69443548,12.0516374 C8.72171727,12.0713044 8.74592505,12.0928996 8.77320683,12.1121809 C8.88809772,12.2024178 9.00567837,12.2884128 9.12479602,12.3736365 C9.12902277,12.3747934 9.13171252,12.3778784 9.13747628,12.3801922 C9.18935009,12.4172125 9.24352941,12.451919 9.29962998,12.4877823 C9.32383776,12.5035931 9.34958254,12.5224888 9.37417457,12.5375283 C9.46139943,12.5946012 9.54785579,12.6474322 9.63661765,12.7002632 C9.64968216,12.7068189 9.66236243,12.7137602 9.67542694,12.7203158 C9.74997154,12.7658199 9.82874288,12.8101671 9.90789848,12.850658 C9.93479602,12.86724 9.9620778,12.8799657 9.98935958,12.8950052 C10.0439231,12.9223848 10.0984867,12.9513068 10.1515133,12.9794577 C10.1584298,12.9829283 10.1688046,12.9871702 10.1772581,12.9910265 C10.289075,13.0465569 10.4024288,13.0974598 10.5142457,13.1487482 C10.5415275,13.1595458 10.5645825,13.1688009 10.5903273,13.1795985 C10.6821632,13.2189325 10.7751518,13.2578809 10.8673719,13.2933586 C10.908871,13.3068556 10.9476803,13.3234376 10.9861053,13.3369346 C11.0706404,13.3673992 11.1570968,13.3967069 11.2416319,13.4248577 C11.2831309,13.4387403 11.3204032,13.4503091 11.3576755,13.4622636 C11.4783302,13.5004407 11.6001376,13.5494154 11.7277087,13.5694681 C18.261888,14.6569382 19.7735294,9.60560078 19.7735294,9.60560078 C18.4125142,11.5730734 15.778093,12.5101487 12.9669165,11.7778417 C12.8404981,11.745449 12.717538,11.7092 12.5968833,11.6694803 C12.558074,11.659454 12.5238757,11.6474995 12.4866034,11.6343882 C12.3989943,11.6062374 12.3113852,11.5769297 12.2268501,11.5449226 C12.1880408,11.5306543 12.1480787,11.5163861 12.1092694,11.5013466 C12.0158966,11.4643264 11.922908,11.428463 11.8322249,11.3883577 C11.8053273,11.3775601 11.7791983,11.3679194 11.7580645,11.3567362 C11.6416366,11.306219 11.5267457,11.2522311 11.4149288,11.1982433 C11.3576755,11.1685499 11.3019592,11.1400135 11.2443216,11.1099345 C11.2101233,11.0925813 11.1770778,11.0759993 11.146722,11.0601885 C11.0706404,11.0204689 11.0003226,10.9788211 10.928852,10.936402 C10.9115607,10.927147 10.8942694,10.9182775 10.8773624,10.9082512 C10.7897533,10.8550346 10.6994545,10.801818 10.6160721,10.7462876 C10.5876376,10.7297056 10.5630455,10.7108098 10.5357638,10.6938422 C10.4785104,10.6572076 10.4224099,10.6205729 10.3636195,10.5808533 C10.2448861,10.4979433 10.1284583,10.4104058 10.0124146,10.3224827 C9.98513283,10.3001163 9.95938805,10.2800637 9.93364326,10.2584685 C8.70019924,9.28398727 7.72458729,7.95125788 7.26310247,6.441911 C6.77548861,4.87433433 6.88307875,3.11471506 7.72343454,1.68789251" id="Fill-23" fill="#4E4E4E"></path>
                        <path d="M11.2616129,1.56333476 C10.513093,2.6658444 10.4412381,4.03520842 10.9576708,5.25147824 C11.5052277,6.54410234 12.6253178,7.55830324 13.9306167,8.03802412 C13.9836433,8.05884801 14.0366698,8.07620126 14.0912334,8.09509702 C14.1158254,8.10203832 14.1384962,8.1101365 14.1646252,8.11784905 C14.2407068,8.14175797 14.3164042,8.17029442 14.3951755,8.18571953 C18.0052087,8.88524821 18.9835104,6.32660831 19.2459535,5.95023566 C18.3867694,7.18964314 16.9454459,7.48696211 15.1771252,7.05583032 C15.0380266,7.02189508 14.8858634,6.97176348 14.7509915,6.92278876 C14.5788472,6.86147395 14.40824,6.79013283 14.2418596,6.7118504 C13.9306167,6.55991308 13.6293643,6.37712554 13.351167,6.16541593 C11.7676708,4.96071494 10.7870636,2.66275938 11.8195446,0.790922446" id="Fill-24" fill="#4E4E4E"></path>
                        <path d="M94.9113529,6.72804677 L95.0578676,7.32846912 C95.0991618,7.50007345 94.9867941,7.63928506 94.8057353,7.63928506" id="Fill-25" fill="#4E4E4E"></path>
                        <path d="M83.5199146,5.69726388 C83.4841793,5.86385505 83.4411433,6.07363653 83.4127087,6.21284814 L82.1635104,12.0801738 L83.4772628,5.89894718 L83.5199146,5.69726388" id="Fill-26" fill="#4E4E4E"></path>
                        <polyline id="Fill-27" fill="#4E4E4E" points="46.0958397 9.62411091 45.4057258 12.0759319 46.0958397 9.62449654 46.0958397 9.62411091"></polyline>
                        <g id="Group-31" transform="translate(80.692600, 1.542511)" fill="#4E4E4E">
                            <path d="M14.3571347,5.78595825 L13.997092,4.25810124 C13.7131309,3.15250658 12.9085104,2.62998102 11.1002277,2.62998102 L3.49437381,2.62998102 C3.3191556,2.62998102 3.14432163,2.70903471 3.10858634,2.88102467 L0.223249526,16.6151558 C0.185592979,16.7886883 0.174449715,16.9120891 0.19404649,16.9980841 C0.214411765,17.0863929 0.552936433,17.0698109 0.726233397,17.0698109 L3.3610389,17.0698109 C3.53740987,17.0698109 3.85749051,17.0829222 3.95047913,17.0455163 C4.04807875,17.0050254 4.0911148,16.7435698 4.12685009,16.5700373 L5.05788899,11.754704 L6.1952704,6.41337455 C6.23215844,6.24215584 6.40430266,6.10178735 6.57952087,6.10178735 L14.1131357,6.09677419 C14.2868169,6.09677419 14.3970968,5.95717696 14.3571347,5.78595825" id="Fill-28"></path>
                            <path d="M25.0742647,0.218265287 C24.8978937,0.220193426 21.7332068,0.218265287 21.7332068,0.218265287 C21.5583729,0.218265287 21.3332021,0.406837241 21.2356025,0.55221889 L15.3707875,9.21148926 C15.2708824,9.35687091 15.1575285,9.35185775 15.1187192,9.18063904 L14.6852846,7.28257942 C14.6483966,7.11058946 14.4735626,6.97022097 14.2956546,6.97022097 L10.5261575,6.97022097 C10.3528605,6.97022097 10.2479602,7.11560262 10.2940702,7.28566444 L11.9836195,13.2305013 C12.0324194,13.4005631 12.0366461,13.6786007 11.9932258,13.8490482 L11.2055123,16.8600294 C11.163629,17.0308625 11.2712192,17.0821509 11.4491271,17.0821509 L15.1709772,17.0821509 C15.3458112,17.0821509 15.5267932,17.0316337 15.569445,16.8600294 L16.3579269,13.8066291 C16.400963,13.6365673 16.5227704,13.404805 16.6272865,13.262894 L26.1985816,0.524068066 C26.3061717,0.384470833 26.2908017,0.217494032 26.1159677,0.217494032 L25.0742647,0.218265287" id="Fill-30"></path>
                        </g>
                        <path d="M66.5218264,4.18406072 L63.1196727,4.18406072 C62.9463757,4.18406072 62.7684677,4.24537553 62.7338852,4.41813674 L61.6095683,9.69776581 L60.4894782,14.7533452 C60.4537429,14.9249495 60.2800617,14.912995 60.1048435,14.912995 L57.8692742,14.912995 C55.6575285,14.912995 55.9126708,13.5108527 56.3676233,11.408796 C56.3730028,11.3875865 57.7858918,4.41813674 57.7858918,4.41813674 C57.8174004,4.24614678 57.7025095,4.18406072 57.5292125,4.18406072 L54.2880598,4.18406072 C54.1132258,4.18406072 53.9391603,4.24614678 53.9053463,4.41813674 L52.6012002,11.4033972 C51.9510484,15.1806207 51.9314516,18.5039603 56.2957685,18.6134786 C56.3676233,18.616178 63.1873008,18.6134786 63.1873008,18.6134786 C63.3636717,18.6134786 63.5369687,18.5556344 63.5746252,18.385187 L65.0543738,11.3798739 L66.5287429,4.34525311 C66.5287429,4.34525311 66.5810009,4.18406072 66.5218264,4.18406072" id="Fill-32" fill="#4E4E4E"></path>
                        <path d="M32.6370825,4.17249189 L28.989777,4.17249189 C28.8149431,4.17249189 28.6385721,4.21413968 28.5997628,4.3869009 L27.9415417,7.2447879 C27.9042694,7.41407847 28.0160863,7.54904817 28.1924573,7.54904817 L31.6845256,7.54904817 C31.8612808,7.54904817 32.0361148,7.3893983 32.0733871,7.21895085 L32.7074004,4.33946869 C32.7074004,4.33946869 32.7577372,4.17249189 32.6370825,4.17249189" id="Fill-33" fill="#4E4E4E"></path>
                        <path d="M27.955759,8.51273184 C27.782462,8.51273184 27.6045541,8.65194344 27.5672818,8.82354777 L27.0750569,11.0035013 L25.9780218,16.0374855 C25.9780218,16.0374855 25.3943454,18.7137418 25.3382448,18.8811042 C25.3382448,18.8811042 24.8467884,20.8134847 23.672519,20.7359736 C23.1261148,20.6997246 22.5017078,20.5740099 22.5017078,20.5740099 L22.5001708,20.5740099 C22.1716366,20.474518 22.1485816,20.8165697 22.1086195,20.9874028 L21.3843074,24.123713 C21.3424241,24.295703 21.4546252,24.4499541 21.6283065,24.4522679 C21.6283065,24.4522679 23.1983539,24.6743894 24.3073008,24.6743894 L24.4894355,24.6743894 C27.2287571,24.6743894 28.6758444,23.0582237 29.6007353,18.669009 L30.6850901,13.5887495 L31.7018169,8.86172492 C31.7394734,8.68973496 31.6357258,8.53008508 31.4608918,8.53008508" id="Fill-34" fill="#4E4E4E"></path>
                        <path d="M76.7471157,10.1936831 C76.7471157,10.3845688 76.1465323,10.3483198 76.1465323,10.3483198 L71.3637666,10.3132276 C71.1985389,10.3132276 71.1512761,10.0806941 71.1397486,9.91448858 C71.1393643,9.90870417 71.1516603,9.71511905 71.1658776,9.66691559 C71.5355266,8.3800759 72.6387097,7.64468385 74.3870493,7.64468385 C76.3544118,7.64468385 76.7747818,8.62417825 76.7747818,9.71010589 M75.1298055,4.15128237 C68.9944782,4.15128237 67.5300996,7.9570423 66.7154886,11.728867 C65.9004934,15.5747322 65.9700427,18.6146355 72.3182448,18.6146355 L72.5472581,18.6146355 L78.1258065,18.6146355 C78.2975664,18.6115505 78.4697106,18.4534431 78.5042932,18.2829957 L79.1283159,15.8435147 C79.1644355,15.6703679 79.0480076,15.619465 78.8747106,15.619465 L73.1651328,15.619465 C71.0970968,15.619465 70.3566461,14.9800943 70.4288852,13.5447879 C70.4273482,13.3812818 70.6137097,12.9655751 70.7885436,12.9655751 L79.5832685,12.9655751 C79.9694402,12.9632613 79.9817362,12.7365122 79.9817362,12.7365122 C80.8770398,8.68125115 80.9354459,4.15128237 75.1298055,4.15128237" id="Fill-35" fill="#4E4E4E"></path>
                        <path d="M45.3730645,12.0759319 L44.6660436,14.5011446 C44.6172438,14.6712065 44.4178178,14.784581 44.2425996,14.784581 L40.5952941,14.784581 C37.827538,14.784581 37.1547154,12.6381771 37.827538,9.43476771 C38.5030503,6.16040277 39.8413947,4.13431475 42.563425,3.9291608 C46.2852751,3.6480382 47.0468596,6.28534615 46.1446395,9.31753688 L45.3730645,12.0759319 Z M48.6142173,14.645755 C48.6142173,14.645755 50.3325854,10.4566812 50.7222154,8.03571035 C51.2559393,4.79566628 49.6409345,0.0967925568 43.3964801,0.0967925568 C37.1892979,0.0967925568 34.4957021,4.58279978 33.4647581,9.45983351 C32.4376565,14.372345 33.782149,18.649342 39.9551328,18.6146355 L49.3769545,18.6088511 C49.5506357,18.6080798 49.7316176,18.4673257 49.7761907,18.2995776 L50.5704364,15.2643019 C50.6134725,15.0926976 50.5058824,14.9538716 50.3295114,14.9531003 L49.5706167,14.9473159 L48.8121063,14.9438453 C48.6630171,14.9426884 48.576945,14.8455102 48.596926,14.7167105 C48.5996157,14.6931872 48.6026898,14.6700496 48.6142173,14.645755 L48.6142173,14.645755 Z" id="Fill-36" fill="#4E4E4E"></path>
                    </g>
                </g>
            </g>
        </g>
    </g>
</svg>