<?xml version="1.0" encoding="UTF-8"?>
<svg width="56px" height="56px" viewBox="0 0 56 56" version="1.1" xmlns="http://www.w3.org/2000/svg" xmlns:xlink="http://www.w3.org/1999/xlink">
    <!-- Generator: Sketch 41 (35326) - http://www.bohemiancoding.com/sketch -->
    <title>js</title>
    <desc>Created with Sketch.</desc>
    <defs></defs>
    <g id="Page-1" stroke="none" stroke-width="1" fill="none" fill-rule="evenodd">
        <g id="About-Myself" transform="translate(-305.000000, -542.000000)">
            <g id="what-I-do?" transform="translate(288.000000, 454.000000)">
                <g id="skills" transform="translate(0.000000, 87.000000)">
                    <g id="js" transform="translate(17.000000, 1.000000)">
                        <g id="Group">
                            <polygon id="Shape" fill="#4E4E4E" points="0 0 56 0 56 56 0 56"></polygon>
                            <path d="M14.7245,46.797625 L19.0098125,44.204125 C19.8366875,45.6699687 20.58875,46.9102812 22.3927813,46.9102812 C24.122,46.9102812 25.2124688,46.2339062 25.2124688,43.6027812 L25.2124688,25.7094687 L30.4749375,25.7094687 L30.4749375,43.6771562 C30.4749375,49.12775 27.279875,51.6088125 22.6183125,51.6088125 C18.4084688,51.6088125 15.9648125,49.4285312 14.7242813,46.7971875 M33.3333438,46.2336875 L37.6182188,43.7528437 C38.7463125,45.5949375 40.212375,46.948125 42.805875,46.948125 C44.9865938,46.948125 46.3769688,45.857875 46.3769688,44.3541875 C46.3769688,42.5499375 44.9485313,41.91075 42.5427188,40.8585625 L41.227375,40.2941875 C37.4305313,38.6782812 34.9120625,36.6482812 34.9120625,32.3629687 C34.9120625,28.4158437 37.9192188,25.4084687 42.6181875,25.4084687 C45.96375,25.4084687 48.3695625,26.5739687 50.0985625,29.61875 L46.0009375,32.2503125 C45.0985938,30.6339687 44.1216563,29.995 42.6179688,29.995 C41.0766563,29.995 40.0992813,30.972375 40.0992813,32.2503125 C40.0992813,33.8290312 41.0766563,34.4684375 43.3319688,35.4458125 L44.6475313,36.0095312 C49.1209688,37.926875 51.6394375,39.8814062 51.6394375,44.2791562 C51.6394375,49.0159687 47.9180625,51.6094687 42.9185313,51.6094687 C38.031875,51.6094687 34.8742188,49.2789062 33.333125,46.2339062" id="Shape" fill="#E8E8E0"></path>
                        </g>
                    </g>
                </g>
            </g>
        </g>
    </g>
</svg>