<?xml version="1.0" encoding="UTF-8"?>
<svg width="263px" height="237px" viewBox="0 0 263 237" version="1.1" xmlns="http://www.w3.org/2000/svg" xmlns:xlink="http://www.w3.org/1999/xlink">
    <!-- Generator: Sketch 41 (35326) - http://www.bohemiancoding.com/sketch -->
    <title>mainLogo</title>
    <desc>Created with Sketch.</desc>
    <defs></defs>
    <g id="Page-1" stroke="none" stroke-width="1" fill="none" fill-rule="evenodd">
        <g id="First-View" transform="translate(-589.000000, -393.000000)" fill="#3C3C3C">
            <g id="mainLogo" transform="translate(588.500000, 393.000000)">
                <g id="Group">
                    <g id="Layer_1" transform="translate(0.500992, 0.505588)">
                        <polygon id="Shape" points="58.9314555 138.741384 75.4129167 75.2588627 88.3626361 119.499395 114.34898 29.2463922 147.224997 164.140809 167.049233 85.1483873 180.474545 134.881532 196.669381 57.1553515 252 49.458556 193.726262 54.0766333 178.422049 117.960036 166.060953 71.5994422 146.04775 146.438179 111.862106 0.140808616 88.3626361 110.26324 73.9924585 62.0171746 55.8163113 134.881532 7 144.561081"></polygon>
                        <path d="M39.5408022,229.669448 L36.300008,229.669448 L36.300008,228.54495 L39.5408022,228.54495 L39.5408022,229.669448 Z M49.2252691,232.536918 L47.842344,232.536918 L47.842344,222.585111 L54.0166158,222.585111 L54.0166158,223.808003 L49.2252691,223.808003 L49.2252691,226.900372 L53.7092991,226.900372 L53.7092991,228.095151 L49.2252691,228.095151 L49.2252691,232.536918 Z M56.6168343,227.308003 C56.6168343,227.129956 56.612178,226.900374 56.6028653,226.619248 C56.5935526,226.338122 56.5795838,226.089798 56.5609585,225.874268 L57.8041942,225.874268 C57.8228196,226.042943 57.8367884,226.237386 57.846101,226.457601 C57.8554137,226.677816 57.86007,226.858203 57.86007,226.998766 L57.9019768,226.998766 C58.0882303,226.605189 58.3606219,226.288928 58.7191598,226.049971 C59.0776977,225.811014 59.4804648,225.691537 59.9274732,225.691537 C60.132352,225.691537 60.3046339,225.710278 60.444324,225.747762 L60.3884482,226.970653 C60.2021947,226.923799 60.0019753,226.900372 59.7877838,226.900372 C59.4711529,226.900372 59.1964331,226.958939 58.9636163,227.076075 C58.7307994,227.193211 58.5375644,227.35017 58.3839052,227.546959 C58.2302461,227.743747 58.1161676,227.970987 58.0416662,228.228685 C57.9671648,228.486384 57.9299147,228.755792 57.9299147,229.036918 L57.9299147,232.536918 L56.6168343,232.536918 L56.6168343,227.308003 Z M69.6239135,229.191537 C69.6239135,229.706934 69.5331163,230.180156 69.3515192,230.611216 C69.169922,231.042275 68.9184836,231.414761 68.5971964,231.728685 C68.2759091,232.042609 67.8964234,232.286248 67.4587277,232.459609 C67.021032,232.63297 66.5507491,232.719649 66.0478647,232.719649 C65.5449803,232.719649 65.0746974,232.63297 64.6370017,232.459609 C64.199306,232.286248 63.8221484,232.042609 63.5055175,231.728685 C63.1888866,231.414761 62.9397763,231.042275 62.7581792,230.611216 C62.5765821,230.180156 62.4857849,229.706934 62.4857849,229.191537 C62.4857849,228.676139 62.5765821,228.205261 62.7581792,227.778886 C62.9397763,227.352512 63.1888866,226.984711 63.5055175,226.675473 C63.8221484,226.366234 64.199306,226.124938 64.6370017,225.951577 C65.0746974,225.778216 65.5449803,225.691537 66.0478647,225.691537 C66.5507491,225.691537 67.021032,225.778216 67.4587277,225.951577 C67.8964234,226.124938 68.2759091,226.366234 68.5971964,226.675473 C68.9184836,226.984711 69.169922,227.352512 69.3515192,227.778886 C69.5331163,228.205261 69.6239135,228.676139 69.6239135,229.191537 Z M68.2549573,229.191537 C68.2549573,228.872927 68.2060665,228.568379 68.1082834,228.277882 C68.0105004,227.987385 67.8684842,227.732033 67.6822308,227.511818 C67.4959773,227.291603 67.2654921,227.115902 66.9907682,226.98471 C66.7160443,226.853517 66.4017463,226.787922 66.0478647,226.787922 C65.6939831,226.787922 65.3796851,226.853517 65.1049612,226.98471 C64.8302373,227.115902 64.5997521,227.291603 64.4134987,227.511818 C64.2272452,227.732033 64.085229,227.987385 63.987446,228.277882 C63.8896629,228.568379 63.8407721,228.872927 63.8407721,229.191537 C63.8407721,229.510146 63.8896629,229.814695 63.987446,230.105191 C64.085229,230.395688 64.2272452,230.653383 64.4134987,230.878284 C64.5997521,231.103185 64.8302373,231.281228 65.1049612,231.41242 C65.3796851,231.543612 65.6939831,231.609208 66.0478647,231.609208 C66.4017463,231.609208 66.7160443,231.543612 66.9907682,231.41242 C67.2654921,231.281228 67.4959773,231.103185 67.6822308,230.878284 C67.8684842,230.653383 68.0105004,230.395688 68.1082834,230.105191 C68.2060665,229.814695 68.2549573,229.510146 68.2549573,229.191537 Z M74.1239079,225.874268 C74.1425333,226.042943 74.1565021,226.2327 74.1658147,226.443545 C74.1751274,226.654389 74.1797837,226.83009 74.1797837,226.970653 L74.2216905,226.970653 C74.3055046,226.792607 74.4195831,226.626277 74.5639295,226.471657 C74.708276,226.317038 74.8735735,226.181163 75.0598269,226.064027 C75.2460804,225.946891 75.4509562,225.855526 75.6744603,225.78993 C75.8979645,225.724334 76.1307778,225.691537 76.3729073,225.691537 C76.8012903,225.691537 77.1691354,225.76416 77.4764537,225.909408 C77.7837719,226.054657 78.0398666,226.249099 78.2447454,226.492742 C78.4496242,226.736384 78.6009529,227.022191 78.698736,227.350171 C78.796519,227.678152 78.8454098,228.029554 78.8454098,228.404388 L78.8454098,232.536918 L77.5323294,232.536918 L77.5323294,228.840131 C77.5323294,228.568376 77.5113762,228.310681 77.4694692,228.067039 C77.4275622,227.823396 77.3507337,227.60787 77.2389817,227.420452 C77.1272296,227.233035 76.9735728,227.083104 76.7780066,226.970653 C76.5824405,226.858203 76.3310021,226.801979 76.0236838,226.801979 C75.5021741,226.801979 75.0761257,227.001106 74.7455258,227.399368 C74.4149259,227.79763 74.2496284,228.329418 74.2496284,228.99475 L74.2496284,232.536918 L72.936548,232.536918 L72.936548,227.308003 C72.936548,227.129956 72.9318917,226.900374 72.922579,226.619248 C72.9132664,226.338122 72.8992976,226.089798 72.8806722,225.874268 L74.1239079,225.874268 Z M85.8039378,226.956597 L84.0438513,226.956597 L84.0438513,230.428485 C84.0438513,230.831432 84.1183516,231.119581 84.2673543,231.292942 C84.4163571,231.466303 84.6538267,231.552983 84.9797703,231.552983 C85.1008351,231.552983 85.2312105,231.538927 85.3709006,231.510814 C85.5105907,231.482701 85.6363099,231.440533 85.748062,231.384308 L85.7899689,232.466637 C85.6316534,232.522862 85.4570434,232.567373 85.2661336,232.600171 C85.0752238,232.632969 84.8773324,232.649368 84.6724536,232.649368 C84.0485045,232.649368 83.5712371,232.47601 83.2406372,232.129288 C82.9100373,231.782566 82.7447398,231.262491 82.7447398,230.569047 L82.7447398,226.956597 L81.4735662,226.956597 L81.4735662,225.874268 L82.7447398,225.874268 L82.7447398,223.962621 L84.0438513,223.962621 L84.0438513,225.874268 L85.8039378,225.874268 L85.8039378,226.956597 Z M98.491727,228.615232 C98.4824143,228.352847 98.4381797,228.106866 98.359022,227.87728 C98.2798643,227.647694 98.1634576,227.448566 98.0097985,227.27989 C97.8561394,227.111215 97.6652324,226.977682 97.4370719,226.879288 C97.2089114,226.780894 96.9411761,226.731697 96.6338579,226.731697 C96.3544777,226.731697 96.0913986,226.780894 95.8446127,226.879288 C95.5978269,226.977682 95.3836386,227.111215 95.2020415,227.27989 C95.0204443,227.448566 94.8714438,227.647694 94.7550354,227.87728 C94.6386269,228.106866 94.5711111,228.352847 94.5524857,228.615232 L98.491727,228.615232 Z M99.8187763,229.149368 L99.8187763,229.374268 C99.8187763,229.449235 99.81412,229.5242 99.8048074,229.599167 L94.5524857,229.599167 C94.5617984,229.880293 94.624658,230.145016 94.7410664,230.393344 C94.8574748,230.641672 95.0134598,230.857199 95.2090259,231.03993 C95.4045921,231.222662 95.630421,231.365566 95.8865195,231.468645 C96.1426181,231.571725 96.4150097,231.623264 96.7037026,231.623264 C97.1507109,231.623264 97.5371811,231.524871 97.8631246,231.328083 C98.1890682,231.131295 98.4451629,230.892341 98.6314164,230.611216 L99.5533664,231.356195 C99.1994848,231.824739 98.7827489,232.169113 98.3031463,232.389328 C97.8235436,232.609543 97.290401,232.719649 96.7037026,232.719649 C96.2008182,232.719649 95.7351915,232.635313 95.3068085,232.466637 C94.8784255,232.297962 94.5105804,232.061351 94.2032622,231.756798 C93.895944,231.452245 93.6538181,231.084444 93.4768773,230.653384 C93.2999365,230.222325 93.2114674,229.744418 93.2114674,229.219649 C93.2114674,228.704252 93.2976084,228.228688 93.4698928,227.792942 C93.6421773,227.357197 93.881975,226.984711 94.1892933,226.675473 C94.4966115,226.366234 94.8598003,226.124938 95.2788706,225.951577 C95.6979409,225.778216 96.1495988,225.691537 96.6338579,225.691537 C97.1181169,225.691537 97.5581341,225.771188 97.9539227,225.930493 C98.3497114,226.089797 98.6849626,226.31938 98.9596865,226.619248 C99.2344103,226.919115 99.4462705,227.282231 99.5952733,227.708605 C99.744276,228.134979 99.8187763,228.615229 99.8187763,229.149368 Z M104.33274,225.874268 C104.351365,226.042943 104.365334,226.2327 104.374646,226.443545 C104.383959,226.654389 104.388615,226.83009 104.388615,226.970653 L104.430522,226.970653 C104.514336,226.792607 104.628415,226.626277 104.772761,226.471657 C104.917108,226.317038 105.082405,226.181163 105.268659,226.064027 C105.454912,225.946891 105.659788,225.855526 105.883292,225.78993 C106.106796,225.724334 106.33961,225.691537 106.581739,225.691537 C107.010122,225.691537 107.377967,225.76416 107.685285,225.909408 C107.992604,226.054657 108.248698,226.249099 108.453577,226.492742 C108.658456,226.736384 108.809785,227.022191 108.907568,227.350171 C109.005351,227.678152 109.054242,228.029554 109.054242,228.404388 L109.054242,232.536918 L107.741161,232.536918 L107.741161,228.840131 C107.741161,228.568376 107.720208,228.310681 107.678301,228.067039 C107.636394,227.823396 107.559566,227.60787 107.447813,227.420452 C107.336061,227.233035 107.182405,227.083104 106.986838,226.970653 C106.791272,226.858203 106.539834,226.801979 106.232516,226.801979 C105.711006,226.801979 105.284957,227.001106 104.954358,227.399368 C104.623758,227.79763 104.45846,228.329418 104.45846,228.99475 L104.45846,232.536918 L103.14538,232.536918 L103.14538,227.308003 C103.14538,227.129956 103.140723,226.900374 103.131411,226.619248 C103.122098,226.338122 103.108129,226.089798 103.089504,225.874268 L104.33274,225.874268 Z M118.052235,231.482701 C117.800793,231.885649 117.458557,232.19254 117.025518,232.403384 C116.592478,232.614229 116.138492,232.719649 115.663546,232.719649 C115.151349,232.719649 114.690379,232.628285 114.280621,232.445553 C113.870863,232.262821 113.521643,232.012154 113.23295,231.693545 C112.944257,231.374936 112.720757,231.000107 112.562441,230.569047 C112.404126,230.137987 112.324969,229.678822 112.324969,229.191537 C112.324969,228.704252 112.404126,228.247429 112.562441,227.821055 C112.720757,227.394681 112.946586,227.022194 113.239935,226.703585 C113.533284,226.384976 113.884832,226.136652 114.29459,225.958605 C114.704348,225.780559 115.156005,225.691537 115.649577,225.691537 C116.189712,225.691537 116.659995,225.806328 117.06044,226.035914 C117.460885,226.2655 117.777511,226.54428 118.010328,226.87226 L118.038266,226.87226 L118.038266,221.910412 L119.351346,221.910412 L119.351346,232.536918 L118.080173,232.536918 L118.080173,231.482701 L118.052235,231.482701 Z M113.693925,229.191537 C113.693925,229.500775 113.740488,229.800638 113.833615,230.091135 C113.926742,230.381632 114.06643,230.639327 114.252683,230.864228 C114.438937,231.089128 114.667094,231.269515 114.937161,231.405392 C115.207229,231.54127 115.523855,231.609208 115.887049,231.609208 C116.222305,231.609208 116.527291,231.543612 116.802015,231.41242 C117.076739,231.281228 117.31188,231.105527 117.507446,230.885312 C117.703012,230.665097 117.854341,230.409744 117.961437,230.119248 C118.068533,229.828751 118.12208,229.524202 118.12208,229.205593 C118.12208,228.886984 118.068533,228.582435 117.961437,228.291938 C117.854341,228.001442 117.703012,227.743747 117.507446,227.518846 C117.31188,227.293945 117.076739,227.115902 116.802015,226.98471 C116.527291,226.853517 116.222305,226.787922 115.887049,226.787922 C115.523855,226.787922 115.207229,226.853517 114.937161,226.98471 C114.667094,227.115902 114.438937,227.293945 114.252683,227.518846 C114.06643,227.743747 113.926742,228.001442 113.833615,228.291938 C113.740488,228.582435 113.693925,228.882298 113.693925,229.191537 Z M133.408092,231.482701 C133.156649,231.885649 132.814414,232.19254 132.381375,232.403384 C131.948335,232.614229 131.494349,232.719649 131.019403,232.719649 C130.507206,232.719649 130.046235,232.628285 129.636478,232.445553 C129.22672,232.262821 128.8775,232.012154 128.588807,231.693545 C128.300114,231.374936 128.076613,231.000107 127.918298,230.569047 C127.759983,230.137987 127.680826,229.678822 127.680826,229.191537 C127.680826,228.704252 127.759983,228.247429 127.918298,227.821055 C128.076613,227.394681 128.302442,227.022194 128.595792,226.703585 C128.889141,226.384976 129.240689,226.136652 129.650447,225.958605 C130.060204,225.780559 130.511862,225.691537 131.005434,225.691537 C131.545569,225.691537 132.015852,225.806328 132.416297,226.035914 C132.816742,226.2655 133.133368,226.54428 133.366185,226.87226 L133.394123,226.87226 L133.394123,221.910412 L134.707203,221.910412 L134.707203,232.536918 L133.43603,232.536918 L133.43603,231.482701 L133.408092,231.482701 Z M129.049782,229.191537 C129.049782,229.500775 129.096345,229.800638 129.189472,230.091135 C129.282598,230.381632 129.422286,230.639327 129.60854,230.864228 C129.794793,231.089128 130.02295,231.269515 130.293018,231.405392 C130.563085,231.54127 130.879712,231.609208 131.242906,231.609208 C131.578162,231.609208 131.883148,231.543612 132.157872,231.41242 C132.432595,231.281228 132.667737,231.105527 132.863303,230.885312 C133.058869,230.665097 133.210198,230.409744 133.317294,230.119248 C133.424389,229.828751 133.477936,229.524202 133.477936,229.205593 C133.477936,228.886984 133.424389,228.582435 133.317294,228.291938 C133.210198,228.001442 133.058869,227.743747 132.863303,227.518846 C132.667737,227.293945 132.432595,227.115902 132.157872,226.98471 C131.883148,226.853517 131.578162,226.787922 131.242906,226.787922 C130.879712,226.787922 130.563085,226.853517 130.293018,226.98471 C130.02295,227.115902 129.794793,227.293945 129.60854,227.518846 C129.422286,227.743747 129.282598,228.001442 129.189472,228.291938 C129.096345,228.582435 129.049782,228.882298 129.049782,229.191537 Z M143.342004,228.615232 C143.332691,228.352847 143.288457,228.106866 143.209299,227.87728 C143.130141,227.647694 143.013735,227.448566 142.860076,227.27989 C142.706416,227.111215 142.515509,226.977682 142.287349,226.879288 C142.059188,226.780894 141.791453,226.731697 141.484135,226.731697 C141.204755,226.731697 140.941676,226.780894 140.69489,226.879288 C140.448104,226.977682 140.233916,227.111215 140.052318,227.27989 C139.870721,227.448566 139.721721,227.647694 139.605312,227.87728 C139.488904,228.106866 139.421388,228.352847 139.402763,228.615232 L143.342004,228.615232 Z M144.669053,229.149368 L144.669053,229.374268 C144.669053,229.449235 144.664397,229.5242 144.655084,229.599167 L139.402763,229.599167 C139.412075,229.880293 139.474935,230.145016 139.591343,230.393344 C139.707752,230.641672 139.863737,230.857199 140.059303,231.03993 C140.254869,231.222662 140.480698,231.365566 140.736797,231.468645 C140.992895,231.571725 141.265287,231.623264 141.55398,231.623264 C142.000988,231.623264 142.387458,231.524871 142.713402,231.328083 C143.039345,231.131295 143.29544,230.892341 143.481693,230.611216 L144.403643,231.356195 C144.049762,231.824739 143.633026,232.169113 143.153423,232.389328 C142.673821,232.609543 142.140678,232.719649 141.55398,232.719649 C141.051095,232.719649 140.585469,232.635313 140.157086,232.466637 C139.728703,232.297962 139.360857,232.061351 139.053539,231.756798 C138.746221,231.452245 138.504095,231.084444 138.327154,230.653384 C138.150214,230.222325 138.061744,229.744418 138.061744,229.219649 C138.061744,228.704252 138.147885,228.228688 138.32017,227.792942 C138.492454,227.357197 138.732252,226.984711 139.03957,226.675473 C139.346889,226.366234 139.710077,226.124938 140.129148,225.951577 C140.548218,225.778216 140.999876,225.691537 141.484135,225.691537 C141.968394,225.691537 142.408411,225.771188 142.8042,225.930493 C143.199988,226.089797 143.53524,226.31938 143.809964,226.619248 C144.084687,226.919115 144.296548,227.282231 144.44555,227.708605 C144.594553,228.134979 144.669053,228.615229 144.669053,229.149368 Z M151.110731,232.536918 L149.685899,232.536918 L146.989893,225.874268 L148.442663,225.874268 L150.384346,231.11724 L150.412283,231.11724 L152.367935,225.874268 L153.764829,225.874268 L151.110731,232.536918 Z M161.379897,228.615232 C161.370585,228.352847 161.32635,228.106866 161.247192,227.87728 C161.168035,227.647694 161.051628,227.448566 160.897969,227.27989 C160.74431,227.111215 160.553403,226.977682 160.325242,226.879288 C160.097082,226.780894 159.829347,226.731697 159.522028,226.731697 C159.242648,226.731697 158.979569,226.780894 158.732783,226.879288 C158.485997,226.977682 158.271809,227.111215 158.090212,227.27989 C157.908615,227.448566 157.759614,227.647694 157.643206,227.87728 C157.526797,228.106866 157.459282,228.352847 157.440656,228.615232 L161.379897,228.615232 Z M162.706947,229.149368 L162.706947,229.374268 C162.706947,229.449235 162.70229,229.5242 162.692978,229.599167 L157.440656,229.599167 C157.449969,229.880293 157.512828,230.145016 157.629237,230.393344 C157.745645,230.641672 157.90163,230.857199 158.097196,231.03993 C158.292763,231.222662 158.518591,231.365566 158.77469,231.468645 C159.030789,231.571725 159.30318,231.623264 159.591873,231.623264 C160.038881,231.623264 160.425351,231.524871 160.751295,231.328083 C161.077239,231.131295 161.333333,230.892341 161.519587,230.611216 L162.441537,231.356195 C162.087655,231.824739 161.670919,232.169113 161.191317,232.389328 C160.711714,232.609543 160.178571,232.719649 159.591873,232.719649 C159.088989,232.719649 158.623362,232.635313 158.194979,232.466637 C157.766596,232.297962 157.398751,232.061351 157.091433,231.756798 C156.784114,231.452245 156.541989,231.084444 156.365048,230.653384 C156.188107,230.222325 156.099638,229.744418 156.099638,229.219649 C156.099638,228.704252 156.185779,228.228688 156.358063,227.792942 C156.530348,227.357197 156.770145,226.984711 157.077464,226.675473 C157.384782,226.366234 157.747971,226.124938 158.167041,225.951577 C158.586111,225.778216 159.037769,225.691537 159.522028,225.691537 C160.006287,225.691537 160.446305,225.771188 160.842093,225.930493 C161.237882,226.089797 161.573133,226.31938 161.847857,226.619248 C162.122581,226.919115 162.334441,227.282231 162.483444,227.708605 C162.632446,228.134979 162.706947,228.615229 162.706947,229.149368 Z M167.374568,232.536918 L166.061488,232.536918 L166.061488,221.910412 L167.374568,221.910412 L167.374568,232.536918 Z M177.867238,229.191537 C177.867238,229.706934 177.776441,230.180156 177.594844,230.611216 C177.413247,231.042275 177.161808,231.414761 176.840521,231.728685 C176.519234,232.042609 176.139748,232.286248 175.702053,232.459609 C175.264357,232.63297 174.794074,232.719649 174.29119,232.719649 C173.788305,232.719649 173.318022,232.63297 172.880327,232.459609 C172.442631,232.286248 172.065473,232.042609 171.748842,231.728685 C171.432212,231.414761 171.183101,231.042275 171.001504,230.611216 C170.819907,230.180156 170.72911,229.706934 170.72911,229.191537 C170.72911,228.676139 170.819907,228.205261 171.001504,227.778886 C171.183101,227.352512 171.432212,226.984711 171.748842,226.675473 C172.065473,226.366234 172.442631,226.124938 172.880327,225.951577 C173.318022,225.778216 173.788305,225.691537 174.29119,225.691537 C174.794074,225.691537 175.264357,225.778216 175.702053,225.951577 C176.139748,226.124938 176.519234,226.366234 176.840521,226.675473 C177.161808,226.984711 177.413247,227.352512 177.594844,227.778886 C177.776441,228.205261 177.867238,228.676139 177.867238,229.191537 Z M176.498282,229.191537 C176.498282,228.872927 176.449391,228.568379 176.351608,228.277882 C176.253825,227.987385 176.111809,227.732033 175.925556,227.511818 C175.739302,227.291603 175.508817,227.115902 175.234093,226.98471 C174.959369,226.853517 174.645071,226.787922 174.29119,226.787922 C173.937308,226.787922 173.62301,226.853517 173.348286,226.98471 C173.073562,227.115902 172.843077,227.291603 172.656824,227.511818 C172.47057,227.732033 172.328554,227.987385 172.230771,228.277882 C172.132988,228.568379 172.084097,228.872927 172.084097,229.191537 C172.084097,229.510146 172.132988,229.814695 172.230771,230.105191 C172.328554,230.395688 172.47057,230.653383 172.656824,230.878284 C172.843077,231.103185 173.073562,231.281228 173.348286,231.41242 C173.62301,231.543612 173.937308,231.609208 174.29119,231.609208 C174.645071,231.609208 174.959369,231.543612 175.234093,231.41242 C175.508817,231.281228 175.739302,231.103185 175.925556,230.878284 C176.111809,230.653383 176.253825,230.395688 176.351608,230.105191 C176.449391,229.814695 176.498282,229.510146 176.498282,229.191537 Z M182.492953,235.910412 L181.179873,235.910412 L181.179873,225.874268 L182.465015,225.874268 L182.465015,226.914428 L182.506922,226.914428 C182.721114,226.558336 183.035412,226.2655 183.449826,226.035914 C183.86424,225.806328 184.346163,225.691537 184.895611,225.691537 C185.389183,225.691537 185.838513,225.780559 186.243614,225.958605 C186.648715,226.136652 186.997935,226.384976 187.291284,226.703585 C187.584634,227.022194 187.810463,227.394681 187.968778,227.821055 C188.127093,228.247429 188.20625,228.704252 188.20625,229.191537 C188.20625,229.678822 188.127093,230.137987 187.968778,230.569047 C187.810463,231.000107 187.586962,231.374936 187.298269,231.693545 C187.009576,232.012154 186.660356,232.262821 186.250598,232.445553 C185.840841,232.628285 185.37987,232.719649 184.867673,232.719649 C184.392727,232.719649 183.945725,232.616571 183.526655,232.410412 C183.107585,232.204253 182.77699,231.913761 182.53486,231.538926 L182.492953,231.538926 L182.492953,235.910412 Z M186.851263,229.191537 C186.851263,228.882298 186.8047,228.582435 186.711573,228.291938 C186.618447,228.001442 186.478759,227.743747 186.292505,227.518846 C186.106252,227.293945 185.875766,227.115902 185.601043,226.98471 C185.326319,226.853517 185.007364,226.787922 184.64417,226.787922 C184.308914,226.787922 184.003928,226.853517 183.729205,226.98471 C183.454481,227.115902 183.219339,227.293945 183.023773,227.518846 C182.828207,227.743747 182.676878,228.001442 182.569782,228.291938 C182.462687,228.582435 182.40914,228.886984 182.40914,229.205593 C182.40914,229.524202 182.462687,229.828751 182.569782,230.119248 C182.676878,230.409744 182.828207,230.665097 183.023773,230.885312 C183.219339,231.105527 183.454481,231.281228 183.729205,231.41242 C184.003928,231.543612 184.308914,231.609208 184.64417,231.609208 C185.007364,231.609208 185.326319,231.54127 185.601043,231.405392 C185.875766,231.269515 186.106252,231.089128 186.292505,230.864228 C186.478759,230.639327 186.618447,230.381632 186.711573,230.091135 C186.8047,229.800638 186.851263,229.500775 186.851263,229.191537 Z M196.380076,228.615232 C196.370763,228.352847 196.326529,228.106866 196.247371,227.87728 C196.168213,227.647694 196.051806,227.448566 195.898147,227.27989 C195.744488,227.111215 195.553581,226.977682 195.325421,226.879288 C195.09726,226.780894 194.829525,226.731697 194.522207,226.731697 C194.242826,226.731697 193.979747,226.780894 193.732962,226.879288 C193.486176,226.977682 193.271987,227.111215 193.09039,227.27989 C192.908793,227.448566 192.759793,227.647694 192.643384,227.87728 C192.526976,228.106866 192.45946,228.352847 192.440835,228.615232 L196.380076,228.615232 Z M197.707125,229.149368 L197.707125,229.374268 C197.707125,229.449235 197.702469,229.5242 197.693156,229.599167 L192.440835,229.599167 C192.450147,229.880293 192.513007,230.145016 192.629415,230.393344 C192.745824,230.641672 192.901809,230.857199 193.097375,231.03993 C193.292941,231.222662 193.51877,231.365566 193.774868,231.468645 C194.030967,231.571725 194.303358,231.623264 194.592051,231.623264 C195.03906,231.623264 195.42553,231.524871 195.751473,231.328083 C196.077417,231.131295 196.333512,230.892341 196.519765,230.611216 L197.441715,231.356195 C197.087834,231.824739 196.671098,232.169113 196.191495,232.389328 C195.711892,232.609543 195.17875,232.719649 194.592051,232.719649 C194.089167,232.719649 193.62354,232.635313 193.195157,232.466637 C192.766774,232.297962 192.398929,232.061351 192.091611,231.756798 C191.784293,231.452245 191.542167,231.084444 191.365226,230.653384 C191.188285,230.222325 191.099816,229.744418 191.099816,229.219649 C191.099816,228.704252 191.185957,228.228688 191.358242,227.792942 C191.530526,227.357197 191.770324,226.984711 192.077642,226.675473 C192.38496,226.366234 192.748149,226.124938 193.167219,225.951577 C193.58629,225.778216 194.037948,225.691537 194.522207,225.691537 C195.006466,225.691537 195.446483,225.771188 195.842272,225.930493 C196.23806,226.089797 196.573311,226.31938 196.848035,226.619248 C197.122759,226.919115 197.334619,227.282231 197.483622,227.708605 C197.632625,228.134979 197.707125,228.615229 197.707125,229.149368 Z M201.033729,227.308003 C201.033729,227.129956 201.029072,226.900374 201.01976,226.619248 C201.010447,226.338122 200.996478,226.089798 200.977853,225.874268 L202.221088,225.874268 C202.239714,226.042943 202.253683,226.237386 202.262995,226.457601 C202.272308,226.677816 202.276964,226.858203 202.276964,226.998766 L202.318871,226.998766 C202.505125,226.605189 202.777516,226.288928 203.136054,226.049971 C203.494592,225.811014 203.897359,225.691537 204.344367,225.691537 C204.549246,225.691537 204.721528,225.710278 204.861218,225.747762 L204.805342,226.970653 C204.619089,226.923799 204.41887,226.900372 204.204678,226.900372 C203.888047,226.900372 203.613327,226.958939 203.380511,227.076075 C203.147694,227.193211 202.954459,227.35017 202.8008,227.546959 C202.64714,227.743747 202.533062,227.970987 202.45856,228.228685 C202.384059,228.486384 202.346809,228.755792 202.346809,229.036918 L202.346809,232.536918 L201.033729,232.536918 L201.033729,227.308003 Z M215.300008,229.669448 L212.059214,229.669448 L212.059214,228.54495 L215.300008,228.54495 L215.300008,229.669448 Z" id="--Front-end-develope"></path>
                        <path d="M11.2695843,204.784692 L11.3281776,204.784692 L17.4511788,188.69867 L21.962864,188.69867 L21.962864,209.634154 L19.062495,209.634154 L19.062495,192.128778 L19.0039016,192.128778 L12.1191873,209.634154 L10.273498,209.634154 L3.41808033,192.128778 L3.35948702,192.128778 L3.35948702,209.634154 L0.547007985,209.634154 L0.547007985,188.69867 L5.0586931,188.69867 L11.2695843,204.784692 Z M28.3746465,209.634154 L25.1520143,209.634154 L34.1460879,188.69867 L36.782787,188.69867 L45.6889706,209.634154 L42.407745,209.634154 L40.2983858,204.488993 L30.4547091,204.488993 L28.3746465,209.634154 Z M31.4800921,201.916412 L39.2437061,201.916412 L35.3765474,192.099208 L31.4800921,201.916412 Z M59.190544,192.572326 C58.7803888,192.000639 58.2237579,191.532454 57.5206346,191.167756 C56.8175113,190.803059 56.0265095,190.620713 55.1476054,190.620713 C54.6788566,190.620713 54.205232,190.684781 53.7267176,190.812918 C53.2482031,190.941055 52.8136404,191.148042 52.4230164,191.433885 C52.0323923,191.719729 51.715015,192.074564 51.470875,192.498402 C51.226735,192.922239 51.1046668,193.42985 51.1046668,194.021251 C51.1046668,194.592938 51.2169695,195.07098 51.4415784,195.455391 C51.6661872,195.839801 51.9689163,196.165067 52.3497747,196.431197 C52.7306332,196.697328 53.1798441,196.924028 53.6974209,197.111305 C54.2149978,197.298582 54.766746,197.490784 55.352682,197.687918 C56.0558053,197.904765 56.7686835,198.151178 57.4913379,198.427165 C58.2139924,198.703152 58.8682779,199.067844 59.4542139,199.521251 C60.04015,199.974658 60.5186573,200.541409 60.8897501,201.22152 C61.260843,201.901631 61.4463866,202.764077 61.4463866,203.808885 C61.4463866,204.89312 61.2461948,205.834419 60.8458051,206.63281 C60.4454155,207.431201 59.9131982,208.091589 59.2491373,208.613993 C58.5850765,209.136397 57.8184883,209.52573 56.9493498,209.782004 C56.0802113,210.038277 55.1866722,210.166412 54.2687057,210.166412 C52.9601152,210.166412 51.6954888,209.910142 50.4747887,209.397595 C49.2540886,208.885048 48.243364,208.126095 47.4425847,207.120713 L49.6984273,205.19867 C50.1867073,205.928065 50.8409928,206.519457 51.6613033,206.972864 C52.4816138,207.426271 53.3702701,207.652971 54.327299,207.652971 C54.8155791,207.652971 55.3038518,207.583976 55.7921319,207.445982 C56.2804119,207.307989 56.7247401,207.091145 57.1251297,206.795445 C57.5255194,206.499744 57.8526621,206.130124 58.1065677,205.686574 C58.3604734,205.243023 58.4874243,204.705842 58.4874243,204.075014 C58.4874243,203.444187 58.3555906,202.916862 58.0919194,202.493025 C57.8282482,202.069188 57.4718091,201.709425 57.0225914,201.413724 C56.5733738,201.118024 56.050922,200.866682 55.4552203,200.659692 C54.8595187,200.452702 54.2296468,200.240786 53.565586,200.023939 C52.9015251,199.826806 52.2472396,199.585321 51.60271,199.299477 C50.9581803,199.013633 50.3820185,198.648941 49.8742072,198.205391 C49.366396,197.76184 48.9562469,197.214803 48.6437477,196.564262 C48.3312484,195.913721 48.1750011,195.105485 48.1750011,194.139531 C48.1750011,193.094723 48.3849584,192.197778 48.8048793,191.44867 C49.2248001,190.699563 49.7716656,190.078601 50.445492,189.585767 C51.1193185,189.092933 51.881024,188.73317 52.7306313,188.506466 C53.5802385,188.279762 54.4347158,188.166412 55.2940887,188.166412 C56.5050232,188.166412 57.637816,188.383256 58.6925009,188.81695 C59.7471858,189.250644 60.5967803,189.832179 61.24131,190.561574 L59.190544,192.572326 Z M66.9206761,209.634154 L63.6980439,209.634154 L72.6921175,188.69867 L75.3288166,188.69867 L84.2350002,209.634154 L80.9537747,209.634154 L78.8444154,204.488993 L69.0007388,204.488993 L66.9206761,209.634154 Z M70.0261217,201.916412 L77.7897357,201.916412 L73.9225771,192.099208 L70.0261217,201.916412 Z M93.7522283,209.634154 L90.8225627,209.634154 L90.8225627,200.585767 L83.0589487,188.69867 L86.6331408,188.69867 L92.3752855,198.161036 L98.1467268,188.69867 L101.515842,188.69867 L93.7522283,200.585767 L93.7522283,209.634154 Z M112.380717,210.166412 C111.013533,210.166412 109.822147,209.934784 108.806525,209.47152 C107.790902,209.008256 106.951073,208.392223 106.287012,207.623402 C105.622951,206.854581 105.129796,205.972421 104.807531,204.976896 C104.485266,203.981372 104.324136,202.951364 104.324136,201.886842 L104.324136,188.69867 L107.224505,188.69867 L107.224505,201.709423 C107.224505,202.419104 107.312394,203.123846 107.488175,203.82367 C107.663956,204.523495 107.952037,205.149384 108.352426,205.701359 C108.752816,206.253333 109.280151,206.696877 109.934446,207.032004 C110.588741,207.367131 111.404157,207.534692 112.380717,207.534692 C113.337746,207.534692 114.148278,207.367131 114.812339,207.032004 C115.4764,206.696877 116.008617,206.253333 116.409007,205.701359 C116.809397,205.149384 117.097478,204.523495 117.273258,203.82367 C117.449039,203.123846 117.536928,202.419104 117.536928,201.709423 L117.536928,188.69867 L120.437297,188.69867 L120.437297,201.886842 C120.437297,202.951364 120.276167,203.981372 119.953902,204.976896 C119.631638,205.972421 119.138482,206.854581 118.474421,207.623402 C117.81036,208.392223 116.970531,209.008256 115.954909,209.47152 C114.939286,209.934784 113.747901,210.166412 112.380717,210.166412 Z M128.753363,197.924477 L128.811956,197.924477 L138.069699,188.69867 L142.083341,188.69867 L132.005291,198.279316 L142.698571,209.634154 L138.538446,209.634154 L128.811956,198.811574 L128.753363,198.811574 L128.753363,209.634154 L125.852994,209.634154 L125.852994,188.69867 L128.753363,188.69867 L128.753363,197.924477 Z M148.583014,209.634154 L145.682645,209.634154 L145.682645,188.69867 L148.583014,188.69867 L148.583014,209.634154 Z M172.304935,192.572326 C171.89478,192.000639 171.338149,191.532454 170.635026,191.167756 C169.931902,190.803059 169.140901,190.620713 168.261997,190.620713 C167.793248,190.620713 167.319623,190.684781 166.841109,190.812918 C166.362594,190.941055 165.928032,191.148042 165.537407,191.433885 C165.146783,191.719729 164.829406,192.074564 164.585266,192.498402 C164.341126,192.922239 164.219058,193.42985 164.219058,194.021251 C164.219058,194.592938 164.331361,195.07098 164.55597,195.455391 C164.780578,195.839801 165.083307,196.165067 165.464166,196.431197 C165.845024,196.697328 166.294235,196.924028 166.811812,197.111305 C167.329389,197.298582 167.881137,197.490784 168.467073,197.687918 C169.170196,197.904765 169.883075,198.151178 170.605729,198.427165 C171.328384,198.703152 171.982669,199.067844 172.568605,199.521251 C173.154541,199.974658 173.633048,200.541409 174.004141,201.22152 C174.375234,201.901631 174.560778,202.764077 174.560778,203.808885 C174.560778,204.89312 174.360586,205.834419 173.960196,206.63281 C173.559807,207.431201 173.027589,208.091589 172.363528,208.613993 C171.699468,209.136397 170.932879,209.52573 170.063741,209.782004 C169.194602,210.038277 168.301063,210.166412 167.383097,210.166412 C166.074506,210.166412 164.80988,209.910142 163.58918,209.397595 C162.36848,208.885048 161.357755,208.126095 160.556976,207.120713 L162.812818,205.19867 C163.301098,205.928065 163.955384,206.519457 164.775694,206.972864 C165.596005,207.426271 166.484661,207.652971 167.44169,207.652971 C167.92997,207.652971 168.418243,207.583976 168.906523,207.445982 C169.394803,207.307989 169.839131,207.091145 170.239521,206.795445 C170.639911,206.499744 170.967053,206.130124 171.220959,205.686574 C171.474865,205.243023 171.601815,204.705842 171.601815,204.075014 C171.601815,203.444187 171.469982,202.916862 171.206311,202.493025 C170.942639,202.069188 170.5862,201.709425 170.136983,201.413724 C169.687765,201.118024 169.165313,200.866682 168.569611,200.659692 C167.97391,200.452702 167.344038,200.240786 166.679977,200.023939 C166.015916,199.826806 165.361631,199.585321 164.717101,199.299477 C164.072571,199.013633 163.49641,198.648941 162.988598,198.205391 C162.480787,197.76184 162.070638,197.214803 161.758139,196.564262 C161.44564,195.913721 161.289392,195.105485 161.289392,194.139531 C161.289392,193.094723 161.49935,192.197778 161.91927,191.44867 C162.339191,190.699563 162.886057,190.078601 163.559883,189.585767 C164.23371,189.092933 164.995415,188.73317 165.845022,188.506466 C166.69463,188.279762 167.549107,188.166412 168.40848,188.166412 C169.619414,188.166412 170.752207,188.383256 171.806892,188.81695 C172.861577,189.250644 173.711171,189.832179 174.355701,190.561574 L172.304935,192.572326 Z M187.095562,210.166412 C185.728377,210.166412 184.536992,209.934784 183.521369,209.47152 C182.505747,209.008256 181.665918,208.392223 181.001857,207.623402 C180.337796,206.854581 179.844641,205.972421 179.522376,204.976896 C179.200111,203.981372 179.038981,202.951364 179.038981,201.886842 L179.038981,188.69867 L181.93935,188.69867 L181.93935,201.709423 C181.93935,202.419104 182.027239,203.123846 182.20302,203.82367 C182.378801,204.523495 182.666882,205.149384 183.067271,205.701359 C183.467661,206.253333 183.994995,206.696877 184.649291,207.032004 C185.303586,207.367131 186.119001,207.534692 187.095562,207.534692 C188.05259,207.534692 188.863123,207.367131 189.527184,207.032004 C190.191245,206.696877 190.723462,206.253333 191.123852,205.701359 C191.524241,205.149384 191.812322,204.523495 191.988103,203.82367 C192.163884,203.123846 192.251773,202.419104 192.251773,201.709423 L192.251773,188.69867 L195.152142,188.69867 L195.152142,201.886842 C195.152142,202.951364 194.991012,203.981372 194.668747,204.976896 C194.346482,205.972421 193.853327,206.854581 193.189266,207.623402 C192.525205,208.392223 191.685376,209.008256 190.669754,209.47152 C189.654131,209.934784 188.462746,210.166412 187.095562,210.166412 Z M214.249377,191.271251 L202.530714,207.032004 L214.425157,207.032004 L214.425157,209.634154 L199.015116,209.634154 L199.015116,207.061574 L210.704482,191.271251 L199.249489,191.271251 L199.249489,188.69867 L214.249377,188.69867 L214.249377,191.271251 Z M226.344711,210.166412 C224.977527,210.166412 223.786141,209.934784 222.770519,209.47152 C221.754896,209.008256 220.915067,208.392223 220.251006,207.623402 C219.586945,206.854581 219.09379,205.972421 218.771525,204.976896 C218.44926,203.981372 218.28813,202.951364 218.28813,201.886842 L218.28813,188.69867 L221.188499,188.69867 L221.188499,201.709423 C221.188499,202.419104 221.276388,203.123846 221.452169,203.82367 C221.62795,204.523495 221.916031,205.149384 222.316421,205.701359 C222.71681,206.253333 223.244145,206.696877 223.89844,207.032004 C224.552735,207.367131 225.368151,207.534692 226.344711,207.534692 C227.30174,207.534692 228.112273,207.367131 228.776333,207.032004 C229.440394,206.696877 229.972612,206.253333 230.373001,205.701359 C230.773391,205.149384 231.061472,204.523495 231.237253,203.82367 C231.413033,203.123846 231.500922,202.419104 231.500922,201.709423 L231.500922,188.69867 L234.401291,188.69867 L234.401291,201.886842 C234.401291,202.951364 234.240161,203.981372 233.917897,204.976896 C233.595632,205.972421 233.102476,206.854581 232.438415,207.623402 C231.774355,208.392223 230.934526,209.008256 229.918903,209.47152 C228.90328,209.934784 227.711895,210.166412 226.344711,210.166412 Z M242.717357,197.924477 L242.77595,197.924477 L252.033694,188.69867 L256.047335,188.69867 L245.969286,198.279316 L256.662565,209.634154 L252.50244,209.634154 L242.77595,198.811574 L242.717357,198.811574 L242.717357,209.634154 L239.816988,209.634154 L239.816988,188.69867 L242.717357,188.69867 L242.717357,197.924477 Z M262.547008,209.634154 L259.646639,209.634154 L259.646639,188.69867 L262.547008,188.69867 L262.547008,209.634154 Z" id="Masayuki-Suzuki"></path>
                    </g>
                </g>
            </g>
        </g>
    </g>
</svg>