<?xml version="1.0" encoding="UTF-8"?>
<svg width="262px" height="254px" viewBox="0 0 262 254" version="1.1" xmlns="http://www.w3.org/2000/svg" xmlns:xlink="http://www.w3.org/1999/xlink">
    <title>mainLogo</title>
      <g transform="translate(0.500992, 0.505588)" fill="#3C3C3C">
          <path d="M83.0329999,241.796 L84.4759999,241.796 L87.1799999,249.284 L87.2059999,249.284 L90.0139999,241.796 L91.3789999,241.796 L87.7519999,251 L86.5819999,251 L83.0329999,241.796 Z M92.3459999,245.592 C92.6753349,245.288665 93.0566644,245.061167 93.4899999,244.9095 C93.9233354,244.757833 94.3566644,244.682 94.7899999,244.682 C95.2406688,244.682 95.6284983,244.738333 95.9534999,244.851 C96.2785015,244.963667 96.5449988,245.115332 96.7529999,245.306 C96.9610009,245.496668 97.1148327,245.715499 97.2144999,245.9625 C97.314167,246.209501 97.3639999,246.467332 97.3639999,246.736 L97.3639999,249.882 C97.3639999,250.098668 97.3683332,250.297999 97.3769999,250.48 C97.3856666,250.662001 97.3986665,250.835333 97.4159999,251 L96.3759999,251 C96.3499998,250.687998 96.3369999,250.376002 96.3369999,250.064 L96.3109999,250.064 C96.0509986,250.462669 95.743335,250.744333 95.3879999,250.909 C95.0326648,251.073667 94.6210022,251.156 94.1529999,251.156 C93.8669985,251.156 93.5940012,251.117 93.3339999,251.039 C93.0739986,250.961 92.8465009,250.844001 92.6514999,250.688 C92.4564989,250.531999 92.3026671,250.339168 92.1899999,250.1095 C92.0773327,249.879832 92.0209999,249.613335 92.0209999,249.31 C92.0209999,248.911331 92.1098323,248.577668 92.2874999,248.309 C92.4651674,248.040332 92.7078317,247.821501 93.0154999,247.6525 C93.3231681,247.483499 93.6828312,247.362167 94.0944999,247.2885 C94.5061686,247.214833 94.9459975,247.178 95.4139999,247.178 L96.2719999,247.178 L96.2719999,246.918 C96.2719999,246.761999 96.2416669,246.606001 96.1809999,246.45 C96.1203329,246.293999 96.0293338,246.153167 95.9079999,246.0275 C95.7866659,245.901833 95.6350008,245.802167 95.4529999,245.7285 C95.270999,245.654833 95.0543345,245.618 94.8029999,245.618 C94.5776654,245.618 94.3805007,245.639666 94.2114999,245.683 C94.042499,245.726334 93.8886672,245.7805 93.7499999,245.8455 C93.6113325,245.9105 93.4856671,245.986333 93.3729999,246.073 C93.2603327,246.159667 93.1520004,246.242 93.0479999,246.32 L92.3459999,245.592 Z M95.6479999,248.036 C95.3706652,248.036 95.0868347,248.051167 94.7964999,248.0815 C94.5061651,248.111833 94.2418344,248.170333 94.0034999,248.257 C93.7651654,248.343667 93.5701673,248.464999 93.4184999,248.621 C93.2668325,248.777001 93.1909999,248.976332 93.1909999,249.219 C93.1909999,249.574335 93.3101654,249.829999 93.5484999,249.986 C93.7868344,250.142001 94.1096645,250.22 94.5169999,250.22 C94.8376682,250.22 95.1106654,250.165834 95.3359999,250.0575 C95.5613343,249.949166 95.7433325,249.808334 95.8819999,249.635 C96.0206672,249.461666 96.1203329,249.268834 96.1809999,249.0565 C96.2416669,248.844166 96.2719999,248.634001 96.2719999,248.426 L96.2719999,248.036 L95.6479999,248.036 Z M99.9169999,244.838 L101.087,244.838 L101.087,245.787 L101.113,245.787 C101.260334,245.457665 101.515998,245.191168 101.88,244.9875 C102.244002,244.783832 102.664331,244.682 103.141,244.682 C103.435668,244.682 103.719499,244.7275 103.9925,244.8185 C104.265501,244.9095 104.503832,245.050332 104.7075,245.241 C104.911168,245.431668 105.073666,245.676499 105.195,245.9755 C105.316334,246.274501 105.377,246.627665 105.377,247.035 L105.377,251 L104.207,251 L104.207,247.36 C104.207,247.073999 104.168,246.829168 104.09,246.6255 C104.012,246.421832 103.908001,246.257167 103.778,246.1315 C103.647999,246.005833 103.498501,245.914834 103.3295,245.8585 C103.160499,245.802166 102.985001,245.774 102.803,245.774 C102.560332,245.774 102.335001,245.813 102.127,245.891 C101.918999,245.969 101.737001,246.092499 101.581,246.2615 C101.424999,246.430501 101.303667,246.644999 101.217,246.905 C101.130333,247.165001 101.087,247.472665 101.087,247.828 L101.087,251 L99.9169999,251 L99.9169999,244.838 Z M112.402,246.476 C112.185332,246.250666 111.957834,246.079501 111.7195,245.9625 C111.481165,245.845499 111.197335,245.787 110.868,245.787 C110.547332,245.787 110.267834,245.845499 110.0295,245.9625 C109.791165,246.079501 109.591834,246.239832 109.4315,246.4435 C109.271166,246.647168 109.149834,246.881165 109.0675,247.1455 C108.985166,247.409835 108.944,247.684999 108.944,247.971 C108.944,248.257001 108.991666,248.527832 109.087,248.7835 C109.182334,249.039168 109.316666,249.262332 109.49,249.453 C109.663334,249.643668 109.871332,249.793166 110.114,249.9015 C110.356668,250.009834 110.629665,250.064 110.933,250.064 C111.262335,250.064 111.543999,250.005501 111.778,249.8885 C112.012001,249.771499 112.228666,249.600334 112.428,249.375 L113.26,250.207 C112.956665,250.545002 112.603502,250.787666 112.2005,250.935 C111.797498,251.082334 111.370669,251.156 110.92,251.156 C110.443331,251.156 110.007835,251.078001 109.6135,250.922 C109.219165,250.765999 108.879001,250.547168 108.593,250.2655 C108.306998,249.983832 108.086001,249.645835 107.93,249.2515 C107.773999,248.857165 107.696,248.421669 107.696,247.945 C107.696,247.468331 107.773999,247.030669 107.93,246.632 C108.086001,246.233331 108.304832,245.891001 108.5865,245.605 C108.868168,245.318999 109.206165,245.095834 109.6005,244.9355 C109.994835,244.775166 110.434664,244.695 110.92,244.695 C111.370669,244.695 111.801831,244.775166 112.2135,244.9355 C112.625169,245.095834 112.982665,245.340665 113.286,245.67 L112.402,246.476 Z M116.06,247.919 C116.06,248.231002 116.107666,248.519165 116.203,248.7835 C116.298334,249.047835 116.432666,249.273166 116.606,249.4595 C116.779334,249.645834 116.991665,249.793166 117.243,249.9015 C117.494335,250.009834 117.775998,250.064 118.088,250.064 C118.400002,250.064 118.681665,250.009834 118.933,249.9015 C119.184335,249.793166 119.396666,249.645834 119.57,249.4595 C119.743334,249.273166 119.877666,249.047835 119.973,248.7835 C120.068334,248.519165 120.116,248.231002 120.116,247.919 C120.116,247.606998 120.068334,247.318835 119.973,247.0545 C119.877666,246.790165 119.743334,246.564834 119.57,246.3785 C119.396666,246.192166 119.184335,246.044834 118.933,245.9365 C118.681665,245.828166 118.400002,245.774 118.088,245.774 C117.775998,245.774 117.494335,245.828166 117.243,245.9365 C116.991665,246.044834 116.779334,246.192166 116.606,246.3785 C116.432666,246.564834 116.298334,246.790165 116.203,247.0545 C116.107666,247.318835 116.06,247.606998 116.06,247.919 Z M114.812,247.919 C114.812,247.468331 114.896499,247.048002 115.0655,246.658 C115.234501,246.267998 115.466332,245.925668 115.761,245.631 C116.055668,245.336332 116.402331,245.104501 116.801,244.9355 C117.199669,244.766499 117.628664,244.682 118.088,244.682 C118.547336,244.682 118.976331,244.766499 119.375,244.9355 C119.773669,245.104501 120.120332,245.336332 120.415,245.631 C120.709668,245.925668 120.941499,246.267998 121.1105,246.658 C121.279501,247.048002 121.364,247.468331 121.364,247.919 C121.364,248.369669 121.279501,248.792165 121.1105,249.1865 C120.941499,249.580835 120.709668,249.923165 120.415,250.2135 C120.120332,250.503835 119.773669,250.733499 119.375,250.9025 C118.976331,251.071501 118.547336,251.156 118.088,251.156 C117.628664,251.156 117.199669,251.071501 116.801,250.9025 C116.402331,250.733499 116.055668,250.503835 115.761,250.2135 C115.466332,249.923165 115.234501,249.580835 115.0655,249.1865 C114.896499,248.792165 114.812,248.369669 114.812,247.919 Z M129.143,251 L127.973,251 L127.973,250.051 L127.947,250.051 C127.799666,250.380335 127.544002,250.646832 127.18,250.8505 C126.815998,251.054168 126.395669,251.156 125.919,251.156 C125.615665,251.156 125.329668,251.1105 125.061,251.0195 C124.792332,250.9285 124.556168,250.787668 124.3525,250.597 C124.148832,250.406332 123.986334,250.161501 123.865,249.8625 C123.743666,249.563499 123.683,249.210335 123.683,248.803 L123.683,244.838 L124.853,244.838 L124.853,248.478 C124.853,248.764001 124.892,249.008832 124.97,249.2125 C125.048,249.416168 125.151999,249.580833 125.282,249.7065 C125.412001,249.832167 125.561499,249.923166 125.7305,249.9795 C125.899501,250.035834 126.074999,250.064 126.257,250.064 C126.499668,250.064 126.724999,250.025 126.933,249.947 C127.141001,249.869 127.322999,249.745501 127.479,249.5765 C127.635001,249.407499 127.756333,249.193001 127.843,248.933 C127.929667,248.672999 127.973,248.365335 127.973,248.01 L127.973,244.838 L129.143,244.838 L129.143,251 Z M131.02,244.838 L132.372,244.838 L134.218,249.557 L135.986,244.838 L137.234,244.838 L134.816,251 L133.529,251 L131.02,244.838 Z M139.995,248.348 C139.995,248.616668 140.053499,248.861499 140.1705,249.0825 C140.287501,249.303501 140.441332,249.491999 140.632,249.648 C140.822668,249.804001 141.043665,249.925333 141.295,250.012 C141.546335,250.098667 141.806332,250.142 142.075,250.142 C142.439002,250.142 142.755332,250.057501 143.024,249.8885 C143.292668,249.719499 143.539666,249.496335 143.765,249.219 L144.649,249.895 C143.998997,250.735671 143.089006,251.156 141.919,251.156 C141.433664,251.156 140.993835,251.073667 140.5995,250.909 C140.205165,250.744333 139.871501,250.516835 139.5985,250.2265 C139.325499,249.936165 139.115334,249.593835 138.968,249.1995 C138.820666,248.805165 138.747,248.378336 138.747,247.919 C138.747,247.459664 138.827166,247.032835 138.9875,246.6385 C139.147834,246.244165 139.368832,245.901835 139.6505,245.6115 C139.932168,245.321165 140.267998,245.093667 140.658,244.929 C141.048002,244.764333 141.472664,244.682 141.932,244.682 C142.478003,244.682 142.939498,244.777332 143.3165,244.968 C143.693502,245.158668 144.003332,245.407832 144.246,245.7155 C144.488668,246.023168 144.664166,246.369831 144.7725,246.7555 C144.880834,247.141169 144.935,247.533331 144.935,247.932 L144.935,248.348 L139.995,248.348 Z M143.687,247.412 C143.678333,247.151999 143.637167,246.913668 143.5635,246.697 C143.489833,246.480332 143.379334,246.291834 143.232,246.1315 C143.084666,245.971166 142.900501,245.8455 142.6795,245.7545 C142.458499,245.6635 142.200668,245.618 141.906,245.618 C141.619999,245.618 141.357835,245.672166 141.1195,245.7805 C140.881165,245.888834 140.679668,246.029666 140.515,246.203 C140.350333,246.376334 140.2225,246.569166 140.1315,246.7815 C140.0405,246.993834 139.995,247.203999 139.995,247.412 L143.687,247.412 Z M147.189,244.838 L148.359,244.838 L148.359,245.787 L148.385,245.787 C148.463,245.622333 148.566999,245.472834 148.697,245.3385 C148.827001,245.204166 148.972166,245.089334 149.1325,244.994 C149.292834,244.898666 149.468332,244.822834 149.659,244.7665 C149.849668,244.710166 150.040332,244.682 150.231,244.682 C150.421668,244.682 150.594999,244.708 150.751,244.76 L150.699,246.021 C150.603666,245.995 150.508334,245.973333 150.413,245.956 C150.317666,245.938667 150.222334,245.93 150.127,245.93 C149.554997,245.93 149.117335,246.090332 148.814,246.411 C148.510665,246.731668 148.359,247.229997 148.359,247.906 L148.359,251 L147.189,251 L147.189,244.838 Z M152.459,252.716 L151.393,252.716 L152.29,249.518 L153.551,249.518 L152.459,252.716 Z M160.88,241.796 L164.078,241.796 C164.476669,241.796 164.847165,241.843666 165.1895,241.939 C165.531835,242.034334 165.826499,242.175166 166.0735,242.3615 C166.320501,242.547834 166.515499,242.786165 166.6585,243.0765 C166.801501,243.366835 166.873,243.706998 166.873,244.097 C166.873,244.625669 166.725668,245.056832 166.431,245.3905 C166.136332,245.724168 165.755002,245.968999 165.287,246.125 L165.287,246.151 C165.564335,246.168333 165.824332,246.239833 166.067,246.3655 C166.309668,246.491167 166.519833,246.655832 166.6975,246.8595 C166.875168,247.063168 167.016,247.299332 167.12,247.568 C167.224001,247.836668 167.276,248.126998 167.276,248.439 C167.276,248.855002 167.191501,249.221165 167.0225,249.5375 C166.853499,249.853835 166.621668,250.120332 166.327,250.337 C166.032332,250.553668 165.690002,250.718333 165.3,250.831 C164.909998,250.943667 164.489669,251 164.039,251 L160.88,251 L160.88,241.796 Z M162.128,245.618 L163.831,245.618 C164.065001,245.618 164.285999,245.594167 164.494,245.5465 C164.702001,245.498833 164.883999,245.418667 165.04,245.306 C165.196001,245.193333 165.3195,245.050334 165.4105,244.877 C165.501501,244.703666 165.547,244.491335 165.547,244.24 C165.547,243.875998 165.430001,243.559668 165.196,243.291 C164.961999,243.022332 164.593669,242.888 164.091,242.888 L162.128,242.888 L162.128,245.618 Z M162.128,249.908 L163.961,249.908 C164.151668,249.908 164.361832,249.8885 164.5915,249.8495 C164.821168,249.8105 165.035666,249.732501 165.235,249.6155 C165.434334,249.498499 165.603333,249.340334 165.742,249.141 C165.880667,248.941666 165.95,248.677335 165.95,248.348 C165.95,247.801997 165.772335,247.392501 165.417,247.1195 C165.061665,246.846499 164.58067,246.71 163.974,246.71 L162.128,246.71 L162.128,249.908 Z M176.329,243.785 C176.068999,243.446998 175.739669,243.187001 175.341,243.005 C174.942331,242.822999 174.530669,242.732 174.106,242.732 C173.585998,242.732 173.115836,242.829499 172.6955,243.0245 C172.275165,243.219501 171.915502,243.485998 171.6165,243.824 C171.317499,244.162002 171.085668,244.558498 170.921,245.0135 C170.756333,245.468502 170.674,245.955997 170.674,246.476 C170.674,246.961336 170.751999,247.420665 170.908,247.854 C171.064001,248.287336 171.289332,248.668665 171.584,248.998 C171.878668,249.327335 172.238331,249.587332 172.663,249.778 C173.087669,249.968668 173.568664,250.064 174.106,250.064 C174.634669,250.064 175.098331,249.955668 175.497,249.739 C175.895669,249.522332 176.233665,249.219002 176.511,248.829 L177.564,249.622 C177.494666,249.717334 177.373334,249.853832 177.2,250.0315 C177.026666,250.209168 176.797002,250.386832 176.511,250.5645 C176.224999,250.742168 175.880502,250.898166 175.4775,251.0325 C175.074498,251.166834 174.608669,251.234 174.08,251.234 C173.351997,251.234 172.695503,251.095335 172.1105,250.818 C171.525497,250.540665 171.027169,250.176669 170.6155,249.726 C170.203831,249.275331 169.889668,248.76617 169.673,248.1985 C169.456332,247.63083 169.348,247.05667 169.348,246.476 C169.348,245.76533 169.464999,245.108836 169.699,244.5065 C169.933001,243.904164 170.260165,243.384169 170.6805,242.9465 C171.100836,242.508831 171.605664,242.168668 172.195,241.926 C172.784336,241.683332 173.43433,241.562 174.145,241.562 C174.75167,241.562 175.347497,241.678999 175.9325,241.913 C176.517503,242.147001 176.996332,242.506664 177.369,242.992 L176.329,243.785 Z" id="Vancouver,-BC"></path>
          <polygon id="Shape" points="59.9314555 138.600575 76.4129167 75.1180541 89.3626361 119.358586 115.34898 29.1055836 148.224997 164 168.049233 85.0075787 181.474545 134.740724 197.669381 57.0145428 253 49.3177474 194.726262 53.9358246 179.422049 117.819227 167.060953 71.4586336 147.04775 146.29737 112.862106 0 89.3626361 110.122432 74.9924585 61.8763659 56.8163113 134.740724 8 144.420272"></polygon>
          <path d="M44.2407942,229.759036 L41,229.759036 L41,228.634538 L44.2407942,228.634538 L44.2407942,229.759036 Z M53.9252612,232.626506 L52.542336,232.626506 L52.542336,222.674699 L58.7166078,222.674699 L58.7166078,223.89759 L53.9252612,223.89759 L53.9252612,226.98996 L58.4092911,226.98996 L58.4092911,228.184739 L53.9252612,228.184739 L53.9252612,232.626506 Z M61.3168263,227.39759 C61.3168263,227.219544 61.31217,226.989961 61.3028573,226.708835 C61.2935447,226.427709 61.2795759,226.179385 61.2609505,225.963855 L62.5041862,225.963855 C62.5228116,226.132531 62.5367804,226.326973 62.546093,226.547189 C62.5554057,226.767404 62.560062,226.94779 62.560062,227.088353 L62.6019688,227.088353 C62.7882223,226.694777 63.0606139,226.378515 63.4191518,226.139558 C63.7776898,225.900601 64.1804569,225.781124 64.6274652,225.781124 C64.832344,225.781124 65.0046259,225.799866 65.144316,225.837349 L65.0884402,227.060241 C64.9021868,227.013387 64.7019673,226.98996 64.4877758,226.98996 C64.1711449,226.98996 63.8964251,227.048527 63.6636083,227.165663 C63.4307914,227.282798 63.2375564,227.439758 63.0838973,227.636546 C62.9302381,227.833334 62.8161596,228.060574 62.7416582,228.318273 C62.6671568,228.575972 62.6299067,228.84538 62.6299067,229.126506 L62.6299067,232.626506 L61.3168263,232.626506 L61.3168263,227.39759 Z M74.3239055,229.281124 C74.3239055,229.796522 74.2331083,230.269743 74.0515112,230.700803 C73.869914,231.131863 73.6184756,231.504349 73.2971884,231.818273 C72.9759011,232.132197 72.5964154,232.375836 72.1587197,232.549197 C71.7210241,232.722558 71.2507411,232.809237 70.7478567,232.809237 C70.2449723,232.809237 69.7746894,232.722558 69.3369937,232.549197 C68.8992981,232.375836 68.5221404,232.132197 68.2055095,231.818273 C67.8888786,231.504349 67.6397684,231.131863 67.4581712,230.700803 C67.2765741,230.269743 67.1857769,229.796522 67.1857769,229.281124 C67.1857769,228.765727 67.2765741,228.294848 67.4581712,227.868474 C67.6397684,227.4421 67.8888786,227.074299 68.2055095,226.76506 C68.5221404,226.455822 68.8992981,226.214526 69.3369937,226.041165 C69.7746894,225.867804 70.2449723,225.781124 70.7478567,225.781124 C71.2507411,225.781124 71.7210241,225.867804 72.1587197,226.041165 C72.5964154,226.214526 72.9759011,226.455822 73.2971884,226.76506 C73.6184756,227.074299 73.869914,227.4421 74.0515112,227.868474 C74.2331083,228.294848 74.3239055,228.765727 74.3239055,229.281124 Z M72.9549493,229.281124 C72.9549493,228.962515 72.9060585,228.657967 72.8082755,228.36747 C72.7104924,228.076973 72.5684762,227.821621 72.3822228,227.601406 C72.1959693,227.38119 71.9654841,227.205489 71.6907602,227.074297 C71.4160363,226.943105 71.1017383,226.87751 70.7478567,226.87751 C70.3939751,226.87751 70.0796771,226.943105 69.8049532,227.074297 C69.5302294,227.205489 69.2997441,227.38119 69.1134907,227.601406 C68.9272372,227.821621 68.7852211,228.076973 68.687438,228.36747 C68.5896549,228.657967 68.5407641,228.962515 68.5407641,229.281124 C68.5407641,229.599734 68.5896549,229.904282 68.687438,230.194779 C68.7852211,230.485276 68.9272372,230.742971 69.1134907,230.967871 C69.2997441,231.192772 69.5302294,231.370816 69.8049532,231.502008 C70.0796771,231.6332 70.3939751,231.698795 70.7478567,231.698795 C71.1017383,231.698795 71.4160363,231.6332 71.6907602,231.502008 C71.9654841,231.370816 72.1959693,231.192772 72.3822228,230.967871 C72.5684762,230.742971 72.7104924,230.485276 72.8082755,230.194779 C72.9060585,229.904282 72.9549493,229.599734 72.9549493,229.281124 Z M78.8238999,225.963855 C78.8425253,226.132531 78.8564941,226.322288 78.8658068,226.533133 C78.8751194,226.743977 78.8797757,226.919678 78.8797757,227.060241 L78.9216825,227.060241 C79.0054966,226.882195 79.1195751,226.715864 79.2639216,226.561245 C79.408268,226.406626 79.5735655,226.27075 79.759819,226.153614 C79.9460724,226.036479 80.1509482,225.945114 80.3744523,225.879518 C80.5979565,225.813922 80.8307698,225.781124 81.0728994,225.781124 C81.5012823,225.781124 81.8691274,225.853748 82.1764457,225.998996 C82.4837639,226.144244 82.7398586,226.338687 82.9447374,226.582329 C83.1496162,226.825972 83.3009449,227.111779 83.398728,227.439759 C83.496511,227.767739 83.5454018,228.119141 83.5454018,228.493976 L83.5454018,232.626506 L82.2323214,232.626506 L82.2323214,228.929719 C82.2323214,228.657964 82.2113682,228.400269 82.1694612,228.156627 C82.1275542,227.912984 82.0507258,227.697457 81.9389737,227.51004 C81.8272216,227.322623 81.6735648,227.172691 81.4779986,227.060241 C81.2824325,226.947791 81.0309941,226.891566 80.7236758,226.891566 C80.2021661,226.891566 79.7761177,227.090694 79.4455178,227.488956 C79.1149179,227.887218 78.9496204,228.419006 78.9496204,229.084337 L78.9496204,232.626506 L77.63654,232.626506 L77.63654,227.39759 C77.63654,227.219544 77.6318837,226.989961 77.622571,226.708835 C77.6132584,226.427709 77.5992896,226.179385 77.5806642,225.963855 L78.8238999,225.963855 Z M90.5039298,227.046185 L88.7438433,227.046185 L88.7438433,230.518072 C88.7438433,230.921019 88.8183436,231.209169 88.9673463,231.38253 C89.1163491,231.555891 89.3538187,231.64257 89.6797623,231.64257 C89.8008271,231.64257 89.9312025,231.628514 90.0708927,231.600402 C90.2105828,231.572289 90.336302,231.530121 90.448054,231.473896 L90.4899609,232.556225 C90.3316454,232.61245 90.1570354,232.656961 89.9661256,232.689759 C89.7752158,232.722557 89.5773244,232.738956 89.3724456,232.738956 C88.7484965,232.738956 88.2712291,232.565597 87.9406292,232.218876 C87.6100293,231.872154 87.4447318,231.352078 87.4447318,230.658635 L87.4447318,227.046185 L86.1735582,227.046185 L86.1735582,225.963855 L87.4447318,225.963855 L87.4447318,224.052209 L88.7438433,224.052209 L88.7438433,225.963855 L90.5039298,225.963855 L90.5039298,227.046185 Z M103.191719,228.704819 C103.182406,228.442435 103.138172,228.196454 103.059014,227.966867 C102.979856,227.737281 102.86345,227.538153 102.709791,227.369478 C102.556131,227.200802 102.365224,227.06727 102.137064,226.968876 C101.908903,226.870481 101.641168,226.821285 101.33385,226.821285 C101.05447,226.821285 100.791391,226.870481 100.544605,226.968876 C100.297819,227.06727 100.083631,227.200802 99.9020335,227.369478 C99.7204363,227.538153 99.5714358,227.737281 99.4550274,227.966867 C99.3386189,228.196454 99.2711031,228.442435 99.2524777,228.704819 L103.191719,228.704819 Z M104.518768,229.238956 L104.518768,229.463855 C104.518768,229.538822 104.514112,229.613788 104.504799,229.688755 L99.2524777,229.688755 C99.2617904,229.969881 99.32465,230.234604 99.4410584,230.482932 C99.5574668,230.73126 99.7134518,230.946786 99.9090179,231.129518 C100.104584,231.31225 100.330413,231.455153 100.586512,231.558233 C100.84261,231.661312 101.115002,231.712851 101.403695,231.712851 C101.850703,231.712851 102.237173,231.614459 102.563117,231.417671 C102.88906,231.220883 103.145155,230.981929 103.331408,230.700803 L104.253358,231.445783 C103.899477,231.914326 103.482741,232.2587 103.003138,232.478916 C102.523536,232.699131 101.990393,232.809237 101.403695,232.809237 C100.90081,232.809237 100.435184,232.7249 100.006801,232.556225 C99.5784175,232.387549 99.2105724,232.150939 98.9032542,231.846386 C98.595936,231.541832 98.3538101,231.174032 98.1768693,230.742972 C97.9999285,230.311912 97.9114594,229.834005 97.9114594,229.309237 C97.9114594,228.793839 97.9976004,228.318275 98.1698848,227.88253 C98.3421693,227.446785 98.581967,227.074299 98.8892853,226.76506 C99.1966035,226.455822 99.5597923,226.214526 99.9788626,226.041165 C100.397933,225.867804 100.849591,225.781124 101.33385,225.781124 C101.818109,225.781124 102.258126,225.860776 102.653915,226.02008 C103.049703,226.179385 103.384955,226.408968 103.659678,226.708835 C103.934402,227.008703 104.146262,227.371818 104.295265,227.798193 C104.444268,228.224567 104.518768,228.704817 104.518768,229.238956 Z M109.032732,225.963855 C109.051357,226.132531 109.065326,226.322288 109.074639,226.533133 C109.083951,226.743977 109.088607,226.919678 109.088607,227.060241 L109.130514,227.060241 C109.214328,226.882195 109.328407,226.715864 109.472753,226.561245 C109.6171,226.406626 109.782397,226.27075 109.968651,226.153614 C110.154904,226.036479 110.35978,225.945114 110.583284,225.879518 C110.806788,225.813922 111.039602,225.781124 111.281731,225.781124 C111.710114,225.781124 112.077959,225.853748 112.385277,225.998996 C112.692596,226.144244 112.94869,226.338687 113.153569,226.582329 C113.358448,226.825972 113.509777,227.111779 113.60756,227.439759 C113.705343,227.767739 113.754234,228.119141 113.754234,228.493976 L113.754234,232.626506 L112.441153,232.626506 L112.441153,228.929719 C112.441153,228.657964 112.4202,228.400269 112.378293,228.156627 C112.336386,227.912984 112.259558,227.697457 112.147805,227.51004 C112.036053,227.322623 111.882397,227.172691 111.68683,227.060241 C111.491264,226.947791 111.239826,226.891566 110.932508,226.891566 C110.410998,226.891566 109.984949,227.090694 109.65435,227.488956 C109.32375,227.887218 109.158452,228.419006 109.158452,229.084337 L109.158452,232.626506 L107.845372,232.626506 L107.845372,227.39759 C107.845372,227.219544 107.840715,226.989961 107.831403,226.708835 C107.82209,226.427709 107.808121,226.179385 107.789496,225.963855 L109.032732,225.963855 Z M122.752227,231.572289 C122.500785,231.975236 122.158549,232.282127 121.72551,232.492972 C121.29247,232.703816 120.838484,232.809237 120.363538,232.809237 C119.851341,232.809237 119.390371,232.717872 118.980613,232.535141 C118.570855,232.352409 118.221635,232.101742 117.932942,231.783133 C117.64425,231.464523 117.420749,231.089694 117.262433,230.658635 C117.104118,230.227575 117.024961,229.768409 117.024961,229.281124 C117.024961,228.79384 117.104118,228.337017 117.262433,227.910643 C117.420749,227.484268 117.646578,227.111782 117.939927,226.793173 C118.233276,226.474563 118.584824,226.226239 118.994582,226.048193 C119.40434,225.870146 119.855997,225.781124 120.349569,225.781124 C120.889704,225.781124 121.359987,225.895916 121.760432,226.125502 C122.160877,226.355088 122.477503,226.633867 122.71032,226.961847 L122.738258,226.961847 L122.738258,222 L124.051338,222 L124.051338,232.626506 L122.780165,232.626506 L122.780165,231.572289 L122.752227,231.572289 Z M118.393917,229.281124 C118.393917,229.590363 118.44048,229.890226 118.533607,230.180723 C118.626734,230.47122 118.766422,230.728915 118.952675,230.953815 C119.138929,231.178716 119.367086,231.359102 119.637153,231.49498 C119.907221,231.630857 120.223847,231.698795 120.587041,231.698795 C120.922297,231.698795 121.227283,231.6332 121.502007,231.502008 C121.776731,231.370816 122.011872,231.195115 122.207438,230.9749 C122.403004,230.754684 122.554333,230.499332 122.661429,230.208835 C122.768525,229.918339 122.822072,229.61379 122.822072,229.295181 C122.822072,228.976571 122.768525,228.672023 122.661429,228.381526 C122.554333,228.091029 122.403004,227.833334 122.207438,227.608434 C122.011872,227.383533 121.776731,227.205489 121.502007,227.074297 C121.227283,226.943105 120.922297,226.87751 120.587041,226.87751 C120.223847,226.87751 119.907221,226.943105 119.637153,227.074297 C119.367086,227.205489 119.138929,227.383533 118.952675,227.608434 C118.766422,227.833334 118.626734,228.091029 118.533607,228.381526 C118.44048,228.672023 118.393917,228.971886 118.393917,229.281124 Z M138.108084,231.572289 C137.856642,231.975236 137.514406,232.282127 137.081367,232.492972 C136.648327,232.703816 136.194341,232.809237 135.719395,232.809237 C135.207198,232.809237 134.746227,232.717872 134.33647,232.535141 C133.926712,232.352409 133.577492,232.101742 133.288799,231.783133 C133.000106,231.464523 132.776606,231.089694 132.61829,230.658635 C132.459975,230.227575 132.380818,229.768409 132.380818,229.281124 C132.380818,228.79384 132.459975,228.337017 132.61829,227.910643 C132.776606,227.484268 133.002434,227.111782 133.295784,226.793173 C133.589133,226.474563 133.940681,226.226239 134.350439,226.048193 C134.760196,225.870146 135.211854,225.781124 135.705426,225.781124 C136.245561,225.781124 136.715844,225.895916 137.116289,226.125502 C137.516734,226.355088 137.83336,226.633867 138.066177,226.961847 L138.094115,226.961847 L138.094115,222 L139.407195,222 L139.407195,232.626506 L138.136022,232.626506 L138.136022,231.572289 L138.108084,231.572289 Z M133.749774,229.281124 C133.749774,229.590363 133.796337,229.890226 133.889464,230.180723 C133.98259,230.47122 134.122278,230.728915 134.308532,230.953815 C134.494785,231.178716 134.722942,231.359102 134.99301,231.49498 C135.263077,231.630857 135.579704,231.698795 135.942898,231.698795 C136.278154,231.698795 136.58314,231.6332 136.857864,231.502008 C137.132587,231.370816 137.367729,231.195115 137.563295,230.9749 C137.758861,230.754684 137.91019,230.499332 138.017286,230.208835 C138.124381,229.918339 138.177928,229.61379 138.177928,229.295181 C138.177928,228.976571 138.124381,228.672023 138.017286,228.381526 C137.91019,228.091029 137.758861,227.833334 137.563295,227.608434 C137.367729,227.383533 137.132587,227.205489 136.857864,227.074297 C136.58314,226.943105 136.278154,226.87751 135.942898,226.87751 C135.579704,226.87751 135.263077,226.943105 134.99301,227.074297 C134.722942,227.205489 134.494785,227.383533 134.308532,227.608434 C134.122278,227.833334 133.98259,228.091029 133.889464,228.381526 C133.796337,228.672023 133.749774,228.971886 133.749774,229.281124 Z M148.041996,228.704819 C148.032683,228.442435 147.988449,228.196454 147.909291,227.966867 C147.830133,227.737281 147.713727,227.538153 147.560068,227.369478 C147.406408,227.200802 147.215501,227.06727 146.987341,226.968876 C146.75918,226.870481 146.491445,226.821285 146.184127,226.821285 C145.904747,226.821285 145.641668,226.870481 145.394882,226.968876 C145.148096,227.06727 144.933908,227.200802 144.752311,227.369478 C144.570713,227.538153 144.421713,227.737281 144.305304,227.966867 C144.188896,228.196454 144.12138,228.442435 144.102755,228.704819 L148.041996,228.704819 Z M149.369045,229.238956 L149.369045,229.463855 C149.369045,229.538822 149.364389,229.613788 149.355076,229.688755 L144.102755,229.688755 C144.112067,229.969881 144.174927,230.234604 144.291335,230.482932 C144.407744,230.73126 144.563729,230.946786 144.759295,231.129518 C144.954861,231.31225 145.18069,231.455153 145.436789,231.558233 C145.692887,231.661312 145.965279,231.712851 146.253972,231.712851 C146.70098,231.712851 147.08745,231.614459 147.413394,231.417671 C147.739337,231.220883 147.995432,230.981929 148.181685,230.700803 L149.103635,231.445783 C148.749754,231.914326 148.333018,232.2587 147.853415,232.478916 C147.373813,232.699131 146.84067,232.809237 146.253972,232.809237 C145.751087,232.809237 145.285461,232.7249 144.857078,232.556225 C144.428695,232.387549 144.060849,232.150939 143.753531,231.846386 C143.446213,231.541832 143.204087,231.174032 143.027146,230.742972 C142.850206,230.311912 142.761736,229.834005 142.761736,229.309237 C142.761736,228.793839 142.847877,228.318275 143.020162,227.88253 C143.192446,227.446785 143.432244,227.074299 143.739562,226.76506 C144.046881,226.455822 144.410069,226.214526 144.82914,226.041165 C145.24821,225.867804 145.699868,225.781124 146.184127,225.781124 C146.668386,225.781124 147.108403,225.860776 147.504192,226.02008 C147.89998,226.179385 148.235232,226.408968 148.509956,226.708835 C148.784679,227.008703 148.99654,227.371818 149.145542,227.798193 C149.294545,228.224567 149.369045,228.704817 149.369045,229.238956 Z M155.810723,232.626506 L154.385891,232.626506 L151.689885,225.963855 L153.142655,225.963855 L155.084338,231.206827 L155.112275,231.206827 L157.067927,225.963855 L158.464821,225.963855 L155.810723,232.626506 Z M166.079889,228.704819 C166.070577,228.442435 166.026342,228.196454 165.947184,227.966867 C165.868027,227.737281 165.75162,227.538153 165.597961,227.369478 C165.444302,227.200802 165.253395,227.06727 165.025234,226.968876 C164.797074,226.870481 164.529339,226.821285 164.22202,226.821285 C163.94264,226.821285 163.679561,226.870481 163.432775,226.968876 C163.185989,227.06727 162.971801,227.200802 162.790204,227.369478 C162.608607,227.538153 162.459606,227.737281 162.343198,227.966867 C162.226789,228.196454 162.159274,228.442435 162.140648,228.704819 L166.079889,228.704819 Z M167.406939,229.238956 L167.406939,229.463855 C167.406939,229.538822 167.402282,229.613788 167.39297,229.688755 L162.140648,229.688755 C162.149961,229.969881 162.21282,230.234604 162.329229,230.482932 C162.445637,230.73126 162.601622,230.946786 162.797188,231.129518 C162.992755,231.31225 163.218583,231.455153 163.474682,231.558233 C163.730781,231.661312 164.003172,231.712851 164.291865,231.712851 C164.738873,231.712851 165.125344,231.614459 165.451287,231.417671 C165.777231,231.220883 166.033325,230.981929 166.219579,230.700803 L167.141529,231.445783 C166.787647,231.914326 166.370911,232.2587 165.891309,232.478916 C165.411706,232.699131 164.878563,232.809237 164.291865,232.809237 C163.788981,232.809237 163.323354,232.7249 162.894971,232.556225 C162.466588,232.387549 162.098743,232.150939 161.791425,231.846386 C161.484106,231.541832 161.241981,231.174032 161.06504,230.742972 C160.888099,230.311912 160.79963,229.834005 160.79963,229.309237 C160.79963,228.793839 160.885771,228.318275 161.058055,227.88253 C161.23034,227.446785 161.470137,227.074299 161.777456,226.76506 C162.084774,226.455822 162.447963,226.214526 162.867033,226.041165 C163.286103,225.867804 163.737761,225.781124 164.22202,225.781124 C164.706279,225.781124 165.146297,225.860776 165.542085,226.02008 C165.937874,226.179385 166.273125,226.408968 166.547849,226.708835 C166.822573,227.008703 167.034433,227.371818 167.183436,227.798193 C167.332438,228.224567 167.406939,228.704817 167.406939,229.238956 Z M172.07456,232.626506 L170.76148,232.626506 L170.76148,222 L172.07456,222 L172.07456,232.626506 Z M182.56723,229.281124 C182.56723,229.796522 182.476433,230.269743 182.294836,230.700803 C182.113239,231.131863 181.861801,231.504349 181.540513,231.818273 C181.219226,232.132197 180.83974,232.375836 180.402045,232.549197 C179.964349,232.722558 179.494066,232.809237 178.991182,232.809237 C178.488297,232.809237 178.018014,232.722558 177.580319,232.549197 C177.142623,232.375836 176.765465,232.132197 176.448834,231.818273 C176.132204,231.504349 175.883093,231.131863 175.701496,230.700803 C175.519899,230.269743 175.429102,229.796522 175.429102,229.281124 C175.429102,228.765727 175.519899,228.294848 175.701496,227.868474 C175.883093,227.4421 176.132204,227.074299 176.448834,226.76506 C176.765465,226.455822 177.142623,226.214526 177.580319,226.041165 C178.018014,225.867804 178.488297,225.781124 178.991182,225.781124 C179.494066,225.781124 179.964349,225.867804 180.402045,226.041165 C180.83974,226.214526 181.219226,226.455822 181.540513,226.76506 C181.861801,227.074299 182.113239,227.4421 182.294836,227.868474 C182.476433,228.294848 182.56723,228.765727 182.56723,229.281124 Z M181.198274,229.281124 C181.198274,228.962515 181.149383,228.657967 181.0516,228.36747 C180.953817,228.076973 180.811801,227.821621 180.625548,227.601406 C180.439294,227.38119 180.208809,227.205489 179.934085,227.074297 C179.659361,226.943105 179.345063,226.87751 178.991182,226.87751 C178.6373,226.87751 178.323002,226.943105 178.048278,227.074297 C177.773554,227.205489 177.543069,227.38119 177.356816,227.601406 C177.170562,227.821621 177.028546,228.076973 176.930763,228.36747 C176.83298,228.657967 176.784089,228.962515 176.784089,229.281124 C176.784089,229.599734 176.83298,229.904282 176.930763,230.194779 C177.028546,230.485276 177.170562,230.742971 177.356816,230.967871 C177.543069,231.192772 177.773554,231.370816 178.048278,231.502008 C178.323002,231.6332 178.6373,231.698795 178.991182,231.698795 C179.345063,231.698795 179.659361,231.6332 179.934085,231.502008 C180.208809,231.370816 180.439294,231.192772 180.625548,230.967871 C180.811801,230.742971 180.953817,230.485276 181.0516,230.194779 C181.149383,229.904282 181.198274,229.599734 181.198274,229.281124 Z M187.192945,236 L185.879865,236 L185.879865,225.963855 L187.165007,225.963855 L187.165007,227.004016 L187.206914,227.004016 C187.421106,226.647923 187.735404,226.355088 188.149818,226.125502 C188.564232,225.895916 189.046155,225.781124 189.595603,225.781124 C190.089175,225.781124 190.538505,225.870146 190.943606,226.048193 C191.348707,226.226239 191.697927,226.474563 191.991276,226.793173 C192.284626,227.111782 192.510455,227.484268 192.66877,227.910643 C192.827085,228.337017 192.906242,228.79384 192.906242,229.281124 C192.906242,229.768409 192.827085,230.227575 192.66877,230.658635 C192.510455,231.089694 192.286954,231.464523 191.998261,231.783133 C191.709568,232.101742 191.360348,232.352409 190.95059,232.535141 C190.540833,232.717872 190.079862,232.809237 189.567665,232.809237 C189.092719,232.809237 188.645717,232.706159 188.226647,232.5 C187.807577,232.293841 187.476982,232.003349 187.234852,231.628514 L187.192945,231.628514 L187.192945,236 Z M191.551255,229.281124 C191.551255,228.971886 191.504692,228.672023 191.411565,228.381526 C191.318439,228.091029 191.178751,227.833334 190.992497,227.608434 C190.806244,227.383533 190.575758,227.205489 190.301035,227.074297 C190.026311,226.943105 189.707356,226.87751 189.344162,226.87751 C189.008906,226.87751 188.70392,226.943105 188.429197,227.074297 C188.154473,227.205489 187.919331,227.383533 187.723765,227.608434 C187.528199,227.833334 187.37687,228.091029 187.269774,228.381526 C187.162679,228.672023 187.109132,228.976571 187.109132,229.295181 C187.109132,229.61379 187.162679,229.918339 187.269774,230.208835 C187.37687,230.499332 187.528199,230.754684 187.723765,230.9749 C187.919331,231.195115 188.154473,231.370816 188.429197,231.502008 C188.70392,231.6332 189.008906,231.698795 189.344162,231.698795 C189.707356,231.698795 190.026311,231.630857 190.301035,231.49498 C190.575758,231.359102 190.806244,231.178716 190.992497,230.953815 C191.178751,230.728915 191.318439,230.47122 191.411565,230.180723 C191.504692,229.890226 191.551255,229.590363 191.551255,229.281124 Z M201.080068,228.704819 C201.070755,228.442435 201.026521,228.196454 200.947363,227.966867 C200.868205,227.737281 200.751798,227.538153 200.598139,227.369478 C200.44448,227.200802 200.253573,227.06727 200.025413,226.968876 C199.797252,226.870481 199.529517,226.821285 199.222199,226.821285 C198.942818,226.821285 198.679739,226.870481 198.432954,226.968876 C198.186168,227.06727 197.971979,227.200802 197.790382,227.369478 C197.608785,227.538153 197.459785,227.737281 197.343376,227.966867 C197.226968,228.196454 197.159452,228.442435 197.140827,228.704819 L201.080068,228.704819 Z M202.407117,229.238956 L202.407117,229.463855 C202.407117,229.538822 202.402461,229.613788 202.393148,229.688755 L197.140827,229.688755 C197.150139,229.969881 197.212999,230.234604 197.329407,230.482932 C197.445816,230.73126 197.601801,230.946786 197.797367,231.129518 C197.992933,231.31225 198.218762,231.455153 198.47486,231.558233 C198.730959,231.661312 199.003351,231.712851 199.292043,231.712851 C199.739052,231.712851 200.125522,231.614459 200.451465,231.417671 C200.777409,231.220883 201.033504,230.981929 201.219757,230.700803 L202.141707,231.445783 C201.787826,231.914326 201.37109,232.2587 200.891487,232.478916 C200.411884,232.699131 199.878742,232.809237 199.292043,232.809237 C198.789159,232.809237 198.323532,232.7249 197.895149,232.556225 C197.466766,232.387549 197.098921,232.150939 196.791603,231.846386 C196.484285,231.541832 196.242159,231.174032 196.065218,230.742972 C195.888277,230.311912 195.799808,229.834005 195.799808,229.309237 C195.799808,228.793839 195.885949,228.318275 196.058234,227.88253 C196.230518,227.446785 196.470316,227.074299 196.777634,226.76506 C197.084952,226.455822 197.448141,226.214526 197.867211,226.041165 C198.286282,225.867804 198.73794,225.781124 199.222199,225.781124 C199.706458,225.781124 200.146475,225.860776 200.542264,226.02008 C200.938052,226.179385 201.273303,226.408968 201.548027,226.708835 C201.822751,227.008703 202.034611,227.371818 202.183614,227.798193 C202.332617,228.224567 202.407117,228.704817 202.407117,229.238956 Z M205.733721,227.39759 C205.733721,227.219544 205.729064,226.989961 205.719752,226.708835 C205.710439,226.427709 205.69647,226.179385 205.677845,225.963855 L206.921081,225.963855 C206.939706,226.132531 206.953675,226.326973 206.962987,226.547189 C206.9723,226.767404 206.976956,226.94779 206.976956,227.088353 L207.018863,227.088353 C207.205117,226.694777 207.477508,226.378515 207.836046,226.139558 C208.194584,225.900601 208.597351,225.781124 209.044359,225.781124 C209.249238,225.781124 209.42152,225.799866 209.56121,225.837349 L209.505335,227.060241 C209.319081,227.013387 209.118862,226.98996 208.90467,226.98996 C208.588039,226.98996 208.313319,227.048527 208.080503,227.165663 C207.847686,227.282798 207.654451,227.439758 207.500792,227.636546 C207.347132,227.833334 207.233054,228.060574 207.158552,228.318273 C207.084051,228.575972 207.046801,228.84538 207.046801,229.126506 L207.046801,232.626506 L205.733721,232.626506 L205.733721,227.39759 Z M220,229.759036 L216.759206,229.759036 L216.759206,228.634538 L220,228.634538 L220,229.759036 Z" id="--Front-end-develope"></path>
                        <path d="M10.7225763,204.61828 L10.7811696,204.61828 L16.9041709,188.532258 L21.415856,188.532258 L21.415856,209.467742 L18.515487,209.467742 L18.515487,191.962366 L18.4568937,191.962366 L11.5721794,209.467742 L9.72648999,209.467742 L2.87107235,191.962366 L2.81247903,191.962366 L2.81247903,209.467742 L0,209.467742 L0,188.532258 L4.51168512,188.532258 L10.7225763,204.61828 Z M27.8276385,209.467742 L24.6050063,209.467742 L33.5990799,188.532258 L36.235779,188.532258 L45.1419626,209.467742 L41.860737,209.467742 L39.7513778,204.322581 L29.9077012,204.322581 L27.8276385,209.467742 Z M30.9330841,201.75 L38.6966981,201.75 L34.8295395,191.932796 L30.9330841,201.75 Z M58.643536,192.405914 C58.2333808,191.834227 57.6767499,191.366041 56.9736266,191.001344 C56.2705033,190.636647 55.4795015,190.454301 54.6005974,190.454301 C54.1318486,190.454301 53.658224,190.518369 53.1797096,190.646505 C52.7011951,190.774642 52.2666324,190.981629 51.8760084,191.267473 C51.4853843,191.553317 51.1680071,191.908152 50.923867,192.331989 C50.679727,192.755826 50.5576588,193.263438 50.5576588,193.854839 C50.5576588,194.426526 50.6699616,194.904568 50.8945704,195.288978 C51.1191792,195.673389 51.4219083,195.998655 51.8027667,196.264785 C52.1836252,196.530915 52.6328361,196.757616 53.1504129,196.944892 C53.6679898,197.132169 54.219738,197.324372 54.805674,197.521505 C55.5087973,197.738352 56.2216755,197.984766 56.94433,198.260753 C57.6669844,198.53674 58.3212699,198.901431 58.907206,199.354839 C59.493142,199.808246 59.9716493,200.374997 60.3427421,201.055108 C60.713835,201.735218 60.8993786,202.597665 60.8993786,203.642473 C60.8993786,204.726708 60.6991868,205.668007 60.2987971,206.466398 C59.8984075,207.264789 59.3661902,207.925177 58.7021294,208.447581 C58.0380685,208.969985 57.2714803,209.359318 56.4023418,209.615591 C55.5332033,209.871865 54.6396642,210 53.7216977,210 C52.4131072,210 51.1484808,209.74373 49.9277807,209.231183 C48.7070806,208.718635 47.696356,207.959682 46.8955767,206.954301 L49.1514193,205.032258 C49.6396994,205.761652 50.2939848,206.353044 51.1142953,206.806452 C51.9346058,207.259859 52.8232621,207.486559 53.780291,207.486559 C54.2685711,207.486559 54.7568438,207.417563 55.2451239,207.27957 C55.7334039,207.141576 56.1777321,206.924733 56.5781218,206.629032 C56.9785114,206.333332 57.3056541,205.963712 57.5595598,205.520161 C57.8134654,205.076611 57.9404163,204.53943 57.9404163,203.908602 C57.9404163,203.277775 57.8085827,202.75045 57.5449114,202.326613 C57.2812402,201.902776 56.9248011,201.543012 56.4755835,201.247312 C56.0263658,200.951611 55.503914,200.70027 54.9082123,200.49328 C54.3125107,200.286289 53.6826388,200.074374 53.018578,199.857527 C52.3545171,199.660393 51.7002317,199.418908 51.055702,199.133065 C50.4111723,198.847221 49.8350105,198.482529 49.3271992,198.038978 C48.819388,197.595428 48.4092389,197.04839 48.0967397,196.397849 C47.7842404,195.747309 47.6279932,194.939073 47.6279932,193.973118 C47.6279932,192.92831 47.8379504,192.031366 48.2578713,191.282258 C48.6777921,190.53315 49.2246576,189.912189 49.898484,189.419355 C50.5723105,188.926521 51.334016,188.566757 52.1836233,188.340054 C53.0332306,188.11335 53.8877078,188 54.7470807,188 C55.9580152,188 57.090808,188.216844 58.1454929,188.650538 C59.2001778,189.084232 60.0497723,189.665767 60.694302,190.395161 L58.643536,192.405914 Z M66.3736682,209.467742 L63.1510359,209.467742 L72.1451095,188.532258 L74.7818086,188.532258 L83.6879922,209.467742 L80.4067667,209.467742 L78.2974074,204.322581 L68.4537308,204.322581 L66.3736682,209.467742 Z M69.4791138,201.75 L77.2427278,201.75 L73.3755691,191.932796 L69.4791138,201.75 Z M93.2052204,209.467742 L90.2755547,209.467742 L90.2755547,200.419355 L82.5119407,188.532258 L86.0861328,188.532258 L91.8282775,197.994624 L97.5997189,188.532258 L100.968834,188.532258 L93.2052204,200.419355 L93.2052204,209.467742 Z M111.833709,210 C110.466525,210 109.275139,209.768371 108.259517,209.305108 C107.243894,208.841844 106.404065,208.22581 105.740004,207.456989 C105.075943,206.688168 104.582788,205.806009 104.260523,204.810484 C103.938258,203.814959 103.777128,202.784952 103.777128,201.72043 L103.777128,188.532258 L106.677497,188.532258 L106.677497,201.543011 C106.677497,202.252692 106.765386,202.957434 106.941167,203.657258 C107.116948,204.357082 107.405029,204.982972 107.805418,205.534946 C108.205808,206.08692 108.733143,206.530464 109.387438,206.865591 C110.041733,207.200719 110.857149,207.36828 111.833709,207.36828 C112.790738,207.36828 113.60127,207.200719 114.265331,206.865591 C114.929392,206.530464 115.461609,206.08692 115.861999,205.534946 C116.262389,204.982972 116.55047,204.357082 116.72625,203.657258 C116.902031,202.957434 116.98992,202.252692 116.98992,201.543011 L116.98992,188.532258 L119.890289,188.532258 L119.890289,201.72043 C119.890289,202.784952 119.729159,203.814959 119.406894,204.810484 C119.08463,205.806009 118.591474,206.688168 117.927413,207.456989 C117.263352,208.22581 116.423523,208.841844 115.407901,209.305108 C114.392278,209.768371 113.200893,210 111.833709,210 Z M128.206355,197.758065 L128.264948,197.758065 L137.522691,188.532258 L141.536333,188.532258 L131.458283,198.112903 L142.151563,209.467742 L137.991438,209.467742 L128.264948,198.645161 L128.206355,198.645161 L128.206355,209.467742 L125.305986,209.467742 L125.305986,188.532258 L128.206355,188.532258 L128.206355,197.758065 Z M148.036006,209.467742 L145.135637,209.467742 L145.135637,188.532258 L148.036006,188.532258 L148.036006,209.467742 Z M171.757927,192.405914 C171.347772,191.834227 170.791141,191.366041 170.088018,191.001344 C169.384894,190.636647 168.593893,190.454301 167.714989,190.454301 C167.24624,190.454301 166.772615,190.518369 166.294101,190.646505 C165.815586,190.774642 165.381024,190.981629 164.9904,191.267473 C164.599775,191.553317 164.282398,191.908152 164.038258,192.331989 C163.794118,192.755826 163.67205,193.263438 163.67205,193.854839 C163.67205,194.426526 163.784353,194.904568 164.008962,195.288978 C164.23357,195.673389 164.536299,195.998655 164.917158,196.264785 C165.298016,196.530915 165.747227,196.757616 166.264804,196.944892 C166.782381,197.132169 167.334129,197.324372 167.920065,197.521505 C168.623188,197.738352 169.336067,197.984766 170.058721,198.260753 C170.781376,198.53674 171.435661,198.901431 172.021597,199.354839 C172.607533,199.808246 173.08604,200.374997 173.457133,201.055108 C173.828226,201.735218 174.01377,202.597665 174.01377,203.642473 C174.01377,204.726708 173.813578,205.668007 173.413188,206.466398 C173.012799,207.264789 172.480581,207.925177 171.816521,208.447581 C171.15246,208.969985 170.385871,209.359318 169.516733,209.615591 C168.647594,209.871865 167.754055,210 166.836089,210 C165.527498,210 164.262872,209.74373 163.042172,209.231183 C161.821472,208.718635 160.810747,207.959682 160.009968,206.954301 L162.26581,205.032258 C162.754091,205.761652 163.408376,206.353044 164.228686,206.806452 C165.048997,207.259859 165.937653,207.486559 166.894682,207.486559 C167.382962,207.486559 167.871235,207.417563 168.359515,207.27957 C168.847795,207.141576 169.292123,206.924733 169.692513,206.629032 C170.092903,206.333332 170.420045,205.963712 170.673951,205.520161 C170.927857,205.076611 171.054807,204.53943 171.054807,203.908602 C171.054807,203.277775 170.922974,202.75045 170.659303,202.326613 C170.395631,201.902776 170.039192,201.543012 169.589975,201.247312 C169.140757,200.951611 168.618305,200.70027 168.022603,200.49328 C167.426902,200.286289 166.79703,200.074374 166.132969,199.857527 C165.468908,199.660393 164.814623,199.418908 164.170093,199.133065 C163.525563,198.847221 162.949402,198.482529 162.44159,198.038978 C161.933779,197.595428 161.52363,197.04839 161.211131,196.397849 C160.898632,195.747309 160.742384,194.939073 160.742384,193.973118 C160.742384,192.92831 160.952342,192.031366 161.372262,191.282258 C161.792183,190.53315 162.339049,189.912189 163.012875,189.419355 C163.686702,188.926521 164.448407,188.566757 165.298014,188.340054 C166.147622,188.11335 167.002099,188 167.861472,188 C169.072406,188 170.205199,188.216844 171.259884,188.650538 C172.314569,189.084232 173.164163,189.665767 173.808693,190.395161 L171.757927,192.405914 Z M186.548554,210 C185.181369,210 183.989984,209.768371 182.974361,209.305108 C181.958739,208.841844 181.11891,208.22581 180.454849,207.456989 C179.790788,206.688168 179.297633,205.806009 178.975368,204.810484 C178.653103,203.814959 178.491973,202.784952 178.491973,201.72043 L178.491973,188.532258 L181.392342,188.532258 L181.392342,201.543011 C181.392342,202.252692 181.480231,202.957434 181.656012,203.657258 C181.831793,204.357082 182.119874,204.982972 182.520263,205.534946 C182.920653,206.08692 183.447987,206.530464 184.102283,206.865591 C184.756578,207.200719 185.571993,207.36828 186.548554,207.36828 C187.505582,207.36828 188.316115,207.200719 188.980176,206.865591 C189.644237,206.530464 190.176454,206.08692 190.576844,205.534946 C190.977233,204.982972 191.265314,204.357082 191.441095,203.657258 C191.616876,202.957434 191.704765,202.252692 191.704765,201.543011 L191.704765,188.532258 L194.605134,188.532258 L194.605134,201.72043 C194.605134,202.784952 194.444004,203.814959 194.121739,204.810484 C193.799474,205.806009 193.306319,206.688168 192.642258,207.456989 C191.978197,208.22581 191.138368,208.841844 190.122746,209.305108 C189.107123,209.768371 187.915738,210 186.548554,210 Z M213.702369,191.104839 L201.983706,206.865591 L213.878149,206.865591 L213.878149,209.467742 L198.468108,209.467742 L198.468108,206.895161 L210.157474,191.104839 L198.702481,191.104839 L198.702481,188.532258 L213.702369,188.532258 L213.702369,191.104839 Z M225.797703,210 C224.430519,210 223.239133,209.768371 222.223511,209.305108 C221.207888,208.841844 220.368059,208.22581 219.703998,207.456989 C219.039937,206.688168 218.546782,205.806009 218.224517,204.810484 C217.902252,203.814959 217.741122,202.784952 217.741122,201.72043 L217.741122,188.532258 L220.641491,188.532258 L220.641491,201.543011 C220.641491,202.252692 220.72938,202.957434 220.905161,203.657258 C221.080942,204.357082 221.369023,204.982972 221.769413,205.534946 C222.169802,206.08692 222.697137,206.530464 223.351432,206.865591 C224.005727,207.200719 224.821143,207.36828 225.797703,207.36828 C226.754732,207.36828 227.565265,207.200719 228.229325,206.865591 C228.893386,206.530464 229.425604,206.08692 229.825993,205.534946 C230.226383,204.982972 230.514464,204.357082 230.690245,203.657258 C230.866025,202.957434 230.953914,202.252692 230.953914,201.543011 L230.953914,188.532258 L233.854283,188.532258 L233.854283,201.72043 C233.854283,202.784952 233.693153,203.814959 233.370889,204.810484 C233.048624,205.806009 232.555468,206.688168 231.891407,207.456989 C231.227347,208.22581 230.387518,208.841844 229.371895,209.305108 C228.356273,209.768371 227.164887,210 225.797703,210 Z M242.170349,197.758065 L242.228942,197.758065 L251.486686,188.532258 L255.500327,188.532258 L245.422278,198.112903 L256.115557,209.467742 L251.955432,209.467742 L242.228942,198.645161 L242.170349,198.645161 L242.170349,209.467742 L239.26998,209.467742 L239.26998,188.532258 L242.170349,188.532258 L242.170349,197.758065 Z M262,209.467742 L259.099631,209.467742 L259.099631,188.532258 L262,188.532258 L262,209.467742 Z" id="Masayuki-Suzuki"></path>
    </g>
</svg>