<?xml version="1.0" encoding="UTF-8"?>
<svg width="108px" height="31px" viewBox="0 0 108 31" version="1.1" xmlns="http://www.w3.org/2000/svg" xmlns:xlink="http://www.w3.org/1999/xlink">
    <!-- Generator: Sketch 41 (35326) - http://www.bohemiancoding.com/sketch -->
    <title>mongodb</title>
    <desc>Created with Sketch.</desc>
    <defs></defs>
    <g id="Page-1" stroke="none" stroke-width="1" fill="none" fill-rule="evenodd">
        <g id="About-Myself" transform="translate(-301.000000, -728.000000)">
            <g id="what-I-do?" transform="translate(288.000000, 454.000000)">
                <g id="skills" transform="translate(0.000000, 87.000000)">
                    <g id="mongodb" transform="translate(13.000000, 187.000000)">
                        <g id="Group">
                            <path d="M100.556648,12.8380342 C100.459617,12.8575685 100.362164,13.0730822 100.362164,13.1905 C100.342758,13.9744178 100.323352,16.0514178 100.323352,17.4621301 C100.323352,17.501411 100.38157,17.5797603 100.44,17.5797603 C100.731938,17.5992945 101.432672,17.6188288 102.036164,17.6188288 C102.873164,17.6188288 103.359797,17.501411 103.632539,17.3839932 C104.333063,17.0311027 104.664023,16.2669315 104.664023,15.4241986 C104.664023,13.5238562 103.340391,12.7987534 101.374242,12.7987534 C101.237977,12.7792192 100.849008,12.7792192 100.556648,12.8380342 L100.556648,12.8380342 Z M105.57907,21.5965959 C105.57907,19.6567603 104.157984,18.5789795 101.588555,18.5789795 C101.471695,18.5789795 100.654102,18.5594452 100.459406,18.5985137 C100.400977,18.6182603 100.323352,18.6575411 100.323352,18.7163562 C100.323352,20.1073219 100.303734,22.3216986 100.362164,23.1837534 C100.400977,23.5559658 100.673719,24.085089 101.00468,24.2417877 C101.354836,24.4377671 102.153023,24.4768356 102.698086,24.4768356 C104.23582,24.4768356 105.57907,23.6147808 105.57907,21.5965959 L105.57907,21.5965959 Z M96.5859609,11.7604658 C96.7804453,11.7604658 97.3643203,11.8190685 98.8632422,11.8190685 C100.284328,11.8190685 101.413266,11.78 102.795328,11.78 C104.488734,11.78 106.824656,12.3872603 106.824656,14.9345685 C106.824656,16.1885822 105.948633,17.1880137 104.800289,17.6778562 C104.74207,17.6973904 104.74207,17.7364589 104.800289,17.7559932 C106.435266,18.1676986 107.875969,19.1864521 107.875969,21.1065411 C107.875969,22.987774 106.708008,24.1829726 105.014391,24.9276096 C103.982695,25.3781712 102.698086,25.5348699 101.393859,25.5348699 C100.400977,25.5348699 97.7343047,25.4174521 96.255,25.4567329 C96.0993281,25.3977055 96.3912656,24.6923493 96.5273203,24.5749315 C96.8778984,24.5551849 97.1502188,24.5356507 97.5202031,24.4180205 C98.0458594,24.2810685 98.1040781,24.1241575 98.1819141,23.3209178 C98.2209375,22.6350959 98.2209375,20.2052055 98.2209375,18.4810959 C98.2209375,16.1102329 98.2405547,14.5035411 98.2209375,13.7198356 C98.2015313,13.1125753 97.9874297,12.9163836 97.5592266,12.7987534 C97.2280547,12.7401507 96.6832031,12.661589 96.2353828,12.6029863 C96.1379297,12.5048904 96.4688906,11.8386027 96.5859609,11.7604658 Z M85.3539609,23.9479247 C85.8213984,24.3199247 86.7362344,24.4766233 87.5538281,24.4766233 C88.6049297,24.4766233 89.6560313,24.2810685 90.6683203,23.359774 C91.7000156,22.4195822 92.4201563,20.969589 92.4201563,18.6575411 C92.4201563,16.4431644 91.5831563,14.6404932 89.8701328,13.5826712 C88.8968672,12.9749863 87.6510703,12.7206164 86.2105781,12.7206164 C85.782375,12.7206164 85.3735781,12.7401507 85.1206641,12.8575685 C85.0620234,12.8968493 84.9259688,13.0730822 84.9259688,13.1709658 C84.8869453,13.5629247 84.8869453,16.5803288 84.8869453,18.3439315 C84.8869453,20.166137 84.8869453,22.7134452 84.9259688,23.0073082 C84.9259688,23.3013836 85.0620234,23.7519452 85.3541719,23.9479247 L85.3539609,23.9479247 Z M80.9352422,11.7602534 C81.3052266,11.7602534 82.7261016,11.8190685 83.4074297,11.8190685 C84.6340313,11.8190685 85.5098438,11.7604658 87.8261484,11.7604658 C89.7726797,11.7604658 91.4078672,12.2893767 92.5758281,13.2885959 C93.9967031,14.5230753 94.7366719,16.227863 94.7366719,18.3046507 C94.7366719,21.2634521 93.3934219,22.9682397 92.0501719,23.9479247 C90.7073438,24.9471438 88.9552969,25.5348699 86.4637031,25.5348699 C85.1400703,25.5348699 82.8625781,25.4958014 80.9742656,25.4760548 L80.9548594,25.4760548 C80.8576172,25.2998219 81.1105313,24.614 81.2662031,24.5944658 C81.7724531,24.5356507 81.9087188,24.5159041 82.1618438,24.4182329 C82.5704297,24.2613219 82.6484766,24.0458082 82.7069063,23.3209178 C82.765125,21.9688082 82.7457188,20.3425822 82.7457188,18.5006301 C82.7457188,17.1880137 82.765125,14.6209589 82.7261016,13.7979726 C82.6678828,13.112363 82.3759453,12.9359178 81.7918594,12.8182877 C81.4999219,12.7596849 81.1105313,12.6811233 80.5656797,12.6225205 C80.4876328,12.4851438 80.838,11.8778836 80.9352422,11.7604658 L80.9352422,11.7602534 Z" id="Shape" fill="#3C3C3C"></path>
                            <path d="M57.3819609,24.7118836 C56.8953281,24.6530685 56.5449609,24.5749315 56.1167578,24.3789521 C56.0583281,24.3396712 55.960875,24.1439041 55.960875,24.0653425 C55.9220625,23.3795205 55.9220625,21.4201507 55.9220625,20.1075342 C55.9220625,19.0492877 55.7469844,18.1284178 55.2991641,17.4818767 C54.7735078,16.7370274 54.0145547,16.3062123 53.0410781,16.3062123 C52.1846719,16.3062123 51.0361172,16.8939384 50.0822578,17.7169247 C50.0628516,17.7364589 49.9071797,17.8738356 49.9265859,17.6581096 C49.9265859,17.4425959 49.9656094,17.0115685 49.9850156,16.7174932 C50.0046328,16.4431644 49.84875,16.3062123 49.84875,16.3062123 C49.2258516,16.6196096 47.4740156,17.0311027 46.8315,17.0897055 C46.3644844,17.1880137 46.247625,17.6385753 46.7344687,17.795274 L46.753875,17.795274 C47.2791094,17.9519726 47.6296875,18.1284178 47.9020078,18.304863 C48.0967031,18.4615616 48.0772969,18.6770753 48.0772969,18.8535205 C48.0967031,20.3228356 48.0967031,22.5762808 48.0384844,23.8107603 C48.0190781,24.3006027 47.8828125,24.4768356 47.5322344,24.5551849 L47.5712578,24.5356507 C47.2987266,24.5944658 47.084625,24.6530685 46.7536641,24.6923493 C46.6368047,24.8099795 46.6368047,25.4369863 46.7536641,25.5741507 C46.9677656,25.5741507 48.0967031,25.5153356 49.0313672,25.5153356 C50.3159766,25.5153356 50.9778984,25.5741507 51.3086484,25.5741507 C51.4449141,25.4174521 51.4839375,24.8295137 51.4061016,24.6923493 C51.0361172,24.6728151 50.7635859,24.6337466 50.5106719,24.5551849 C50.1603047,24.4766233 50.0628516,24.3006027 50.0432344,23.8891096 C50.0046328,22.8503973 50.0046328,20.6559795 50.0046328,19.1669178 C50.0046328,18.7554247 50.1212812,18.5594452 50.2379297,18.4418151 C50.68575,18.0500685 51.4061016,17.7757397 52.0484062,17.7757397 C52.6713047,17.7757397 53.0798906,17.9717192 53.3914453,18.2265137 C53.8196484,18.5789795 53.9559141,19.0885685 54.0143437,19.4607808 C54.1115859,20.3033014 54.0727734,21.9688082 54.0727734,23.4188014 C54.0727734,24.2025068 54.0143437,24.3984863 53.7226172,24.4963699 C53.5861406,24.5551849 53.2357734,24.6337466 52.8269766,24.6726027 C52.6907109,24.8099795 52.7297344,25.4174521 52.8269766,25.5546164 C53.3914453,25.5546164 54.0533672,25.4958014 55.0266328,25.4958014 C56.2334062,25.4958014 57.0121875,25.5546164 57.3237422,25.5546164 C57.4207734,25.4369863 57.4597969,24.8687945 57.3819609,24.7118836 L57.3819609,24.7118836 Z M62.7739453,17.2272945 C61.7424609,17.2272945 61.0999453,18.0305342 61.0999453,19.2843356 C61.0999453,20.5580959 61.6644141,22.0276233 63.2605781,22.0276233 C63.5331094,22.0276233 64.0393594,21.9099932 64.2726563,21.6356644 C64.6426406,21.2831986 64.8957656,20.5776301 64.8957656,19.8329932 C64.8957656,18.2067671 64.0975781,17.2270822 62.7739453,17.2270822 L62.7739453,17.2272945 Z M62.6376797,25.8875479 C62.2485,25.8875479 61.9757578,26.0051781 61.8006797,26.103274 C60.9830859,26.6319726 60.6133125,27.1415616 60.6133125,27.7492466 C60.6133125,28.317226 60.8274141,28.7677877 61.2946406,29.1597466 C61.8591094,29.649589 62.6376797,29.8848493 63.6303516,29.8848493 C65.6159063,29.8848493 66.4919297,28.8070685 66.4919297,27.7492466 C66.4919297,27.0043973 66.1219453,26.5145548 65.3629922,26.2404384 C64.8179297,26.0051781 63.8252578,25.8875479 62.6376797,25.8875479 L62.6376797,25.8875479 Z M62.7739453,30.9821644 C61.5865781,30.9821644 60.7299609,30.7273699 59.9904141,30.1591781 C59.2700625,29.6105205 58.9587188,28.7875342 58.9587188,28.2193425 C58.9587188,28.0626438 58.9977422,27.6314041 59.3481094,27.2396575 C59.562,27.0043973 60.0294375,26.5538356 61.1389688,25.7896644 C61.1777813,25.7701301 61.1971875,25.7505959 61.1971875,25.7111027 C61.1971875,25.6720342 61.1581641,25.6327534 61.1193516,25.6134315 C60.2045156,25.2607534 59.9319844,24.6923493 59.8539375,24.3789521 L59.8539375,24.3396712 C59.8347422,24.2220411 59.7957187,24.1046233 59.9710078,23.9869932 C60.1072734,23.8891096 60.3019688,23.7714795 60.5158594,23.6345274 C60.8468203,23.4383356 61.1971875,23.2228219 61.4112891,23.0463767 C61.4503125,23.0073082 61.4503125,22.9682397 61.4503125,22.9289589 C61.4503125,22.8896781 61.4112891,22.8503973 61.3722656,22.8310753 C60.0100312,22.3803014 59.3287031,21.3613356 59.3287031,19.8329932 C59.3287031,18.833774 59.7763125,17.9324384 60.5742891,17.3642466 C61.1193516,16.9332192 62.4820078,16.4040959 63.3774375,16.4040959 L63.4358672,16.4040959 C64.3507031,16.4236301 64.8567422,16.6196096 65.5768828,16.8744041 C65.9662734,17.0115685 66.3362578,17.0701712 66.8425078,17.0701712 C67.6014609,17.0701712 67.9324219,16.8351233 68.2047422,16.5610068 C68.2243594,16.6000753 68.2633828,16.6981712 68.2827891,16.9527534 C68.3021953,17.2075479 68.2243594,17.5797603 68.0296641,17.854089 C67.8739922,18.0696027 67.523625,18.2265137 67.1732578,18.2265137 L67.0758047,18.2265137 C66.7254375,18.1872329 66.5695547,18.1479521 66.5695547,18.1479521 L66.4919297,18.1872329 C66.4725234,18.2265137 66.4919297,18.2655822 66.5113359,18.3243973 L66.5309531,18.3636781 C66.5697656,18.539911 66.6476016,19.0688219 66.6476016,19.2061986 C66.6476016,20.8128904 66.0052969,21.5180342 65.3239688,22.0471575 C64.6620469,22.537 63.9030938,22.8503973 63.0464766,22.9289589 C63.0270703,22.9289589 62.9494453,22.9289589 62.7739453,22.9484932 C62.6767031,22.9484932 62.5404375,22.9682397 62.5208203,22.9682397 L62.5014141,22.9682397 C62.3457422,23.0073082 61.9565625,23.2032877 61.9565625,23.5362192 C61.9565625,23.8300822 62.1316406,24.1829726 62.9686406,24.2417877 C63.1437188,24.2613219 63.3187969,24.2613219 63.5137031,24.2810685 C64.6232344,24.3592055 66.0052969,24.4573014 66.6476016,24.6728151 C67.5430313,25.0057466 68.1075,25.8091986 68.1075,26.7693493 C68.1075,28.2195548 67.0760156,29.5714521 65.3629922,30.4137603 C64.5259922,30.7861849 63.6887813,30.9821644 62.7739453,30.9821644 L62.7739453,30.9821644 Z M73.8692578,17.3251781 C73.4606719,17.3251781 73.0906875,17.4228493 72.8181563,17.6188288 C72.0592031,18.089137 71.6698125,19.0297534 71.6698125,20.4011849 C71.6698125,22.9682397 72.9544219,24.770911 74.7843047,24.770911 C75.3293672,24.770911 75.7575703,24.614 76.1273438,24.3006027 C76.6918125,23.8300822 76.9839609,22.8896781 76.9839609,21.5768493 C76.9839609,19.0297534 75.7185469,17.3249658 73.8694688,17.3249658 L73.8692578,17.3251781 Z M74.2198359,25.7113151 C70.9106484,25.7113151 69.7232813,23.2621027 69.7232813,20.969589 C69.7232813,19.3628973 70.3655859,18.1284178 71.6501953,17.2466164 C72.5652422,16.6784247 73.6553672,16.3650274 74.6286328,16.3650274 C77.1590391,16.3650274 78.9304922,18.1872329 78.9304922,20.8128904 C78.9304922,22.5958151 78.2297578,24.0065274 76.8865078,24.8687945 C76.2442031,25.2998219 75.1346719,25.7113151 74.219625,25.7113151 L74.2198359,25.7113151 L74.2198359,25.7113151 Z M39.5320078,17.3249658 C39.1232109,17.3249658 38.7534375,17.4228493 38.4806953,17.6188288 C37.7217422,18.089137 37.3323516,19.0297534 37.3323516,20.4011849 C37.3323516,22.9682397 38.6169609,24.770911 40.4468438,24.770911 C40.9919063,24.770911 41.4201094,24.614 41.7900938,24.3006027 C42.3543516,23.8300822 42.6465,22.8896781 42.6465,21.5768493 C42.6465,19.0297534 41.4007031,17.3249658 39.5320078,17.3249658 Z M39.882375,25.7113151 C36.5731875,25.7113151 35.3858203,23.2621027 35.3858203,20.969589 C35.3858203,19.3628973 36.028125,18.1284178 37.3127344,17.2466164 C38.2277813,16.6784247 39.3179063,16.3650274 40.2911719,16.3650274 C42.8217891,16.3650274 44.5930313,18.1872329 44.5930313,20.8128904 C44.5930313,22.5958151 43.8922969,24.0065274 42.5490469,24.8687945 C41.9261484,25.2998219 40.8166172,25.7113151 39.882375,25.7113151 Z M17.6331094,25.5153356 C17.5940859,25.4567329 17.5550625,25.2802877 17.5746797,25.064774 C17.5746797,24.907863 17.6137031,24.8099795 17.6331094,24.770911 C18.0419063,24.7118836 18.2560078,24.6530685 18.4895156,24.5944658 C18.8789063,24.4963699 19.0345781,24.2810685 19.0539844,23.791226 C19.112625,22.6155616 19.112625,20.3816507 19.0930078,18.833774 L19.0930078,18.7944932 C19.0930078,18.6182603 19.0930078,18.4025342 18.8789063,18.2458356 C18.5673516,18.0500685 18.1975781,17.8738356 17.7109453,17.7362466 C17.5358672,17.6778562 17.4190078,17.5797603 17.4384141,17.4623425 C17.4384141,17.3447123 17.5552734,17.2075479 17.8083984,17.1682671 C18.4507031,17.1094521 20.1244922,16.6981712 20.7864141,16.4040959 C20.8254375,16.4431644 20.8838672,16.5610068 20.8838672,16.7177055 L20.8644609,16.9330068 C20.8448438,17.1487329 20.8254375,17.4035274 20.8254375,17.6581096 C20.8254375,17.7364589 20.9034844,17.795274 20.9811094,17.795274 C21.0201328,17.795274 21.0591563,17.7757397 21.0979688,17.7559932 C22.3437656,16.7763082 23.4727031,16.4236301 24.0565781,16.4236301 C25.0106484,16.4236301 25.7504063,16.8744041 26.314875,17.8148082 C26.3536875,17.8738356 26.3927109,17.8933699 26.4511406,17.8933699 C26.4899531,17.8933699 26.5481719,17.8738356 26.5677891,17.8345548 C27.7163438,16.9527534 28.8648984,16.4236301 29.6238516,16.4236301 C31.4341172,16.4236301 32.5048359,17.7757397 32.5048359,20.0682534 C32.5048359,20.7147945 32.5048359,21.5573151 32.4854297,22.3216986 C32.4854297,23.0073082 32.4660234,23.6343151 32.4660234,24.085089 C32.4660234,24.1827603 32.6020781,24.4963699 32.8161797,24.5551849 C33.0887109,24.6923493 33.4586953,24.7511644 33.9453281,24.8295137 L33.9647344,24.8295137 C34.0037578,24.9666781 33.9259219,25.4760548 33.8480859,25.5741507 C33.7312266,25.5741507 33.5559375,25.5741507 33.3614531,25.5546164 C32.8686982,25.5287368 32.3753626,25.5156388 31.8819375,25.5153356 C30.6751641,25.5153356 30.0522656,25.5348699 29.4485625,25.5741507 C29.4099609,25.4174521 29.3903438,24.9471438 29.4485625,24.8295137 C29.7991406,24.770911 29.9742188,24.7118836 30.1885313,24.6532808 C30.5779219,24.5356507 30.6751641,24.3592055 30.6947813,23.8498288 C30.6947813,23.4776164 30.7724063,20.3033014 30.6555469,19.5391301 C30.5388984,18.7554247 29.9548125,17.8345548 28.6699922,17.8345548 C28.1833594,17.8345548 27.4244063,18.0305342 26.6846484,18.5985137 C26.6458359,18.6377945 26.6066016,18.7356781 26.6066016,18.7944932 L26.6066016,18.8142397 C26.6846484,19.2255205 26.6846484,19.6960411 26.6846484,20.4209315 L26.6846484,21.6944795 C26.6846484,22.5762808 26.6650313,23.3992671 26.6846484,24.0260616 C26.6846484,24.4573014 26.9377734,24.5551849 27.151875,24.6337466 C27.2687344,24.6530685 27.3463594,24.6728151 27.4438125,24.6923493 C27.6188906,24.7316301 27.7941797,24.770911 28.0667109,24.8295137 C28.1057344,24.9080753 28.1057344,25.1626575 28.0473047,25.3781712 C28.0276875,25.4958014 27.9886641,25.5544041 27.9692578,25.5741507 C27.3075469,25.5546164 26.6262188,25.5348699 25.6335469,25.5348699 C25.3416094,25.5348699 24.8353594,25.5546164 24.4071563,25.5546164 C24.0565781,25.5546164 23.7258281,25.5741507 23.5313438,25.5741507 C23.5117266,25.5348699 23.4727031,25.3979178 23.4727031,25.1821918 C23.4727031,25.0059589 23.5117266,24.8687945 23.55075,24.8295137 C23.6479922,24.8099795 23.7258281,24.7904452 23.8232813,24.7904452 C24.0565781,24.7511644 24.2514844,24.7118836 24.4459688,24.6728151 C24.7771406,24.5749315 24.8937891,24.3984863 24.9131953,23.9674589 C24.971625,22.987774 25.0300547,20.1858836 24.8937891,19.4803151 C24.6602813,18.3439315 24.0179766,17.7757397 22.9860703,17.7757397 C22.3827891,17.7757397 21.6234141,18.0696027 21.0007266,18.5401233 C20.9032734,18.6182603 20.8254375,18.8140274 20.8254375,18.9904726 L20.8254375,20.1466027 C20.8254375,21.5573151 20.8254375,23.3209178 20.8448438,24.085089 C20.8644609,24.3199247 20.9420859,24.5944658 21.3899063,24.6923493 C21.4873594,24.7118836 21.6430313,24.7511644 21.8377266,24.770911 L22.1878828,24.8295137 C22.2271172,24.9471438 22.2075,25.4174521 22.1296641,25.5741507 C21.9349688,25.5741507 21.7014609,25.5546164 21.4287188,25.5546164 C21.0201328,25.5348699 20.4944766,25.5153356 19.9106016,25.5153356 C19.2292734,25.5153356 18.7426406,25.5348699 18.35325,25.5546164 C18.0807188,25.5153356 17.8666172,25.5153356 17.6331094,25.5153356 L17.6331094,25.5153356 Z" id="Shape" fill="#3C3C3C"></path>
                            <path d="M7.39399219,30.2179932 L6.59601563,29.9434521 C6.59601563,29.9434521 6.69346875,25.8484795 5.23335938,25.5546164 C4.26030469,24.4180205 5.38945313,-22.646774 8.893125,25.3977055 C8.893125,25.3977055 7.68614063,26.0049658 7.47203906,27.0436781 C7.23832031,28.0626438 7.39399219,30.2179932 7.39399219,30.2179932 L7.39399219,30.2179932 Z" id="Shape" fill="#FFFFFF"></path>
                            <path d="M7.39399219,30.2179932 L6.59601563,29.9434521 C6.59601563,29.9434521 6.69346875,25.8484795 5.23335938,25.5546164 C4.26030469,24.4180205 5.38945313,-22.646774 8.893125,25.3977055 C8.893125,25.3977055 7.68614063,26.0049658 7.47203906,27.0436781 C7.23832031,28.0626438 7.39399219,30.2179932 7.39399219,30.2179932 L7.39399219,30.2179932 Z" id="Shape" fill="#3C3C3C"></path>
                            <path d="M7.82240625,26.2599726 C7.82240625,26.2599726 14.8107656,21.6356644 13.1753672,12.0148356 C11.5988203,5.02008904 7.88083594,2.72757534 7.47203906,1.84577397 C7.02442969,1.21876712 6.59601563,0.121664384 6.59601563,0.121664384 L6.88816406,19.5781986 C6.88816406,19.5979452 6.28467188,25.5348699 7.82261719,26.2601849" id="Shape" fill="#555555"></path>
                            <path d="M6.18742969,26.5145548 C6.18742969,26.5145548 -0.372726562,22.0078767 0.0166640625,14.0725137 C0.3864375,6.13693836 5.01925781,2.23773288 5.9146875,1.53237671 C6.49877344,0.905369863 6.51817969,0.670109589 6.55720313,0.0431027397 C6.966,0.92490411 6.88816406,13.2299932 6.94638281,14.679774 C7.12146094,20.2640205 6.63503906,25.4567329 6.18742969,26.5145548 Z" id="Shape" fill="#777777"></path>
                        </g>
                    </g>
                </g>
            </g>
        </g>
    </g>
</svg>