<?xml version="1.0" encoding="UTF-8"?>
<svg width="81px" height="49px" viewBox="0 0 81 49" version="1.1" xmlns="http://www.w3.org/2000/svg" xmlns:xlink="http://www.w3.org/1999/xlink">
    <!-- Generator: Sketch 41 (35326) - http://www.bohemiancoding.com/sketch -->
    <title>node</title>
    <desc>Created with Sketch.</desc>
    <defs></defs>
    <g id="Page-1" stroke="none" stroke-width="1" fill="none" fill-rule="evenodd">
        <g id="About-Myself" transform="translate(-288.000000, -641.000000)" fill="#4E4E4E">
            <g id="what-I-do?" transform="translate(288.000000, 454.000000)">
                <g id="skills" transform="translate(0.000000, 87.000000)">
                    <g id="node" transform="translate(0.000000, 100.000000)">
                        <g id="Layer_1">
                            <g id="Group" transform="translate(30.769546, 29.217301)">
                                <path d="M8.86886928,19.640519 C8.59737328,19.640519 8.34397702,19.5683775 8.10868048,19.4421299 L5.70141597,18.0173356 C5.3394213,17.8189465 5.52041863,17.746805 5.62901703,17.7107343 C6.11770983,17.548416 6.2082085,17.5123452 6.71500103,17.2237793 C6.76930023,17.1877085 6.84169916,17.2057439 6.89599836,17.2418146 L8.74217115,18.3419723 C8.81457008,18.378043 8.90506875,18.378043 8.95936795,18.3419723 L16.1811615,14.1758016 C16.2535604,14.1397308 16.2897599,14.0675894 16.2897599,13.9774125 L16.2897599,5.66310648 C16.2897599,5.57292963 16.2535604,5.50078815 16.1811615,5.4647174 L8.95936795,1.31658208 C8.88696901,1.28051134 8.79647035,1.28051134 8.74217115,1.31658208 L1.52037759,5.4647174 C1.44797866,5.50078815 1.41177919,5.590965 1.41177919,5.66310648 L1.41177919,13.9774125 C1.41177919,14.049554 1.44797866,14.1397308 1.52037759,14.1758016 L3.49324851,15.31203 C4.56113277,15.8530911 5.2308229,15.2218531 5.2308229,14.5906151 L5.2308229,6.38452132 C5.2308229,6.2763091 5.32132157,6.16809687 5.4480197,6.16809687 L6.37110609,6.16809687 C6.47970449,6.16809687 6.58830289,6.25827373 6.58830289,6.38452132 L6.58830289,14.5906151 C6.58830289,16.0154094 5.81001436,16.8450365 4.45253437,16.8450365 C4.03624051,16.8450365 3.71044531,16.8450365 2.78735892,16.3941522 L0.886886928,15.31203 C0.416293864,15.0414994 0.126698133,14.536509 0.126698133,13.9954479 L0.126698133,5.68114186 C0.126698133,5.14008073 0.416293864,4.63509034 0.886886928,4.36455977 L8.10868048,0.198389081 C8.56117381,-0.0541061129 9.17656474,-0.0541061129 9.62905808,0.198389081 L16.8508516,4.36455977 C17.3214447,4.63509034 17.6110404,5.14008073 17.6110404,5.68114186 L17.6110404,13.9954479 C17.6110404,14.536509 17.3214447,15.0414994 16.8508516,15.31203 L9.62905808,19.4782006 C9.39376154,19.5864129 9.12226554,19.640519 8.86886928,19.640519 Z" id="Shape"></path>
                                <path d="M11.0951365,13.9233064 C7.92768315,13.9233064 7.27609276,12.4804767 7.27609276,11.2540715 C7.27609276,11.1458593 7.36659142,11.037647 7.49328955,11.037647 L8.43447568,11.037647 C8.54307408,11.037647 8.63357275,11.1097885 8.63357275,11.2180007 C8.77837061,12.1738754 9.19466448,12.642795 11.1132362,12.642795 C12.6336138,12.642795 13.2852042,12.300123 13.2852042,11.4885313 C13.2852042,11.0196117 13.1042069,10.6769396 10.7331418,10.4424798 C8.76027088,10.2440907 7.52948902,9.81124181 7.52948902,8.24216453 C7.52948902,6.78129948 8.76027088,5.91560168 10.8236405,5.91560168 C13.1404063,5.91560168 14.2806895,6.709158 14.4254874,8.44055361 C14.4254874,8.49465973 14.4073876,8.54876584 14.3711882,8.60287195 C14.3349887,8.63894269 14.2806895,8.67501344 14.2263903,8.67501344 L13.2852042,8.67501344 C13.1947055,8.67501344 13.1042069,8.60287195 13.0861071,8.5126951 C12.8689103,7.52074969 12.3078186,7.19611302 10.8236405,7.19611302 C9.15846501,7.19611302 8.95936795,7.77324489 8.95936795,8.20609379 C8.95936795,8.72911955 9.19466448,8.89143789 11.4390314,9.18000382 C13.6652986,9.46856976 14.7150831,9.88338329 14.7150831,11.4344252 C14.6969834,13.0215378 13.3938026,13.9233064 11.0951365,13.9233064 Z" id="Shape"></path>
                            </g>
                            <path d="M52.2901293,34.4114878 C52.2901293,35.1689734 51.6566386,35.8002114 50.8964498,35.8002114 C50.136261,35.8002114 49.5027704,35.1870088 49.5027704,34.4114878 C49.5027704,33.6179315 50.1543608,33.0227642 50.8964498,33.0227642 C51.6566386,33.0227642 52.2901293,33.6359669 52.2901293,34.4114878 Z M49.7199672,34.4114878 C49.7199672,35.0607612 50.2448594,35.5837869 50.8783501,35.5837869 C51.5299405,35.5837869 52.0548328,35.0427258 52.0548328,34.4114878 C52.0548328,33.7622145 51.5299405,33.2572241 50.8783501,33.2572241 C50.2629592,33.2572241 49.7199672,33.7622145 49.7199672,34.4114878 Z M50.3715576,33.6359669 L50.9145496,33.6359669 C51.0955469,33.6359669 51.4575416,33.6359669 51.4575416,34.0507804 C51.4575416,34.3393463 51.2765442,34.3934524 51.1679458,34.4295232 C51.3851426,34.4475586 51.4032424,34.5918415 51.4213421,34.7902306 C51.4394418,34.9164782 51.4575416,35.1329026 51.493741,35.2050441 L51.1679458,35.2050441 C51.1679458,35.1329026 51.1136466,34.7361245 51.1136466,34.7180891 C51.0955469,34.6279123 51.0593474,34.5918415 50.950749,34.5918415 L50.679253,34.5918415 L50.679253,35.2230795 L50.3715576,35.2230795 L50.3715576,33.6359669 Z M50.6611533,34.321311 L50.8964498,34.321311 C51.0955469,34.321311 51.1317464,34.177028 51.1317464,34.1048865 C51.1317464,33.8884621 50.9869485,33.8884621 50.8964498,33.8884621 L50.6430536,33.8884621 L50.6430536,34.321311 L50.6611533,34.321311 Z" id="Shape"></path>
                            <path d="M17.230946,16.3400461 C17.230946,16.0154094 17.0499487,15.7088081 16.760353,15.5464898 L9.08606608,11.1458593 C8.95936795,11.0737178 8.81457008,11.037647 8.66977221,11.0196117 L8.59737328,11.0196117 C8.45257542,11.0196117 8.30777755,11.0737178 8.18107942,11.1458593 L0.50679253,15.5464898 C0.217196799,15.7088081 0.0361994664,16.0154094 0.0361994664,16.3400461 L0.0542991997,28.1712495 C0.0542991997,28.3335678 0.144797866,28.4958861 0.289595732,28.5680276 C0.434393597,28.6582045 0.61539093,28.6582045 0.742089062,28.5680276 L5.30322183,25.9709342 C5.59281757,25.8086159 5.7738149,25.5020146 5.7738149,25.1773779 L5.7738149,19.640519 C5.7738149,19.3158823 5.95481223,19.009281 6.24440796,18.8469627 L8.18107942,17.7287697 C8.32587728,17.6385928 8.48877488,17.6025221 8.65167248,17.6025221 C8.81457008,17.6025221 8.97746768,17.6385928 9.10416581,17.7287697 L11.0408373,18.8469627 C11.330433,19.009281 11.5114303,19.3158823 11.5114303,19.640519 L11.5114303,25.1773779 C11.5114303,25.5020146 11.6924277,25.8086159 11.9820234,25.9709342 L16.5431562,28.5680276 C16.687954,28.6582045 16.8689514,28.6582045 17.0137492,28.5680276 C17.1585471,28.4958861 17.2490458,28.3335678 17.2490458,28.1712495 L17.230946,16.3400461 Z" id="Shape"></path>
                            <path d="M54.1182023,0.0541061129 C53.9734045,-0.018035371 53.7924071,-0.018035371 53.665709,0.0541061129 C53.5209111,0.144282968 53.4304125,0.288565936 53.4304125,0.450884274 L53.4304125,12.1738754 C53.4304125,12.2820876 53.3761133,12.3902999 53.2675149,12.4624413 C53.1589165,12.5165475 53.0503181,12.5165475 52.9417197,12.4624413 L51.023148,11.3622837 C50.7335522,11.1999654 50.3896573,11.1999654 50.1000616,11.3622837 L42.4257747,15.7809496 C42.1361789,15.9432679 41.9551816,16.2498692 41.9551816,16.5745059 L41.9551816,25.3938023 C41.9551816,25.718439 42.1361789,26.0250403 42.4257747,26.1873586 L50.1000616,30.6060245 C50.3896573,30.7683429 50.7335522,30.7683429 51.023148,30.6060245 L58.6974348,26.1873586 C58.9870306,26.0250403 59.1680279,25.718439 59.1680279,25.3938023 L59.1680279,3.40868511 C59.1680279,3.06601306 58.9870306,2.75941176 58.6974348,2.59709342 L54.1182023,0.0541061129 Z M53.4123127,22.4901076 C53.4123127,22.5802845 53.3761133,22.6524259 53.3037143,22.6884967 L50.679253,24.2034678 C50.6068541,24.2395386 50.5163554,24.2395386 50.4439565,24.2034678 L47.8194952,22.6884967 C47.7470962,22.6524259 47.7108968,22.5622491 47.7108968,22.4901076 L47.7108968,19.4601653 C47.7108968,19.3699884 47.7470962,19.2978469 47.8194952,19.2617762 L50.4439565,17.746805 C50.5163554,17.7107343 50.6068541,17.7107343 50.679253,17.746805 L53.3037143,19.2617762 C53.3761133,19.2978469 53.4123127,19.3880238 53.4123127,19.4601653 L53.4123127,22.4901076 Z" id="Shape"></path>
                            <g id="Group" transform="translate(62.806074, 11.001576)">
                                <path d="M16.8508516,8.3864475 C17.1404474,8.22412916 17.303345,7.91752786 17.303345,7.59289118 L17.303345,5.44668203 C17.303345,5.12204536 17.1223476,4.81544405 16.8508516,4.65312571 L9.23086394,0.252495194 C8.94126821,0.0901768548 8.59737328,0.0901768548 8.30777755,0.252495194 L0.633490663,4.67116108 C0.343894931,4.83347942 0.162897599,5.14008073 0.162897599,5.4647174 L0.162897599,14.2840138 C0.162897599,14.6086505 0.343894931,14.9152518 0.633490663,15.0775701 L8.25347835,19.4060592 C8.54307408,19.5683775 8.88696901,19.5683775 9.15846501,19.4060592 L13.773897,16.8450365 C13.9186948,16.772895 14.0091935,16.6105767 14.0091935,16.4482583 C14.0091935,16.28594 13.9186948,16.1236216 13.773897,16.0514802 L6.06341063,11.6328143 C5.91861276,11.5426374 5.8281141,11.3983545 5.8281141,11.2360361 L5.8281141,8.47662436 C5.8281141,8.31430602 5.91861276,8.15198768 6.06341063,8.07984619 L8.47067515,6.709158 C8.61547301,6.61898115 8.79647035,6.61898115 8.94126821,6.709158 L11.3485327,8.07984619 C11.4933306,8.17002305 11.5838293,8.31430602 11.5838293,8.47662436 L11.5838293,10.6408689 C11.5838293,10.8031872 11.6743279,10.9655055 11.8191258,11.037647 C11.9639237,11.1278239 12.144921,11.1278239 12.2897189,11.037647 L16.8508516,8.3864475 Z" id="Shape"></path>
                                <path d="M8.65167248,7.97163397 C8.70597168,7.93556323 8.77837061,7.93556323 8.83266981,7.97163397 L10.2987482,8.8192964 C10.3530474,8.85536715 10.3892469,8.90947326 10.3892469,8.98161474 L10.3892469,10.6769396 C10.3892469,10.7490811 10.3530474,10.8031872 10.2987482,10.839258 L8.83266981,11.6869204 C8.77837061,11.7229911 8.70597168,11.7229911 8.65167248,11.6869204 L7.18559409,10.839258 C7.13129489,10.8031872 7.09509542,10.7490811 7.09509542,10.6769396 L7.09509542,8.98161474 C7.09509542,8.90947326 7.13129489,8.85536715 7.18559409,8.8192964 L8.65167248,7.97163397 Z" id="Shape"></path>
                            </g>
                            <g id="Group" transform="translate(20.995691, 11.181930)">
                                <path d="M8.10868048,0.162318339 C8.39827622,-9.59232693e-14 8.74217115,-9.59232693e-14 9.03176688,0.162318339 L16.6336548,4.54491348 C16.9232506,4.70723182 17.0861482,5.01383313 17.0861482,5.33846981 L17.0861482,14.0856247 C17.0861482,14.4102614 16.9051508,14.7168627 16.6336548,14.879181 L9.03176688,19.2617762 C8.74217115,19.4240945 8.39827622,19.4240945 8.10868048,19.2617762 L0.50679253,14.879181 C0.217196799,14.7168627 0.0542991997,14.4102614 0.0542991997,14.0856247 L0.0542991997,5.33846981 C0.0542991997,5.01383313 0.235296532,4.70723182 0.50679253,4.54491348 L8.10868048,0.162318339 Z" id="XMLID_67_"></path>
                            </g>
                        </g>
                    </g>
                </g>
            </g>
        </g>
    </g>
</svg>