<?xml version="1.0" encoding="UTF-8"?>
<svg width="46px" height="46px" viewBox="0 0 46 46" version="1.1" xmlns="http://www.w3.org/2000/svg" xmlns:xlink="http://www.w3.org/1999/xlink">
    <!-- Generator: Sketch 41 (35326) - http://www.bohemiancoding.com/sketch -->
    <title>photoshop</title>
    <desc>Created with Sketch.</desc>
    <defs></defs>
    <g id="Page-1" stroke="none" stroke-width="1" fill="none" fill-rule="evenodd">
        <g id="About-Myself" transform="translate(-1105.000000, -633.000000)">
            <g id="what-I-use-?" transform="translate(880.000000, 454.000000)">
                <g id="tools" transform="translate(0.000000, 89.000000)">
                    <g id="photoshop" transform="translate(225.000000, 90.000000)">
                        <g id="Group">
                            <polygon id="Shape" points="1.91471626 1.9723052 44.0390916 1.9723052 44.0390916 43.3714286 1.91471626 43.3714286"></polygon>
                            <path d="M1.91471626,1.99688394 L44.0390916,1.99688394 L44.0390916,44.0861604 L1.91471626,44.0861604 L1.91471626,1.99688394 Z M0,45.9918757 L46,45.9918757 L46,0.0575889341 L0,0.0575889341 L0,45.9918757 Z M31.6376735,19.9893569 C30.124999,19.9893569 29.6080881,20.7650593 29.6080881,21.4050274 C29.6080881,22.1031674 29.9526954,22.5880107 31.9823579,23.6546503 C34.9884848,25.1285708 35.9267367,26.5442413 35.9267367,28.6193487 C35.9267367,31.7222364 33.5907566,33.3900629 30.4313937,33.3900629 C28.7655605,33.3900629 27.3294654,33.0409539 26.5061598,32.5561888 C26.3721459,32.4980169 26.353001,32.4010639 26.353001,32.2458609 L26.353001,29.3950511 C26.353001,29.2011451 26.4487252,29.1428951 26.5828164,29.2399263 C27.7890961,30.0350974 29.1676795,30.3841283 30.4313937,30.3841283 C31.9440682,30.3841283 32.5759254,29.7441602 32.5759254,28.8714266 C32.5759254,28.1732866 32.1355167,27.5527091 30.2015784,26.5442413 C27.4826242,25.2255238 26.353001,23.8874157 26.353001,21.6571835 C26.353001,19.1554046 28.2869393,17.0803753 31.6376735,17.0803753 C33.2843619,17.0803753 34.4332071,17.3325314 35.0650642,17.6233904 C35.218223,17.7203435 35.2565127,17.8754683 35.2565127,18.0112025 L35.2565127,20.6680281 C35.2565127,20.8231529 35.1607884,20.9201841 34.9692628,20.8619341 C34.1268123,20.3190754 32.8822429,19.9893569 31.6376735,19.9893569 L31.6376735,19.9893569 Z M15.1708666,22.2971516 C15.6112753,22.3359328 15.9559597,22.3359328 16.7218308,22.3359328 C18.9621638,22.3359328 21.0683285,21.5408399 21.0683285,18.4573428 C21.0683285,15.9944233 19.5556541,14.75319 17.0090807,14.75319 C16.2432096,14.75319 15.515551,14.7919713 15.1708666,14.8113619 L15.1708666,22.2971516 Z M11.7626979,11.9993333 C11.7626979,11.863599 12.0308029,11.7665678 12.1838845,11.7665678 C13.4093863,11.708396 15.2283783,11.6696148 17.1239497,11.6696148 C22.427767,11.6696148 24.4956421,14.6173776 24.4956421,18.3797022 C24.4956421,23.3055412 20.9725271,25.4194299 16.6452514,25.4194299 C15.91767,25.4194299 15.668787,25.3806487 15.1517217,25.3806487 L15.1517217,32.8276572 C15.1517217,32.982782 15.0942872,33.0603445 14.9219836,33.0603445 L11.992436,33.0603445 C11.8392773,33.0603445 11.7626207,33.0021727 11.7626207,32.8276572 L11.7626207,11.9993333 L11.7626979,11.9993333 Z" id="Shape" fill="#4E4E4E"></path>
                        </g>
                    </g>
                </g>
            </g>
        </g>
    </g>
</svg>