<?xml version="1.0" encoding="utf-8"?>
<svg xmlns="http://www.w3.org/2000/svg" xmlns:xlink="http://www.w3.org/1999/xlink" x="0px" y="0px"
	 viewBox="0 0 50 50" style="enable-background:new 0 0 50 50;" xml:space="preserve" width="50" height="50">
<style type="text/css">
	.st0{enable-background:new    ;}
	.st1{fill:#3C3C3C;}
</style>
<g class="st0">
	<path class="st1" d="M1.8,17h5.5v0.2c0.4-0.2,0.8-0.3,1.2-0.4c0.4-0.1,0.8-0.2,1.3-0.2c0.9,0,1.8,0.2,2.6,0.5
		c0.8,0.4,1.5,0.8,2.1,1.4c0.6,0.6,1,1.3,1.4,2.1c0.3,0.8,0.5,1.7,0.5,2.6c0,0.9-0.2,1.8-0.5,2.6c-0.3,0.8-0.8,1.5-1.3,2.1
		c-0.6,0.6-1.3,1.1-2.1,1.4c-0.8,0.3-1.7,0.5-2.6,0.5c-0.5,0-1-0.1-1.5-0.2s-0.9-0.2-1.3-0.4v2.8h2.4v3.3H1.1v-3.3h2.1V20.4H1.8V17z
		 M9.5,20c-0.5,0-1,0.1-1.4,0.4c-0.4,0.3-0.8,0.6-1.1,1.1v3.6c0.3,0.4,0.6,0.8,1.1,1c0.4,0.3,1,0.4,1.5,0.4c0.4,0,0.8-0.1,1.2-0.2
		c0.4-0.2,0.7-0.4,1-0.7c0.3-0.3,0.5-0.6,0.7-1c0.2-0.4,0.2-0.8,0.2-1.3c0-0.5-0.1-1-0.2-1.4c-0.2-0.4-0.4-0.8-0.7-1
		c-0.3-0.3-0.6-0.5-1-0.6C10.3,20.1,9.9,20,9.5,20z"/>
	<path class="st1" d="M25.9,17h6v9.3h1.5v3.3H28v-1.1c-0.4,0.4-0.9,0.7-1.5,0.9c-0.6,0.2-1.2,0.3-2,0.3c-0.7,0-1.4-0.1-2-0.3
		c-0.6-0.2-1.2-0.6-1.6-1c-0.5-0.4-0.8-1-1.1-1.7c-0.3-0.7-0.4-1.5-0.4-2.4v-4.1h-1.6V17h5.6v7.4c0,0.8,0.2,1.5,0.6,1.9
		c0.4,0.4,1,0.6,1.7,0.6c0.5,0,0.9-0.2,1.3-0.5c0.4-0.3,0.7-0.7,0.9-1.2v-5h-2V17z"/>
	<path class="st1" d="M44.6,29c-0.5,0.3-0.9,0.4-1.4,0.6c-0.5,0.1-0.9,0.2-1.4,0.2c-1,0-1.9-0.2-2.7-0.5c-0.8-0.3-1.5-0.8-2.1-1.4
		c-0.6-0.6-1.1-1.3-1.4-2.1s-0.5-1.7-0.5-2.6c0-0.9,0.2-1.7,0.5-2.5c0.3-0.8,0.8-1.5,1.3-2.1c0.6-0.6,1.3-1.1,2.1-1.4
		s1.7-0.5,2.6-0.5c0.6,0,1.1,0.1,1.6,0.2c0.5,0.1,0.9,0.3,1.4,0.5V17h3.7v12.1c0,1.1-0.2,2-0.5,2.8c-0.4,0.8-0.9,1.4-1.5,1.9
		c-0.6,0.5-1.3,0.9-2.1,1.1c-0.8,0.2-1.7,0.4-2.6,0.4c-1.1,0-2.1-0.2-3.1-0.5c-0.9-0.3-1.8-0.7-2.5-1.2l1.5-2.7
		c0.6,0.4,1.2,0.6,1.8,0.8c0.7,0.2,1.4,0.3,2.2,0.3c0.4,0,0.8,0,1.2-0.1s0.7-0.3,1-0.5c0.3-0.2,0.5-0.5,0.6-0.9
		C44.5,30.2,44.6,29.7,44.6,29L44.6,29z M42,26.4c0.6,0,1.1-0.1,1.5-0.4c0.5-0.3,0.8-0.7,1.1-1.1l0-3.1c-0.3-0.5-0.7-0.9-1.1-1.2
		c-0.5-0.3-1-0.5-1.6-0.5c-0.4,0-0.8,0.1-1.2,0.2c-0.4,0.2-0.7,0.4-1,0.6c-0.3,0.3-0.5,0.6-0.7,1c-0.2,0.4-0.2,0.8-0.2,1.3
		c0,0.5,0.1,0.9,0.2,1.3c0.2,0.4,0.4,0.7,0.7,1c0.3,0.3,0.6,0.5,1,0.6C41.1,26.3,41.5,26.4,42,26.4z"/>
</g>
</svg>
