<?xml version="1.0" encoding="UTF-8"?>
<svg width="2208px" height="1965px" viewBox="0 0 2208 1965" version="1.1" xmlns="http://www.w3.org/2000/svg" xmlns:xlink="http://www.w3.org/1999/xlink">
    <!-- Generator: Sketch 46.2 (44496) - http://www.bohemiancoding.com/sketch -->
    <title>react</title>
    <desc>Created with Sketch.</desc>
    <defs></defs>
    <g id="Page-1" stroke="none" stroke-width="1" fill="none" fill-rule="evenodd">
        <g id="react" fill-rule="nonzero">
            <path d="M1815.1,637 C1791.6,628.9 1767.9,621.5 1744.1,614.6 C1748.1,598.5 1751.7,582.4 1755.1,566.2 C1808.9,305.2 1773.7,94.9 1653.7,25.7 C1538.6,-40.7 1350.3,28.5 1160.2,194 C1141.5,210.3 1123.1,227.2 1105.3,244.4 C1093.3,232.9 1081.1,221.7 1068.7,210.6 C869.4,33.7 669.7,-40.9 549.8,28.5 C434.8,95.1 400.7,292.7 449.1,540.1 C453.9,564.6 459.4,589 465.4,613.2 C437.1,621.2 409.8,629.8 383.7,638.9 C150,720.4 0.9,848.1 0.9,980.5 C0.9,1117.3 161,1254.4 404.4,1337.6 C424.1,1344.3 444,1350.5 464.1,1356.3 C457.6,1382.4 451.8,1408.7 446.8,1435.1 C400.6,1678.2 436.7,1871.1 551.4,1937.3 C669.9,2005.6 868.7,1935.4 1062.3,1766.2 C1077.6,1752.8 1093,1738.6 1108.3,1723.8 C1127.7,1742.5 1147.6,1760.6 1167.9,1778.2 C1355.4,1939.6 1540.6,2004.7 1655.2,1938.4 C1773.6,1869.9 1812,1662.6 1762.1,1410.3 C1758.3,1391 1753.8,1371.4 1748.9,1351.3 C1762.9,1347.2 1776.6,1342.9 1789.9,1338.5 C2042.9,1254.7 2207.4,1119.2 2207.4,980.6 C2207.4,847.6 2053.4,719.1 1815.1,637 L1815.1,637 Z" id="Shape" fill="#4E4E4E"></path>
            <path d="M1760.2,1248.9 C1748.1,1252.9 1735.8,1256.8 1723.1,1260.5 C1695.2,1172.1 1657.5,1078.1 1611.4,981 C1655.4,886.2 1691.6,793.4 1718.8,705.5 C1741.4,712 1763.3,718.9 1784.4,726.2 C1988.6,796.5 2113.1,900.4 2113.1,980.5 C2113.1,1065.8 1978.6,1176.5 1760.2,1248.9 L1760.2,1248.9 Z M1669.6,1428.4 C1691.7,1539.9 1694.8,1640.8 1680.2,1719.6 C1667.1,1790.4 1640.6,1837.7 1608,1856.6 C1538.5,1896.9 1389.7,1844.5 1229.4,1706.5 C1211,1690.7 1192.5,1673.8 1173.9,1655.9 C1236.1,1587.9 1298.2,1508.8 1358.9,1421 C1465.6,1411.5 1566.4,1396.1 1657.7,1374.9 C1662.1,1393.2 1666.1,1411 1669.6,1428.4 L1669.6,1428.4 Z M753.1,1849.7 C685.2,1873.7 631.1,1874.4 598.4,1855.5 C528.8,1815.4 499.9,1660.4 539.3,1452.5 C544,1427.9 549.4,1403.5 555.4,1379.2 C645.8,1399.2 745.8,1413.6 852.8,1422.2 C913.8,1508.1 977.8,1587.1 1042.2,1656.2 C1028.5,1669.4 1014.5,1682.4 1000.2,1694.9 C914.5,1769.9 828.7,1823 753.1,1849.7 L753.1,1849.7 Z M434.8,1248.3 C327.2,1211.5 238.4,1163.7 177.4,1111.6 C122.7,1064.7 95,1018.2 95,980.4 C95,900.1 214.8,797.6 414.6,727.9 C439.7,719.2 465,711.2 490.5,704 C518.1,793.8 554.3,887.7 598,982.7 C553.7,1079.1 517,1174.5 489.1,1265.3 C471,1260.2 452.8,1254.5 434.8,1248.3 Z M541.5,522.1 C500,310.2 527.6,150.3 596.9,110.2 C670.7,67.5 834,128.4 1006,281.2 C1017,291 1028,301.2 1039.1,311.8 C975,380.6 911.7,459 851.1,544.4 C747.3,554 648,569.5 556.7,590.2 C551.1,567.5 546,544.9 541.5,522.1 L541.5,522.1 Z M1493.3,757.1 C1471.7,719.8 1449.4,683 1426.2,646.8 C1496.6,655.7 1564.1,667.5 1627.4,682 C1608.4,742.9 1584.7,806.7 1556.8,872 C1536.4,833.2 1515.2,795 1493.3,757.1 L1493.3,757.1 Z M1105.2,379.1 C1148.7,426.2 1192.2,478.8 1235,535.9 C1148.1,531.8 1061.1,531.8 974.2,535.8 C1017.1,479.2 1061,426.7 1105.2,379.1 L1105.2,379.1 Z M714.5,757.8 C692.9,795.3 672.1,833.4 652.2,871.9 C624.8,806.8 601.3,742.8 582.1,681 C645.1,666.9 712.2,655.4 782.1,646.7 C758.8,683.1 736.2,720.2 714.5,757.8 Z M784.2,1321 C711.9,1312.9 643.8,1302 580.8,1288.3 C600.3,1225.4 624.3,1160 652.3,1093.5 C672.3,1132 693.1,1170.1 714.9,1207.7 C737.1,1246 760.2,1283.8 784.2,1321 Z M1107.8,1588.5 C1063.1,1540.3 1018.6,1487 975,1429.6 C1017.2,1431.3 1060.3,1432.1 1104.1,1432.1 C1149.1,1432.1 1193.5,1431.1 1237.3,1429.1 C1194.3,1487.6 1150.9,1541 1107.8,1588.5 Z M1557.7,1090.2 C1587.2,1157.4 1612.1,1222.5 1631.8,1284.3 C1567.8,1298.9 1498.7,1310.7 1426,1319.4 C1449.3,1282.4 1471.9,1245 1493.7,1207.1 C1515.9,1168.6 1537.2,1129.6 1557.7,1090.2 L1557.7,1090.2 Z M1412,1160 C1378.6,1218.1 1343.3,1275 1306.1,1330.8 C1240.6,1335.5 1173,1337.9 1104,1337.9 C1035.3,1337.9 968.5,1335.8 904.2,1331.6 C866.1,1276 830.1,1218.9 796.4,1160.5 C762.8,1102.5 731.4,1043.1 702.3,982.7 C731.3,922.2 762.6,862.9 796.2,804.8 L796.2,804.8 C829.7,746.7 865.4,689.9 903.2,634.5 C968.8,629.5 1036.1,626.9 1104.1,626.9 C1172.4,626.9 1239.8,629.5 1305.4,634.5 C1342.8,689.8 1378.3,746.4 1411.7,804.2 C1445.3,862.2 1477,921.2 1506.8,981.2 C1477.4,1042 1445.7,1101.6 1412,1160 L1412,1160 Z M1606.5,107.4 C1680.4,150 1709.1,321.9 1662.7,547.2 C1659.7,561.9 1656.3,576.5 1652.8,591.1 C1561.3,570 1461.9,554.3 1357.8,544.5 C1297.2,458.2 1234.3,379.7 1171.3,311.7 C1187.8,295.8 1204.7,280.3 1222,265.2 C1384.9,123.3 1537.1,67.4 1606.5,107.4 L1606.5,107.4 Z" id="Shape" fill="#E8E8E0"></path>
            <path d="M1104.1,783.4 C1212.9,783.4 1301.1,871.6 1301.1,980.4 C1301.1,1089.2 1212.9,1177.4 1104.1,1177.4 C995.3,1177.4 907.1,1089.2 907.1,980.4 C907.1,871.6 995.3,783.4 1104.1,783.4" id="Shape" fill="#4E4E4E"></path>
        </g>
    </g>
</svg>