<?xml version="1.0" encoding="UTF-8"?>
<svg width="59px" height="44px" viewBox="0 0 59 44" version="1.1" xmlns="http://www.w3.org/2000/svg" xmlns:xlink="http://www.w3.org/1999/xlink">
    <!-- Generator: Sketch 41 (35326) - http://www.bohemiancoding.com/sketch -->
    <title>sass</title>
    <desc>Created with Sketch.</desc>
    <defs></defs>
    <g id="Page-1" stroke="none" stroke-width="1" fill="none" fill-rule="evenodd">
        <g id="About-Myself" transform="translate(-884.000000, -543.000000)" fill="#4E4E4E">
            <g id="what-I-use-?" transform="translate(880.000000, 454.000000)">
                <g id="tools" transform="translate(0.000000, 89.000000)">
                    <g id="sass" transform="translate(4.000000, 0.000000)">
                        <path d="M41.7171929,33.2496946 C41.5299943,33.1171358 41.5611222,32.688704 42.1767883,31.3543286 C42.4184879,30.8304158 42.9699592,29.9483692 43.9286792,29.1054366 C44.0397275,29.4521042 44.1074766,29.7845192 44.1055378,30.0940018 C44.0931513,32.1585759 42.6125799,32.9296031 41.7171929,33.2496946 Z M33.8363225,35.0370419 C33.58536,35.1676718 33.355293,35.2497575 33.2483377,35.1864251 C33.1699254,35.1398098 33.3518463,34.9678155 33.3518463,34.9678155 C33.3518463,34.9678155 34.6315399,33.5982911 35.1355115,32.974611 C35.4286961,32.6119763 35.7686265,32.1815085 36.1390386,31.7000317 C36.1420545,31.7481472 36.1436701,31.7958341 36.1436701,31.8429852 C36.1399003,33.4838426 34.5467728,34.5916785 33.8363225,35.0370419 Z M23.6063134,30.1806954 C23.0143434,31.6165528 21.7753639,35.2899431 21.0212914,35.0930874 C20.3739588,34.9240936 19.979743,32.1316783 20.8920403,29.3835208 C21.3512049,28.0001725 22.332113,26.3472058 22.9083575,25.7056297 C23.8360572,24.6732355 24.8574641,24.3355695 25.1056262,24.7541425 C25.4219682,25.2874854 23.9774795,29.2806457 23.6063134,30.1806954 Z M11.2240581,38.5555837 C9.5244061,40.4003695 7.14984798,41.0975625 6.13156473,40.5103173 C5.03206871,39.8760281 5.46753721,37.1601262 7.55332683,35.2024993 C8.8246191,34.0094699 10.4657849,32.9106355 11.55451,32.2338033 C11.8022413,32.0854917 12.1662986,31.8676323 12.6086605,31.6039078 C12.6820105,31.5623291 12.7233708,31.5392894 12.7233708,31.5392894 L12.7217552,31.5365032 C12.8071686,31.4857086 12.8946285,31.4335209 12.9849966,31.379833 C13.743916,34.1662472 13.0080464,36.6193891 11.2240581,38.5555837 Z M50.7759717,25.2892 C48.7138781,25.3000233 46.9278433,25.7925377 45.4306847,26.5267014 C44.8830909,25.4394405 44.3289268,24.4829166 44.235866,23.7716855 C44.1271874,22.9413979 44.0012753,22.4460973 44.1324651,21.4569964 C44.2637627,20.4678954 44.8389301,19.0672941 44.8305288,18.962383 C44.8221275,18.8574719 44.7014931,18.3535983 43.5121676,18.3450254 C42.3227343,18.3365596 41.3053128,18.5726365 41.1856478,18.8851195 C41.0658751,19.1976026 40.8368852,19.9007966 40.6943859,20.6339958 C40.4860762,21.7070042 38.3197201,25.5337426 37.0896804,27.5357344 C36.6873864,26.7544197 36.3453018,26.0654782 36.2739983,25.5206689 C36.1654274,24.6903814 36.0394075,24.1950807 36.1705974,23.2058726 C36.301895,22.2168788 36.8770624,20.8160632 36.868661,20.7111521 C36.8602597,20.6062409 36.7397331,20.1024746 35.5502998,20.0939016 C34.3608666,20.0854359 33.343445,20.3215127 33.22378,20.6339958 C33.1040074,20.9464788 32.9761565,21.6765704 32.7325181,22.382872 C32.4888798,23.0892809 29.6091653,29.4727863 28.8549852,31.1273604 C28.4706786,31.9704002 28.1362413,32.6476611 27.9001427,33.1102775 C27.8994964,33.1090987 27.8986347,33.1077056 27.8986347,33.1077056 C27.8986347,33.1077056 27.884094,33.138461 27.8589977,33.1904343 C27.6569352,33.5841458 27.5366239,33.8020052 27.5366239,33.8020052 C27.5366239,33.8020052 27.5379165,33.8050057 27.5401783,33.8101495 C27.379907,34.0992713 27.2081107,34.3678181 27.1230204,34.3678181 C27.0635649,34.3678181 26.9445462,33.5981839 27.1489783,32.5417855 C27.5774457,30.3273996 28.606823,26.874012 28.5965907,26.7550627 C28.5912052,26.6940877 28.7878823,26.0923757 27.9243772,25.7777495 C27.0849991,25.4721248 26.7861059,25.9818922 26.7095246,25.9834996 C26.6353129,25.985107 26.5801658,26.1636381 26.5801658,26.1636381 C26.5801658,26.1636381 27.5152975,22.2801041 24.7965006,22.2801041 C23.096741,22.2801041 20.7414628,24.1300337 19.5812188,25.8068974 C18.8490113,26.2042524 17.2821648,27.0552221 15.6197803,27.9639519 C14.9812798,28.3128699 14.3297466,28.6696106 13.7119263,29.0082411 C13.6699197,28.9619473 13.6280208,28.9155464 13.5848294,28.8696812 C10.2881724,25.3703213 4.19387533,22.8952113 4.45237753,18.1907128 C4.5464077,16.4804147 5.14397862,11.9770583 16.1626349,6.51439194 C25.18867,2.03954056 32.4144527,3.27093376 33.6632338,6.00001657 C35.4471144,9.8988747 29.8014263,17.145352 20.4278135,18.1907128 C16.8563901,18.5890322 14.9758944,17.2120065 14.5081131,16.6990242 C14.0157741,16.1591444 13.9423164,16.1348187 13.7584567,16.2360864 C13.459025,16.4012223 13.6488087,16.8778768 13.7584567,17.161962 C14.038393,17.8866955 15.1867891,19.1717766 17.1448355,19.8109952 C18.8673218,20.3733789 23.0604429,20.6823256 28.131179,18.7308069 C33.8106877,16.5451403 38.2455084,10.4650091 36.9428727,5.38276613 C35.6181567,0.213829494 27.003894,-1.48543096 18.8510577,1.39635703 C13.9988638,3.11137024 8.74620677,5.80316083 4.96948963,9.31773769 C0.478875593,13.4967161 -0.237175499,17.1338857 0.0578401358,18.6536506 C1.10628197,24.0536275 8.58722792,27.5701333 11.5829453,30.1763018 C11.4350605,30.2574231 11.2964387,30.3336149 11.1703111,30.4028413 C9.66841337,31.1420416 3.96585485,34.1111662 2.53946125,37.2483201 C0.92156061,40.8068332 2.79710178,43.3599568 4.03877401,43.703731 C7.8860407,44.7688095 11.8339078,42.8530827 13.9555646,39.7045697 C16.0767906,36.5568068 15.8177499,32.4580924 14.8441659,30.5871591 C14.8321025,30.5639051 14.8187466,30.5411868 14.80636,30.5181471 C15.1941133,30.2897859 15.5896217,30.0575668 15.9815756,29.8285626 C16.7459882,29.3820205 17.4962908,28.9653765 18.1475009,28.612815 C17.7832282,29.6060953 17.5163247,30.7966599 17.3774875,32.5160668 C17.2144157,34.5360617 18.0464697,37.1470525 19.1353025,38.174303 C19.6147163,38.6265246 20.1914994,38.6371336 20.5570646,38.6371336 C21.8240485,38.6371336 22.4022317,37.5884509 23.0386857,36.3481633 C23.81947,34.8270053 24.5121482,33.0561609 24.5121482,33.0561609 C24.5121482,33.0561609 23.6427191,37.8398518 26.0115687,37.8398518 C26.8746429,37.8398518 27.7428872,36.7263363 28.1295634,36.1585945 C28.1306405,36.1648099 28.131179,36.1681319 28.131179,36.1681319 C28.131179,36.1681319 28.1536902,36.1311611 28.1976356,36.0570054 C28.2872497,35.9206959 28.3379808,35.833895 28.3379808,35.833895 C28.3379808,35.833895 28.3397041,35.8248935 28.3425045,35.8092479 C28.689436,35.2098934 29.4589109,33.8434767 30.6129078,31.5901911 C32.1038193,28.6789337 33.533875,25.0319052 33.533875,25.0319052 C33.533875,25.0319052 33.6668959,25.9235963 34.1025798,27.3980319 C34.3589278,28.2656116 34.9035058,29.2246002 35.333158,30.1442605 C34.9873036,30.6216652 34.7746855,30.8958915 34.7746855,30.8958915 C34.7746855,30.8958915 34.776732,30.9009281 34.7805018,30.910144 C34.5041199,31.2751362 34.1942404,31.669062 33.8700355,32.0531289 C32.693312,33.4475148 31.2916915,35.0398281 31.1039543,35.4994439 C30.8829349,36.0409311 30.9351739,36.4392506 31.3624565,36.7596635 C31.6745979,36.9937043 32.2302699,37.0300321 32.8100688,36.9911325 C33.8675582,36.9204059 34.6116137,36.6594675 34.9786868,36.500547 C35.5509461,36.2991904 36.2173432,35.9825281 36.8428108,35.5251627 C37.9971309,34.6808369 38.6933634,33.4730193 38.626476,31.8730976 C38.589424,30.9913724 38.306795,30.1174701 37.949308,29.2924335 C38.0541091,29.1426216 38.1591256,28.9914167 38.2644652,28.8382829 C40.084213,26.1915001 41.4957427,23.2830289 41.4957427,23.2830289 C41.4957427,23.2830289 41.6287636,24.1746129 42.0645553,25.6491556 C42.2850361,26.3955357 42.7200738,27.2096419 43.1112737,28.0082096 C41.4002046,29.3914507 40.3390531,30.9986594 39.9705797,32.0531289 C39.2893187,34.0031474 39.8229104,34.8868014 40.8237447,35.0879436 C41.2770929,35.1791381 41.9173167,34.9724235 42.3989925,34.7695667 C42.9982867,34.5718537 43.7184308,34.2425463 44.3910751,33.7506748 C45.5453951,32.9063491 46.6552312,31.7240359 46.5883437,30.1242213 C46.5577543,29.3958444 46.3592462,28.6729326 46.0898653,27.9784187 C47.5402781,27.3773497 49.4181889,27.0431129 51.8100882,27.3209827 C56.9413568,27.9171223 57.9480075,31.1047494 57.7556388,32.4389105 C57.5631623,33.7731787 56.4868238,34.5064851 56.1269672,34.727988 C55.7672183,34.9493837 55.6573549,35.0262186 55.6876212,35.1909258 C55.7313511,35.4303247 55.8977619,35.4211088 56.2045179,35.3696713 C56.6269535,35.2987303 58.8990802,34.2844464 58.9963416,31.8217672 C59.1198841,28.6952222 56.1090875,25.2609094 50.7759717,25.2892 L50.7759717,25.2892 Z" id="Fill-1"></path>
                    </g>
                </g>
            </g>
        </g>
    </g>
</svg>