<?xml version="1.0" encoding="UTF-8"?>
<svg width="55px" height="51px" viewBox="0 0 55 51" version="1.1" xmlns="http://www.w3.org/2000/svg" xmlns:xlink="http://www.w3.org/1999/xlink">
    <!-- Generator: Sketch 41 (35326) - http://www.bohemiancoding.com/sketch -->
    <title>sketch</title>
    <desc>Created with Sketch.</desc>
    <defs></defs>
    <g id="Page-1" stroke="none" stroke-width="1" fill="none" fill-rule="evenodd">
        <g id="About-Myself" transform="translate(-1048.000000, -721.000000)" fill="#3C3C3C">
            <g id="what-I-use-?" transform="translate(880.000000, 454.000000)">
                <g id="tools" transform="translate(0.000000, 89.000000)">
                    <path d="M173.692803,197.945008 L182.366405,197.945008 L190.422383,217.926979 L173.692803,197.945008 Z M195.497649,221.142123 L186.125861,197.945008 L204.869436,197.945008 L195.497649,221.142123 Z M182.446965,194.098854 L173.155737,194.098854 L180.889476,182.560393 L187.92503,182.560393 L182.446965,194.098854 Z M200.572915,217.926979 L208.628892,197.945008 L217.302495,197.945008 L200.572915,217.926979 Z M186.340687,194.098854 L191.818752,182.560393 L199.176545,182.560393 L204.65461,194.098854 L186.340687,194.098854 Z M208.548333,194.098854 L203.070268,182.560393 L210.105822,182.560393 L217.83956,194.098854 L208.548333,194.098854 Z M212.334642,179.495489 C212.012403,178.984672 211.502191,178.714239 210.965126,178.714239 L180.030172,178.714239 C179.493106,178.714239 178.982895,178.984672 178.660655,179.495489 L168.349004,194.880104 C167.838792,195.601258 167.892499,196.652941 168.456417,197.344047 L194.235546,228.113277 C194.557785,228.503902 195.01429,228.714239 195.497649,228.714239 C195.981007,228.714239 196.437513,228.503902 196.759752,228.113277 L222.53888,197.344047 C223.102799,196.652941 223.156505,195.601258 222.646293,194.880104 L212.334642,179.495489 Z" id="sketch"></path>
                </g>
            </g>
        </g>
    </g>
</svg>