<?xml version="1.0" encoding="UTF-8"?>
<svg width="40px" height="46px" viewBox="0 0 40 46" version="1.1" xmlns="http://www.w3.org/2000/svg" xmlns:xlink="http://www.w3.org/1999/xlink">
    <!-- Generator: Sketch 41 (35326) - http://www.bohemiancoding.com/sketch -->
    <title>webpack</title>
    <desc>Created with Sketch.</desc>
    <defs></defs>
    <g id="Page-1" stroke="none" stroke-width="1" fill="none" fill-rule="evenodd">
        <g id="About-Myself" transform="translate(-1108.000000, -543.000000)">
            <g id="what-I-use-?" transform="translate(880.000000, 454.000000)">
                <g id="tools" transform="translate(0.000000, 89.000000)">
                    <g id="webpack" transform="translate(228.000000, 0.000000)">
                        <g id="icon-square-small">
                            <polygon id="Shape" fill="#4E4E4E" points="19.8857193 0 39.7714385 11.4980824 39.7714385 34.5019176 19.8857193 46 0 34.5019176 0 11.4980824"></polygon>
                            <path d="M36.4301887,33.9055938 L20.6641509,43.0319458 L20.6641509,35.9345292 L30.490566,30.4031729 L36.4301887,33.9055938 Z M37.509434,32.9104125 L37.509434,13.8399625 L31.7433962,17.2420937 L31.7433962,29.5082812 L37.509434,32.9104125 Z M3.50943396,33.9055938 L19.2754717,43.0242313 L19.2754717,35.9268146 L9.4490566,30.4031729 L3.50943396,33.9055938 L3.50943396,33.9055938 Z M2.43018868,32.9104125 L2.43018868,13.8399625 L8.19622642,17.2420937 L8.19622642,29.5082812 L2.43018868,32.9104125 L2.43018868,32.9104125 Z M3.10188679,12.6056292 L19.2754717,3.25555417 L19.2754717,10.1215333 L8.91320755,15.9460437 L8.83018868,15.9923312 L3.10188679,12.6056292 L3.10188679,12.6056292 Z M36.8301887,12.6056292 L20.6641509,3.25555417 L20.6641509,10.1215333 L31.0188679,15.9537583 L31.1018868,16.0000458 L36.8301887,12.6056292 L36.8301887,12.6056292 Z" id="Shape" fill="#E8E8E0"></path>
                            <path d="M19.2754717,34.3144667 L9.58490566,28.8602563 L9.58490566,18.0675542 L19.2754717,23.7840604 L19.2754717,34.3144667 L19.2754717,34.3144667 Z M20.6641509,34.3144667 L30.354717,28.8679708 L30.354717,18.0675542 L20.6641509,23.7840604 L20.6641509,34.3144667 Z M10.2339623,16.8177917 L19.9698113,11.3481521 L29.6981132,16.8177917 L19.9698113,22.5574417 L10.2339623,16.8177917 L10.2339623,16.8177917 Z" id="Shape" fill="#E8E8E0"></path>
                        </g>
                    </g>
                </g>
            </g>
        </g>
    </g>
</svg>