<?xml version="1.0" encoding="UTF-8"?>
<svg width="56px" height="56px" viewBox="0 0 56 56" version="1.1" xmlns="http://www.w3.org/2000/svg" xmlns:xlink="http://www.w3.org/1999/xlink">
    <!-- Generator: Sketch 41 (35326) - http://www.bohemiancoding.com/sketch -->
    <title>wordpress</title>
    <desc>Created with Sketch.</desc>
    <defs></defs>
    <g id="Page-1" stroke="none" stroke-width="1" fill="none" fill-rule="evenodd">
        <g id="About-Myself" transform="translate(-505.000000, -639.000000)" fill="#4E4E4E">
            <g id="what-I-do?" transform="translate(288.000000, 454.000000)">
                <g id="skills" transform="translate(0.000000, 87.000000)">
                    <g id="wordpress" transform="translate(214.000000, 95.000000)">
                        <path d="M6.97993843,30.9992314 C6.97993843,40.5071116 12.5049468,48.7235135 20.5170872,52.6172733 L9.05950238,21.2238762 C7.6860174,24.2996303 6.97737571,27.6307249 6.97993843,30.9992314 L6.97993843,30.9992314 Z M47.2143403,29.7870294 C47.2143403,26.8186716 46.1479874,24.7627595 45.2335941,23.1627406 C44.0159402,21.1841283 42.8747054,19.5085664 42.8747054,17.5299541 C42.8747054,15.3218578 44.5493363,13.2663848 46.908225,13.2663848 C47.0147285,13.2663848 47.1155226,13.279561 47.219391,13.2857098 C42.9460738,9.37042905 37.2526361,6.98006329 30.999451,6.98006329 C22.6080701,6.98006329 15.2255083,11.2855765 10.9306707,17.806872 C11.4941513,17.8237813 12.0251319,17.8354202 12.4763994,17.8354202 C14.9885654,17.8354202 18.8775915,17.5308325 18.8775915,17.5308325 C20.1725428,17.4544111 20.3251613,19.3561628 19.0317472,19.5094448 C19.0317472,19.5094448 17.7304276,19.6625073 16.2824187,19.7382699 L25.029763,45.7564734 L30.2862067,29.9912591 L26.54387,19.7376111 C25.2504559,19.6618485 24.0251162,19.508786 24.0251162,19.508786 C22.7308237,19.4328038 22.8825638,17.4537522 24.1768563,17.5301737 C24.1768563,17.5301737 28.143619,17.834981 30.5036057,17.834981 C33.0157716,17.834981 36.9050174,17.5301737 36.9050174,17.5301737 C38.2006274,17.4537522 38.3530263,19.355504 37.059173,19.508786 C37.059173,19.508786 35.7552183,19.6618485 34.3098445,19.7376111 L42.9902123,45.5586121 L45.385993,37.5523692 C46.4242378,34.2300133 47.2145599,31.84382 47.2145599,29.787249 L47.2143403,29.7870294 Z M31.4208537,33.1003816 L24.2141874,54.0422694 C26.4175187,54.6912247 28.7025432,55.0207625 30.999451,55.0208151 C33.7964316,55.0208151 36.4787836,54.5372519 38.9757975,53.6592839 C38.9091271,53.554232 38.8518824,53.4434869 38.8047331,53.3283439 L31.4208537,33.1003816 L31.4208537,33.1003816 Z M52.0755132,19.475187 C52.1787228,20.2402797 52.2373547,21.0615905 52.2373547,21.9450486 C52.2373547,24.3826287 51.7821344,27.1226006 50.4109837,30.5486085 L43.0740976,51.7621438 C50.2148854,47.5978346 55.0178656,39.8612626 55.0178656,30.9998902 C55.0183048,26.8237225 53.9515127,22.8965832 52.0752936,19.475187 L52.0755132,19.475187 Z M30.999451,3 C15.5608298,3 3,15.5603454 3,30.9992314 C3,46.4400938 15.5608298,59 30.999451,59 C46.4374135,59 59,46.4400938 59,30.9992314 C58.9997804,15.5603454 46.4376331,3 30.9996706,3 L30.999451,3 Z M30.999451,57.716647 C16.2690234,57.716647 4.28375194,45.7312191 4.28375194,30.9992314 C4.28375194,16.2683417 16.2683646,4.28379221 30.999451,4.28379221 C45.7294394,4.28379221 57.7136129,16.2683417 57.7136129,30.9992314 C57.7136129,45.7312191 45.7294394,57.716647 30.999451,57.716647 L30.999451,57.716647 Z" id="Shape"></path>
                    </g>
                </g>
            </g>
        </g>
    </g>
</svg>