<svg width="57" height="57" viewBox="0 0 57 57" xmlns="http://www.w3.org/2000/svg"><title>git</title><path d="M55.925 25.96L31.038 1.075a3.671 3.671 0 0 0-5.19 0l-5.169 5.168 6.556 6.555a4.358 4.358 0 0 1 5.52 5.558l6.319 6.318a4.366 4.366 0 0 1 4.513 7.213 4.368 4.368 0 0 1-7.13-4.75l-5.892-5.892V36.75a4.368 4.368 0 1 1-3.592-.127v-15.65a4.367 4.367 0 0 1-2.37-5.728L18.14 8.782 1.075 25.845a3.672 3.672 0 0 0 0 5.193l24.888 24.886a3.671 3.671 0 0 0 5.191 0l24.77-24.77a3.673 3.673 0 0 0 0-5.194" fill="#4E4E4E" fill-rule="evenodd"/></svg>