<svg width="41" height="58" viewBox="0 0 41 58" xmlns="http://www.w3.org/2000/svg"><title>html5</title><g fill="none" fill-rule="evenodd"><path fill="#464646" d="M3.731 53.302L0 11h41l-3.735 42.295L20.475 58z"/><path fill="#666664" d="M21 54l13.762-3.807L38 14H21z"/><path fill="#E8E8E0" d="M21 30.71h-6.86l-.474-5.419H21V20H8l.124 1.42L9.398 36H21zm0 12.932l-6.118-1.54-.39-4.102H9l.767 8.075L20.975 49z"/><path fill="#464646" d="M4 0h2.745v2.642h2.51V0H12v8H9.255V5.321h-2.51V8H4V0zm11.232 2.653H13V0h7v2.653h-2.233V8h-2.535V2.653zM21 0h2.786L25.5 2.811 27.213 0H30v8h-2.661V4.035L25.5 6.879h-.046l-1.84-2.844V8H21V0zm10 0h2.494v5.356H37V8h-6z"/><path fill="#E8E8E0" d="M20.007 30.696l-.033 5.296h6.44l-.614 6.196-4.827 1.453-.07 5.38 9.622-2.893 1.502-15.432zM20 20v5.308h12.519l.12-1.432.237-2.535L33 20z"/></g></svg>