<svg width="107" height="28" viewBox="0 0 107 28" xmlns="http://www.w3.org/2000/svg" xmlns:xlink="http://www.w3.org/1999/xlink"><title>jQuery</title><defs><path id="a" d="M.34 4.99h4.334V.242H.34V4.99z"/><path id="c" d="M.023.071v22.732h97.223V.07H.023z"/></defs><g fill="none" fill-rule="evenodd"><path d="M41.196 24.386a8.547 8.547 0 0 1-.055.737l.957-1.74-.105-.568.96-.147.35 2.41.442-1.51a1.87 1.87 0 0 0 .057-.37 1.439 1.439 0 0 0-.045-.39l1.005-.192c.037.206.06.384.054.568-.009.243-.07.509-.238.907l-.81 2.183h-1.197l-.252-1.63-.938 1.63h-1.162c.046-1.52-.009-2.47-.114-3.466l.998-.155a9.87 9.87 0 0 1 .093 1.733m6.237-.833c-.464.25-.636.346-1.057.604l-.448 2.117h-1.036l.732-3.503.916-.155-.04.487c.354-.207.638-.354.951-.487l-.018.937m.95-2.375l1.07-.147-.237 1.106-1.063.147.23-1.106zm-.335 1.585l1.07-.147-.773 3.658h-1.036l.739-3.51zm2.978.753l-.378 1.791c-.008.037-.017.074-.018.096-.002.052.027.074.1.074.177 0 .377-.074.564-.147l.18.722c-.3.163-.73.295-1.149.295-.521 0-.792-.25-.777-.678.002-.052.011-.103.02-.155l.423-1.998h-.53l.176-.834h.53l.176-.862 1.07-.148-.21 1.01h.851l-.234.834h-.794m3.119.103c.004-.126-.103-.207-.294-.207-.375 0-.492.214-.554.51l-.053.25c.178-.044.26-.06.475-.126.282-.08.418-.213.426-.427zm-1.885.346c.175-.826.561-1.356 1.693-1.356.675 0 1.18.295 1.158.9-.024.7-.395 1.024-1.286 1.29-.438.132-.446.132-.757.214l-.053.25c-.026.133-.016.25.175.25.375 0 .925-.183 1.417-.397l.173.737a3.627 3.627 0 0 1-1.766.494c-.742 0-1.046-.324-1.025-.936a2.41 2.41 0 0 1 .06-.435l.21-1.01zm5.524-2.75l1.07-.148-1.092 5.207h-1.035l1.057-5.06m3.09 2.405c.004-.126-.103-.207-.294-.207-.375 0-.493.214-.554.51l-.053.25c.178-.044.259-.06.475-.126.282-.08.418-.213.426-.427zm-1.885.346c.175-.826.561-1.356 1.692-1.356.676 0 1.18.295 1.16.9-.025.7-.396 1.024-1.287 1.29-.438.132-.446.132-.757.214l-.053.25c-.026.133-.016.25.175.25.375 0 .925-.183 1.417-.397l.173.737a3.629 3.629 0 0 1-1.766.494c-.742 0-1.047-.324-1.025-.936.004-.133.024-.28.059-.435l.212-1.01zm2.937 2.146l.225-.767c.268.096.574.185.963.185.345 0 .37-.103.406-.273.035-.162-.065-.25-.461-.465-.735-.398-.756-.663-.641-1.202.166-.774.401-.98 1.393-.98.338 0 .768.073 1.06.169l-.197.782a3.86 3.86 0 0 0-.9-.133c-.308 0-.353.037-.397.229-.035.17 0 .206.34.39.807.443.927.598.804 1.166-.175.81-.421 1.135-1.494 1.135-.33 0-.79-.096-1.101-.236" fill="#4E4E4E"/><g transform="translate(64.554 22.366)"><mask id="b" fill="#fff"><use xlink:href="#a"/></mask><path d="M.34 3.745l.225-.767c.268.096.574.184.963.184.345 0 .371-.103.406-.272.035-.163-.065-.251-.461-.465C.737 2.026.717 1.76.832 1.223c.166-.775.401-.98 1.393-.98.338 0 .769.073 1.06.168l-.197.783a3.863 3.863 0 0 0-.899-.133c-.308 0-.354.036-.398.228-.035.17 0 .207.34.39.807.443.927.599.804 1.166-.175.812-.421 1.136-1.494 1.136-.33 0-.79-.096-1.101-.236m2.838.965l.594-.803h-.39l.256-1.224h1.036l-.28 1.312-.852 1.018-.364-.302" fill="#4E4E4E" mask="url(#b)"/></g><path d="M72.448 25.197c-.043.192.005.28.189.28.367 0 .638-.192.842-.369l.335-1.6a2.216 2.216 0 0 0-.403-.03c-.536 0-.656.288-.734.635l-.229 1.084zm.947 1.077l-.019-.31c-.264.214-.637.383-1.152.383-.778 0-.953-.472-.785-1.275l.202-.966c.177-.856.42-1.497 1.926-1.497.11 0 .337.014.432.037l.3-1.431 1.062-.148-1.092 5.207h-.874zm4.27-2.39c.01-.265-.147-.405-.485-.405-.39 0-.625.199-.695.553l-.186.892c-.01.052-.018.103-.02.148-.008.258.148.405.486.405.397 0 .624-.2.695-.553l.185-.892a.931.931 0 0 0 .02-.148zm-2.432 1.261c.003-.08.014-.17.032-.25l.176-.834c.193-.922.66-1.452 1.909-1.452.962 0 1.376.553 1.354 1.194-.003.081-.013.17-.031.258l-.176.834c-.184.863-.616 1.452-1.917 1.452-.91 0-1.37-.545-1.347-1.202zm9.795-1.312c.009-.045.018-.081.019-.111.002-.074-.034-.103-.136-.103-.191 0-.646.192-.945.346l-.485 2.309h-1.028l.51-2.441c.01-.045.019-.081.019-.111.003-.074-.033-.103-.136-.103-.19 0-.653.192-.937.339l-.485 2.316h-1.036l.732-3.503.916-.155-.02.398c.567-.265 1.012-.405 1.424-.405.352 0 .53.154.602.42.555-.317 1.051-.42 1.462-.42.478 0 .645.272.629.73a2.17 2.17 0 0 1-.051.413l-.529 2.522h-1.036l.511-2.441m3.884.051c.01-.265-.147-.405-.486-.405-.389 0-.624.199-.694.553l-.186.892c-.01.052-.018.103-.02.148-.009.258.148.405.486.405.397 0 .623-.2.695-.553l.185-.892c.01-.052.018-.103.02-.148zm-2.432 1.261a1.47 1.47 0 0 1 .031-.25l.176-.834c.194-.922.66-1.452 1.91-1.452.962 0 1.376.553 1.354 1.194-.003.081-.014.17-.031.258l-.176.834c-.184.863-.616 1.452-1.917 1.452-.91 0-1.37-.545-1.347-1.202zm6.22-1.592c-.465.25-.637.346-1.057.604l-.448 2.117h-1.036l.732-3.503.915-.155-.039.487c.353-.207.638-.354.95-.487l-.017.937m2.12.066c.005-.126-.102-.207-.294-.207-.374 0-.492.214-.554.51l-.052.25c.178-.044.259-.06.474-.126.282-.08.419-.213.426-.427zm-1.885.346c.175-.826.562-1.356 1.693-1.356.676 0 1.18.295 1.159.9-.025.7-.396 1.024-1.287 1.29-.438.132-.445.132-.757.214l-.052.25c-.027.133-.016.25.174.25.375 0 .925-.183 1.418-.397l.172.737a3.627 3.627 0 0 1-1.765.494c-.742 0-1.047-.324-1.026-.936.005-.133.025-.28.06-.435l.211-1.01z" fill="#4E4E4E"/><g transform="translate(0 3.47)"><mask id="d" fill="#fff"><use xlink:href="#c"/></mask><path fill="#4E4E4E" mask="url(#d)" d="M96.21 21.579h1.036l-.255 1.224h-1.036l.255-1.224M1.256 1.81c-1.75 2.525-1.534 5.81-.194 8.492.03.066.064.128.097.191.019.041.04.082.063.123.01.022.026.046.039.068.021.044.044.084.067.126.043.073.086.147.13.219.024.04.047.08.074.12.046.079.099.155.146.233.022.033.042.066.065.098.068.105.138.209.214.311l.041.057c.065.088.13.175.196.26l.072.094.182.224.07.083a8.68 8.68 0 0 0 .521.575c.027.028.055.054.085.083.066.067.132.134.202.2l.085.081c.091.087.183.173.28.256.02.017.037.03.051.044.084.073.17.145.255.216.035.03.07.056.104.084.071.057.143.112.215.167l.113.086a12.692 12.692 0 0 0 .578.404l.1.066c.12.077.241.151.36.223.035.018.07.038.102.057.09.052.18.103.271.152.05.028.1.052.152.078.062.034.126.069.193.102.073.033.099.047.124.06.1.05.204.096.31.143.02.01.042.018.063.03.12.05.238.1.36.149.029.01.057.024.088.034a12.102 12.102 0 0 0 .759.266c.03.008.06.019.091.027.13.04.257.085.39.11 8.466 1.55 10.926-5.106 10.926-5.106-2.067 2.7-5.734 3.413-9.208 2.62-.129-.03-.256-.07-.387-.11a11.407 11.407 0 0 1-.468-.15 10.682 10.682 0 0 1-.38-.141c-.031-.014-.063-.024-.093-.036a9.545 9.545 0 0 1-.355-.15c-.026-.009-.048-.02-.072-.03l-.298-.14a5.924 5.924 0 0 1-.319-.16c-.053-.028-.104-.053-.155-.081-.093-.05-.186-.104-.28-.155a14.23 14.23 0 0 1-.81-.513l-.083-.06a14.322 14.322 0 0 1-.351-.258l-.22-.172a9.461 9.461 0 0 1-.37-.31c-.127-.112-.223-.2-.318-.288-.029-.028-.053-.053-.082-.079l-.205-.202-.082-.083a11.286 11.286 0 0 1-.524-.576l-.066-.08-.187-.229c-.02-.03-.043-.057-.066-.086a10.405 10.405 0 0 1-.214-.286C1.776 6.701 1.08 3.06 2.623.071"/></g><path d="M6.692 3.153c-1.27 1.828-1.199 4.276-.21 6.21.163.324.35.639.559.937.19.274.398.597.652.817.09.1.185.198.284.297l.075.074c.094.092.19.181.29.27l.011.01.003.002c.11.098.222.191.338.282l.08.06c.114.09.232.176.35.262.005 0 .008.004.013.006.052.037.107.072.163.108l.074.05a7.2 7.2 0 0 0 .263.162l.038.02c.075.046.154.09.233.13.027.017.054.03.081.045.055.027.11.056.163.084.006.004.017.008.025.012.112.056.225.106.337.158l.076.03c.092.04.185.079.277.114.042.014.08.03.12.044.084.03.17.06.255.088l.116.037c.12.038.242.087.37.107 6.534 1.088 8.046-3.963 8.046-3.963-1.361 1.967-3.996 2.904-6.807 2.172a5.73 5.73 0 0 1-.48-.144 5.415 5.415 0 0 1-.26-.09 2.798 2.798 0 0 1-.118-.043c-.093-.037-.186-.073-.277-.113a9.367 9.367 0 0 1-.417-.19l-.17-.088-.098-.05a4.526 4.526 0 0 1-.218-.124l-.052-.028c-.087-.053-.178-.106-.26-.162-.03-.016-.054-.035-.081-.052a8.142 8.142 0 0 1-.172-.113 8.84 8.84 0 0 1-.352-.259c-.027-.022-.053-.042-.078-.064-1.234-.974-2.21-2.307-2.67-3.816-.489-1.568-.38-3.327.46-4.754" fill="#4E4E4E"/><path d="M11.262 1.563c-.749 1.103-.82 2.472-.304 3.688.547 1.293 1.667 2.307 2.973 2.787.053.02.106.038.16.057l.074.023c.076.024.151.052.23.068 3.61.7 4.589-1.86 4.851-2.236-.86 1.24-2.3 1.537-4.069 1.106a5.665 5.665 0 0 1-.935-.344 5.347 5.347 0 0 1-.89-.547C11.767 4.961 10.786 2.663 11.82.791m83.091 5.937l.147.6c.041.172-.071.311-.252.311M83.52 5.697a43.02 43.02 0 0 0-.107.516l-1.25 5.867 1.315-6.18.043-.202M46.096 9.624l-.69 2.452.69-2.452" fill="#4E4E4E"/><g fill="#4E4E4E"><path d="M95.05 7.328l-.36-1.527c-.284-1.106-1.089-1.629-2.897-1.629h-7.606c-.175 0-.35.08-.386.252l-2.885 13.734c-.038.173-.049.297-.03.383.021.088.36.071.533.071h2.635c.176 0 .496.013.59-.024.097-.04.14-.302.175-.475l.931-4.816 1.138-5.341a.412.412 0 0 1 .384-.312l7.534-.005c.173 0 .284-.14.244-.31"/><path d="M105.767 1.76c-.177.003-3.341 0-3.341 0-.175 0-.4.19-.498.335l-5.865 8.659c-.1.145-.213.14-.252-.03l-.433-1.899a.415.415 0 0 0-.39-.312h-3.77c-.173 0-.277.145-.231.315l1.69 5.945a1.4 1.4 0 0 1 .009.619l-.788 3.01c-.042.171.066.223.244.223h3.722c.174 0 .355-.05.398-.222l.789-3.054c.043-.17.164-.402.269-.544l9.571-12.738c.108-.14.092-.307-.082-.307h-1.042"/></g><path d="M66.522 4.184H63.12c-.174 0-.352.061-.386.234l-1.124 5.28-1.12 5.055c-.036.172-.21.16-.385.16h-2.236c-2.211 0-1.956-1.402-1.501-3.504l1.418-6.99c.031-.173-.083-.235-.257-.235h-3.24c-.176 0-.35.062-.384.234l-1.304 6.985c-.65 3.778-.67 7.101 3.695 7.21.072.003 6.891 0 6.891 0 .177 0 .35-.057.388-.228l1.48-7.005 1.474-7.035s.052-.16-.007-.16m-33.885-.013H28.99c-.175 0-.351.042-.39.215l-.658 2.858c-.038.17.074.304.25.304h3.493c.176 0 .351-.16.388-.33l.634-2.88s.05-.167-.07-.167m-4.681 4.341a.418.418 0 0 0-.389.31l-.492 2.18-1.097 5.034s-.584 2.677-.64 2.844c0 0-.491 1.932-1.665 1.855-.547-.036-1.171-.162-1.171-.162H22.5c-.328-.1-.351.243-.391.413l-.725 3.137c-.042.172.07.326.244.328 0 0 1.57.222 2.68.222h.181c2.74 0 4.187-1.616 5.112-6.005l1.084-5.08 1.017-4.727c.037-.172-.066-.332-.241-.332m45.286 1.664c0 .19-.6.154-.6.154l-4.783-.035c-.165 0-.213-.232-.224-.399 0-.005.012-.199.026-.247.37-1.287 1.473-2.022 3.221-2.022 1.967 0 2.388.98 2.388 2.065M75.13 4.151c-6.136 0-7.6 3.806-8.415 7.578-.815 3.846-.745 6.886 5.603 6.886h5.808c.172-.003.344-.162.378-.332l.624-2.44c.036-.173-.08-.224-.253-.224h-5.71c-2.068 0-2.808-.639-2.736-2.074-.002-.164.185-.58.36-.58h8.794c.386-.002.399-.228.399-.228.895-4.056.953-8.586-4.852-8.586m-29.757 7.925l-.707 2.425c-.049.17-.248.284-.423.284h-3.648c-2.767 0-3.44-2.147-2.767-5.35.675-3.275 2.013-5.3 4.735-5.506 3.722-.281 4.484 2.356 3.582 5.389l-.772 2.758zm3.241 2.57s1.719-4.19 2.108-6.61c.534-3.24-1.081-7.94-7.326-7.94-6.207 0-8.9 4.487-9.931 9.364-1.027 4.912.317 9.19 6.49 9.155l9.422-.006a.442.442 0 0 0 .4-.31l.793-3.035c.043-.171-.064-.31-.24-.31l-.76-.007-.758-.003c-.149-.001-.235-.098-.215-.227a.213.213 0 0 1 .017-.071z" fill="#4E4E4E"/></g></svg>