<svg width="263" height="237" viewBox="0 0 263 237" xmlns="http://www.w3.org/2000/svg"><title>mainLogo</title><path d="M58.932 139.247l16.482-63.483 12.95 44.241 25.986-90.253 32.876 134.894 19.824-78.992 13.426 49.733 16.194-77.726 55.331-7.697-58.274 4.618-15.304 63.884-12.361-46.361-20.013 74.839L111.863.646l-23.5 110.123-14.37-48.246-18.176 72.864-48.816 9.68zm-19.39 90.928H36.3v-1.124h3.24v1.124zm9.684 2.868h-1.383v-9.952h6.175v1.223h-4.792v3.092h4.484v1.195h-4.484v4.442zm7.392-5.23a21.633 21.633 0 0 0-.056-1.433h1.243a13.302 13.302 0 0 1 .056 1.124h.042c.186-.393.459-.71.817-.948a2.13 2.13 0 0 1 1.208-.359c.205 0 .378.019.517.056l-.056 1.223a2.456 2.456 0 0 0-.6-.07 1.81 1.81 0 0 0-.824.176 1.685 1.685 0 0 0-.58.47 1.995 1.995 0 0 0-.342.682 2.896 2.896 0 0 0-.112.809v3.5h-1.313v-5.23zm13.007 1.884c0 .516-.09.989-.272 1.42a3.375 3.375 0 0 1-.755 1.117c-.321.314-.7.558-1.138.731-.438.174-.908.26-1.411.26s-.973-.086-1.411-.26a3.325 3.325 0 0 1-1.131-.73 3.43 3.43 0 0 1-.748-1.118 3.62 3.62 0 0 1-.272-1.42c0-.515.09-.986.272-1.413.182-.426.43-.794.748-1.103a3.38 3.38 0 0 1 1.131-.724c.438-.173.908-.26 1.41-.26.504 0 .974.087 1.412.26a3.338 3.338 0 0 1 1.893 1.827c.181.427.272.898.272 1.413zm-1.37 0c0-.318-.048-.623-.146-.914a2.318 2.318 0 0 0-.426-.766 2.048 2.048 0 0 0-.691-.527 2.163 2.163 0 0 0-.943-.196c-.354 0-.668.065-.943.196a2.048 2.048 0 0 0-.692.527c-.186.22-.328.476-.426.766a2.873 2.873 0 0 0-.146.914c0 .319.049.623.146.914.098.29.24.548.426.773.187.225.417.403.692.534.275.131.589.197.943.197s.668-.066.943-.197a2.02 2.02 0 0 0 .691-.534 2.4 2.4 0 0 0 .426-.773c.098-.29.147-.595.147-.914zm5.87-3.317a12.32 12.32 0 0 1 .056 1.096h.042c.083-.178.198-.344.342-.499a2.482 2.482 0 0 1 1.11-.681 2.46 2.46 0 0 1 .699-.099c.428 0 .796.073 1.103.218a2.236 2.236 0 0 1 1.223 1.44c.098.329.146.68.146 1.055v4.133h-1.313v-3.697c0-.272-.02-.53-.063-.773a1.869 1.869 0 0 0-.23-.647 1.253 1.253 0 0 0-.461-.45c-.196-.112-.447-.168-.754-.168-.522 0-.948.199-1.278.597-.331.398-.496.93-.496 1.595v3.543h-1.313v-5.23a21.633 21.633 0 0 0-.056-1.433h1.243zm11.68 1.082h-1.76v3.472c0 .403.074.691.223.865.15.173.387.26.713.26a1.92 1.92 0 0 0 .768-.169l.042 1.082a3.501 3.501 0 0 1-1.118.183c-.624 0-1.1-.173-1.431-.52-.331-.347-.496-.867-.496-1.56v-3.613h-1.271v-1.082h1.27v-1.912h1.3v1.912h1.76v1.082zm12.688 1.659a2.527 2.527 0 0 0-.133-.738 1.696 1.696 0 0 0-.35-.598 1.642 1.642 0 0 0-.572-.4 2.016 2.016 0 0 0-.803-.148 2.111 2.111 0 0 0-1.432.548c-.182.17-.33.368-.447.598-.116.23-.184.475-.203.738h3.94zm1.327.534v.225c0 .075-.005.15-.014.225h-5.253a2.09 2.09 0 0 0 .657 1.44 2.168 2.168 0 0 0 1.495.584c.447 0 .833-.099 1.16-.295.325-.197.581-.436.767-.717l.922.745c-.354.468-.77.813-1.25 1.033-.48.22-1.013.33-1.6.33a3.78 3.78 0 0 1-1.396-.253 3.225 3.225 0 0 1-1.104-.71 3.292 3.292 0 0 1-.726-1.103 3.742 3.742 0 0 1-.266-1.434c0-.515.087-.99.259-1.426.172-.436.412-.809.72-1.118.307-.31.67-.55 1.089-.724.419-.173.87-.26 1.355-.26.484 0 .924.08 1.32.24.396.158.731.388 1.006.688.274.3.486.663.635 1.09.15.426.224.906.224 1.44zm4.514-3.275a12.32 12.32 0 0 1 .056 1.096h.042c.083-.178.197-.344.342-.499a2.482 2.482 0 0 1 1.11-.681 2.46 2.46 0 0 1 .699-.099c.428 0 .796.073 1.103.218a2.236 2.236 0 0 1 1.223 1.44c.097.329.146.68.146 1.055v4.133h-1.313v-3.697c0-.272-.02-.53-.063-.773a1.869 1.869 0 0 0-.23-.647 1.253 1.253 0 0 0-.461-.45c-.196-.112-.447-.168-.754-.168-.522 0-.948.199-1.279.597-.33.398-.496.93-.496 1.595v3.543h-1.313v-5.23a21.635 21.635 0 0 0-.056-1.433h1.244zm13.72 5.608c-.252.403-.594.71-1.027.921a3.09 3.09 0 0 1-1.362.316 3.36 3.36 0 0 1-1.383-.274 3.097 3.097 0 0 1-1.048-.752 3.4 3.4 0 0 1-.67-1.124 3.964 3.964 0 0 1-.238-1.378c0-.487.08-.944.237-1.37.159-.427.385-.8.678-1.118a3.088 3.088 0 0 1 1.055-.745c.41-.178.861-.267 1.355-.267.54 0 1.01.115 1.41.345.4.23.718.508.95.836h.028v-4.962h1.313v10.627h-1.27v-1.055h-.029zm-4.36-2.29c0 .308.047.608.14.899a2.3 2.3 0 0 0 .42.773c.186.225.414.405.684.541.27.136.587.204.95.204a2.1 2.1 0 0 0 .915-.197 2.2 2.2 0 0 0 .705-.527c.196-.22.347-.476.454-.766.108-.29.161-.595.161-.914a2.62 2.62 0 0 0-.16-.913 2.467 2.467 0 0 0-.455-.774 2.096 2.096 0 0 0-1.62-.73c-.363 0-.68.065-.95.196-.27.131-.498.31-.684.534a2.3 2.3 0 0 0-.42.774c-.093.29-.14.59-.14.9zm19.715 2.29c-.251.403-.594.71-1.027.921-.433.21-.887.316-1.362.316a3.36 3.36 0 0 1-1.383-.274 3.097 3.097 0 0 1-1.047-.752 3.4 3.4 0 0 1-.67-1.124 3.964 3.964 0 0 1-.238-1.378c0-.487.079-.944.237-1.37.159-.427.384-.8.678-1.118a3.088 3.088 0 0 1 1.054-.745c.41-.178.862-.267 1.355-.267.54 0 1.01.115 1.411.345.4.23.717.508.95.836h.028v-4.962h1.313v10.627h-1.271v-1.055h-.028zm-4.358-2.29c0 .308.046.608.14.899a2.3 2.3 0 0 0 .419.773c.186.225.414.405.684.541.27.136.587.204.95.204a2.1 2.1 0 0 0 .915-.197 2.2 2.2 0 0 0 .705-.527c.196-.22.347-.476.454-.766.107-.29.16-.595.16-.914a2.62 2.62 0 0 0-.16-.913 2.467 2.467 0 0 0-.454-.774 2.096 2.096 0 0 0-1.62-.73c-.363 0-.68.065-.95.196-.27.131-.498.31-.684.534a2.3 2.3 0 0 0-.42.774c-.093.29-.14.59-.14.9zm14.292-.577a2.527 2.527 0 0 0-.133-.738 1.696 1.696 0 0 0-.349-.598 1.642 1.642 0 0 0-.573-.4 2.016 2.016 0 0 0-.803-.148 2.111 2.111 0 0 0-1.432.548c-.181.17-.33.368-.447.598a1.91 1.91 0 0 0-.202.738h3.939zm1.327.534v.225c0 .075-.005.15-.014.225h-5.252c.01.28.072.546.188.794.117.248.273.464.468.647a2.168 2.168 0 0 0 1.495.583c.447 0 .833-.099 1.16-.295.325-.197.581-.436.768-.717l.922.745a3.285 3.285 0 0 1-1.25 1.033c-.48.22-1.013.33-1.6.33a3.78 3.78 0 0 1-1.397-.253 3.225 3.225 0 0 1-1.103-.71 3.292 3.292 0 0 1-.727-1.103 3.742 3.742 0 0 1-.265-1.434c0-.515.086-.99.258-1.426.172-.436.412-.809.72-1.118.307-.31.67-.55 1.09-.724.418-.173.87-.26 1.354-.26.484 0 .924.08 1.32.24.396.158.731.388 1.006.688.275.3.487.663.636 1.09.149.426.223.906.223 1.44zm6.442 3.388h-1.425l-2.696-6.663h1.453l1.941 5.243h.028l1.956-5.243h1.397l-2.654 6.663zm10.269-3.922a2.527 2.527 0 0 0-.133-.738 1.696 1.696 0 0 0-.349-.598 1.642 1.642 0 0 0-.573-.4 2.016 2.016 0 0 0-.803-.148 2.111 2.111 0 0 0-1.432.548c-.181.17-.33.368-.447.598a1.91 1.91 0 0 0-.202.738h3.939zm1.327.534v.225c0 .075-.005.15-.014.225h-5.252c.009.28.072.546.188.794.117.248.273.464.468.647a2.168 2.168 0 0 0 1.495.583c.447 0 .833-.099 1.16-.295.325-.197.581-.436.768-.717l.922.745a3.285 3.285 0 0 1-1.25 1.033c-.48.22-1.013.33-1.6.33a3.78 3.78 0 0 1-1.397-.253 3.225 3.225 0 0 1-1.104-.71 3.292 3.292 0 0 1-.726-1.103 3.742 3.742 0 0 1-.265-1.434c0-.515.086-.99.258-1.426.172-.436.412-.809.72-1.118.307-.31.67-.55 1.089-.724.42-.173.87-.26 1.355-.26.484 0 .924.08 1.32.24.396.158.731.388 1.006.688.275.3.486.663.635 1.09.15.426.224.906.224 1.44zm4.668 3.388h-1.314v-10.627h1.314v10.627zm10.492-3.346c0 .516-.09.989-.272 1.42a3.375 3.375 0 0 1-.754 1.117 3.4 3.4 0 0 1-1.139.731c-.438.174-.908.26-1.41.26-.504 0-.974-.086-1.412-.26a3.325 3.325 0 0 1-1.131-.73 3.43 3.43 0 0 1-.748-1.118 3.62 3.62 0 0 1-.272-1.42c0-.515.09-.986.272-1.413a3.37 3.37 0 0 1 .748-1.103 3.38 3.38 0 0 1 1.131-.724c.438-.173.908-.26 1.411-.26s.973.087 1.411.26c.438.174.817.415 1.139.724.32.31.572.677.754 1.103.181.427.272.898.272 1.413zm-1.369 0c0-.318-.049-.623-.146-.914a2.318 2.318 0 0 0-.426-.766 2.048 2.048 0 0 0-.692-.527 2.163 2.163 0 0 0-.943-.196c-.354 0-.668.065-.943.196a2.048 2.048 0 0 0-.691.527c-.186.22-.328.476-.426.766a2.846 2.846 0 0 0-.147.914c0 .319.049.623.147.914.098.29.24.548.426.773.186.225.417.403.691.534.275.131.59.197.943.197.354 0 .668-.066.943-.197.275-.131.505-.31.692-.534a2.4 2.4 0 0 0 .426-.773c.097-.29.146-.595.146-.914zm5.995 6.719h-1.313V226.38h1.285v1.04h.042c.214-.356.528-.649.943-.878.414-.23.896-.345 1.446-.345.493 0 .943.09 1.348.267.405.178.754.427 1.047.745.294.319.52.691.678 1.118.158.426.237.883.237 1.37 0 .487-.079.947-.237 1.378a3.4 3.4 0 0 1-.67 1.124c-.29.319-.639.57-1.048.752a3.36 3.36 0 0 1-1.383.274 3 3 0 0 1-1.341-.309 2.432 2.432 0 0 1-.992-.871h-.042v4.371zm4.358-6.719c0-.31-.046-.609-.14-.9a2.3 2.3 0 0 0-.419-.773 2.008 2.008 0 0 0-.691-.534 2.197 2.197 0 0 0-.957-.196 2.096 2.096 0 0 0-1.62.73 2.467 2.467 0 0 0-.454.774 2.62 2.62 0 0 0-.16.913c0 .319.053.623.16.914.107.29.258.546.454.766.195.22.43.396.705.527a2.1 2.1 0 0 0 .915.197c.363 0 .682-.068.957-.204.275-.136.505-.316.691-.541a2.3 2.3 0 0 0 .42-.773c.093-.29.14-.59.14-.9zm9.53-.576a2.527 2.527 0 0 0-.134-.738 1.696 1.696 0 0 0-.349-.598 1.642 1.642 0 0 0-.573-.4 2.016 2.016 0 0 0-.803-.148 2.111 2.111 0 0 0-1.432.548c-.181.17-.33.368-.447.598a1.91 1.91 0 0 0-.202.738h3.94zm1.326.534v.225c0 .075-.005.15-.014.225h-5.252c.01.28.072.546.188.794.117.248.273.464.468.647a2.168 2.168 0 0 0 1.495.583c.447 0 .834-.099 1.16-.295.325-.197.582-.436.768-.717l.922.745c-.354.468-.77.813-1.25 1.033-.48.22-1.013.33-1.6.33a3.78 3.78 0 0 1-1.397-.253 3.225 3.225 0 0 1-1.103-.71 3.292 3.292 0 0 1-.727-1.103 3.742 3.742 0 0 1-.265-1.434c0-.515.086-.99.258-1.426.173-.436.412-.809.72-1.118.307-.31.67-.55 1.09-.724.418-.173.87-.26 1.354-.26.484 0 .924.08 1.32.24.396.158.731.388 1.006.688.275.3.487.663.636 1.09.149.426.223.906.223 1.44zm3.327-1.841a21.635 21.635 0 0 0-.056-1.434h1.243a13.302 13.302 0 0 1 .056 1.124h.042c.186-.393.459-.71.817-.948a2.13 2.13 0 0 1 1.208-.359c.205 0 .378.019.517.056l-.056 1.223a2.456 2.456 0 0 0-.6-.07 1.81 1.81 0 0 0-.824.176 1.685 1.685 0 0 0-.58.47 1.995 1.995 0 0 0-.342.682 2.896 2.896 0 0 0-.112.809v3.5h-1.313v-5.23zm14.266 2.361h-3.24v-1.124h3.24v1.124zM11.27 205.29h.06l6.122-16.086h4.512v20.936h-2.9v-17.506h-.06L12.12 210.14h-1.846L3.42 192.634h-.06v17.506H.548v-20.936H5.06l6.21 16.086zm17.106 4.85h-3.223l8.994-20.936h2.637l8.906 20.936h-3.281l-2.11-5.145h-9.843l-2.08 5.145zm3.105-7.718h7.764l-3.867-9.817-3.897 9.817zm27.71-9.344c-.41-.572-.966-1.04-1.67-1.405-.702-.364-1.493-.547-2.372-.547-.47 0-.943.064-1.421.193a3.891 3.891 0 0 0-1.304.62c-.39.286-.708.641-.952 1.065-.244.424-.366.931-.366 1.523 0 .572.112 1.05.337 1.434.224.384.527.71.908.976.38.266.83.493 1.347.68.518.187 1.07.38 1.656.577a33.78 33.78 0 0 1 2.138.739c.723.276 1.377.64 1.963 1.094a5.375 5.375 0 0 1 1.436 1.7c.37.68.556 1.543.556 2.587 0 1.085-.2 2.026-.6 2.824a5.772 5.772 0 0 1-1.597 1.982 6.777 6.777 0 0 1-2.3 1.168 9.429 9.429 0 0 1-2.68.384 9.707 9.707 0 0 1-3.794-.769 7.537 7.537 0 0 1-3.032-2.277l2.255-1.922a5.538 5.538 0 0 0 1.963 1.774c.82.454 1.71.68 2.666.68.489 0 .977-.068 1.465-.206a4.102 4.102 0 0 0 1.333-.651c.4-.296.728-.665.982-1.109.253-.443.38-.98.38-1.611s-.131-1.159-.395-1.582a3.506 3.506 0 0 0-1.07-1.08 7.045 7.045 0 0 0-1.567-.754 96.221 96.221 0 0 0-1.89-.635 16.233 16.233 0 0 1-1.962-.725 6.797 6.797 0 0 1-1.729-1.094 5.052 5.052 0 0 1-1.23-1.641c-.313-.65-.469-1.459-.469-2.425 0-1.045.21-1.942.63-2.69a5.79 5.79 0 0 1 1.64-1.864 6.801 6.801 0 0 1 2.286-1.079 9.904 9.904 0 0 1 2.563-.34c1.211 0 2.344.217 3.398.65 1.055.434 1.905 1.016 2.55 1.745l-2.051 2.01zm7.73 17.062H63.7l8.994-20.936h2.637l8.906 20.936h-3.281l-2.11-5.145h-9.843l-2.08 5.145zm3.106-7.718h7.764l-3.867-9.817-3.897 9.817zm23.726 7.718h-2.93v-9.049l-7.763-11.887h3.574l5.742 9.463 5.772-9.463h3.369l-7.764 11.887v9.049zm18.629.532c-1.367 0-2.559-.232-3.574-.695-1.016-.463-1.856-1.08-2.52-1.848a7.569 7.569 0 0 1-1.48-2.647 9.97 9.97 0 0 1-.483-3.09v-13.188h2.9v13.011c0 .71.088 1.414.264 2.114.176.7.464 1.326.864 1.878.4.552.928.995 1.582 1.33.655.336 1.47.503 2.447.503.957 0 1.767-.167 2.431-.502a4.354 4.354 0 0 0 1.597-1.331c.4-.552.688-1.178.864-1.878.176-.7.264-1.404.264-2.114v-13.01h2.9v13.187a9.97 9.97 0 0 1-.483 3.09 7.569 7.569 0 0 1-1.48 2.647c-.664.769-1.503 1.385-2.52 1.848-1.015.463-2.206.695-3.573.695zm16.372-12.242h.059l9.258-9.226h4.013l-10.078 9.58L142.7 210.14h-4.16l-9.727-10.823h-.059v10.823h-2.9v-20.936h2.9v9.226zm19.83 11.71h-2.9v-20.936h2.9v20.936zm23.722-17.062c-.41-.572-.967-1.04-1.67-1.405-.703-.364-1.494-.547-2.373-.547a5.43 5.43 0 0 0-1.42.193 3.891 3.891 0 0 0-1.305.62c-.39.286-.708.641-.952 1.065-.244.424-.366.931-.366 1.523 0 .572.112 1.05.337 1.434.225.384.527.71.908.976s.83.493 1.348.68c.517.187 1.07.38 1.655.577.703.216 1.416.463 2.139.739.722.276 1.377.64 1.963 1.094a5.375 5.375 0 0 1 1.435 1.7c.371.68.557 1.543.557 2.587 0 1.085-.2 2.026-.6 2.824a5.772 5.772 0 0 1-1.597 1.982 6.777 6.777 0 0 1-2.3 1.168 9.429 9.429 0 0 1-2.68.384 9.707 9.707 0 0 1-3.795-.769 7.537 7.537 0 0 1-3.032-2.277l2.256-1.922c.488.73 1.142 1.321 1.963 1.774.82.454 1.709.68 2.666.68a5.37 5.37 0 0 0 1.465-.206 4.102 4.102 0 0 0 1.333-.651c.4-.296.727-.665.981-1.109.254-.443.38-.98.38-1.611s-.131-1.159-.395-1.582a3.506 3.506 0 0 0-1.069-1.08 7.045 7.045 0 0 0-1.567-.754c-.596-.207-1.226-.419-1.89-.635a16.233 16.233 0 0 1-1.963-.725 6.797 6.797 0 0 1-1.728-1.094 5.052 5.052 0 0 1-1.23-1.641c-.313-.65-.47-1.459-.47-2.425 0-1.045.21-1.942.63-2.69a5.79 5.79 0 0 1 1.64-1.864 6.801 6.801 0 0 1 2.286-1.079 9.904 9.904 0 0 1 2.563-.34c1.211 0 2.344.217 3.399.65 1.055.434 1.904 1.016 2.549 1.745l-2.051 2.01zm14.79 17.594c-1.367 0-2.558-.232-3.574-.695-1.015-.463-1.855-1.08-2.52-1.848a7.569 7.569 0 0 1-1.479-2.647 9.97 9.97 0 0 1-.483-3.09v-13.188h2.9v13.011c0 .71.088 1.414.264 2.114.176.7.464 1.326.864 1.878.4.552.928.995 1.582 1.33.655.336 1.47.503 2.447.503.957 0 1.767-.167 2.431-.502a4.354 4.354 0 0 0 1.597-1.331c.4-.552.688-1.178.864-1.878.176-.7.264-1.404.264-2.114v-13.01h2.9v13.187a9.97 9.97 0 0 1-.483 3.09 7.569 7.569 0 0 1-1.48 2.647c-.664.769-1.504 1.385-2.52 1.848-1.015.463-2.206.695-3.573.695zm27.154-18.895l-11.718 15.76h11.894v2.603h-15.41v-2.573l11.69-15.79H199.25v-2.573h15v2.573zm12.096 18.895c-1.367 0-2.559-.232-3.574-.695-1.016-.463-1.856-1.08-2.52-1.848a7.569 7.569 0 0 1-1.48-2.647 9.97 9.97 0 0 1-.483-3.09v-13.188h2.9v13.011c0 .71.088 1.414.264 2.114.176.7.464 1.326.864 1.878.4.552.928.995 1.582 1.33.655.336 1.47.503 2.447.503.957 0 1.767-.167 2.431-.502a4.354 4.354 0 0 0 1.597-1.331c.4-.552.688-1.178.864-1.878.176-.7.264-1.404.264-2.114v-13.01h2.9v13.187a9.97 9.97 0 0 1-.483 3.09 7.569 7.569 0 0 1-1.48 2.647c-.664.769-1.503 1.385-2.52 1.848-1.015.463-2.206.695-3.573.695zm16.372-12.242h.059l9.258-9.226h4.013l-10.078 9.58 10.694 11.356h-4.16l-9.727-10.823h-.059v10.823h-2.9v-20.936h2.9v9.226zm19.83 11.71h-2.9v-20.936h2.9v20.936z" fill="#3C3C3C" fill-rule="evenodd"/></svg>