<svg width="262" height="254" viewBox="0 0 262 254" xmlns="http://www.w3.org/2000/svg"><title>mainLogo</title><path d="M83.534 242.302h1.443l2.704 7.488h.026l2.808-7.488h1.365l-3.627 9.204h-1.17l-3.549-9.204zm9.313 3.796c.33-.304.71-.531 1.144-.683a3.913 3.913 0 0 1 1.3-.227c.45 0 .838.056 1.163.169.325.112.592.264.8.455.208.19.362.41.461.656.1.247.15.505.15.774v3.146a9.796 9.796 0 0 0 .052 1.118h-1.04a11.266 11.266 0 0 1-.039-.936h-.026c-.26.398-.568.68-.923.845a2.918 2.918 0 0 1-1.235.247 2.87 2.87 0 0 1-.819-.117 1.999 1.999 0 0 1-.683-.351 1.676 1.676 0 0 1-.461-.579 1.794 1.794 0 0 1-.169-.8c0-.398.089-.732.266-1 .178-.27.42-.488.728-.657a3.53 3.53 0 0 1 1.08-.364 7.49 7.49 0 0 1 1.319-.11h.858v-.26a1.283 1.283 0 0 0-.819-1.19 1.729 1.729 0 0 0-.65-.11 2.397 2.397 0 0 0-1.053.227c-.139.065-.264.14-.377.228a33.52 33.52 0 0 1-.325.247l-.702-.728zm3.302 2.444c-.277 0-.561.015-.852.045-.29.03-.554.089-.793.176a1.53 1.53 0 0 0-.585.364.822.822 0 0 0-.227.598c0 .355.12.61.357.767.239.156.562.234.969.234.32 0 .594-.055.819-.163a1.54 1.54 0 0 0 .546-.422c.139-.174.238-.367.299-.579.06-.212.091-.422.091-.63v-.39h-.624zm4.269-3.198h1.17v.949h.026c.147-.33.403-.596.767-.8a2.539 2.539 0 0 1 1.261-.305c.295 0 .578.045.851.136.273.091.512.232.715.423.204.19.367.435.488.734.121.3.182.652.182 1.06v3.965h-1.17v-3.64a2.06 2.06 0 0 0-.117-.735 1.342 1.342 0 0 0-.312-.494 1.17 1.17 0 0 0-.449-.273 1.654 1.654 0 0 0-.526-.084 1.91 1.91 0 0 0-.676.117c-.208.078-.39.201-.546.37a1.749 1.749 0 0 0-.364.644c-.087.26-.13.567-.13.923v3.172h-1.17v-6.162zm12.485 1.638a2.456 2.456 0 0 0-.683-.514 1.914 1.914 0 0 0-.851-.175c-.32 0-.6.058-.839.175a1.708 1.708 0 0 0-.598.481 2.19 2.19 0 0 0-.364.702 2.76 2.76 0 0 0-.123.826c0 .286.048.556.143.812.095.256.23.479.403.67.173.19.381.34.624.448.243.108.516.163.819.163.33 0 .611-.059.845-.176.234-.117.45-.288.65-.513l.832.832c-.303.338-.657.58-1.06.728a3.7 3.7 0 0 1-1.28.22c-.477 0-.912-.077-1.307-.233a2.902 2.902 0 0 1-1.683-1.67 3.522 3.522 0 0 1-.234-1.307c0-.477.078-.915.234-1.313a3 3 0 0 1 .656-1.027c.282-.286.62-.51 1.014-.67.395-.16.835-.24 1.32-.24.45 0 .882.08 1.293.24.412.16.77.405 1.073.735l-.884.806zm3.658 1.443c0 .312.048.6.143.864.095.264.23.49.403.676.173.186.386.334.637.442.251.108.533.163.845.163.312 0 .594-.055.845-.163.251-.108.464-.256.637-.442a1.95 1.95 0 0 0 .403-.676 2.53 2.53 0 0 0 .143-.864c0-.312-.048-.6-.143-.865a1.95 1.95 0 0 0-.403-.676 1.866 1.866 0 0 0-.637-.442 2.114 2.114 0 0 0-.845-.162c-.312 0-.594.054-.845.162a1.866 1.866 0 0 0-.637.442 1.95 1.95 0 0 0-.403.676 2.53 2.53 0 0 0-.143.865zm-1.248 0c0-.451.084-.871.253-1.261a3.245 3.245 0 0 1 1.736-1.722 3.263 3.263 0 0 1 1.287-.254 3.263 3.263 0 0 1 3.022 1.976c.17.39.254.81.254 1.26 0 .451-.085.874-.254 1.268-.169.394-.4.737-.695 1.027a3.3 3.3 0 0 1-2.327.943 3.3 3.3 0 0 1-2.327-.942 3.189 3.189 0 0 1-.696-1.028 3.183 3.183 0 0 1-.253-1.267zm14.331 3.08h-1.17v-.948h-.026c-.147.329-.403.595-.767.8a2.539 2.539 0 0 1-1.261.305c-.303 0-.59-.046-.858-.137a1.93 1.93 0 0 1-.709-.422 2.037 2.037 0 0 1-.487-.735 2.809 2.809 0 0 1-.182-1.06v-3.964h1.17v3.64c0 .286.039.53.117.734.078.204.182.368.312.494s.28.217.448.273c.17.056.345.085.527.085.243 0 .468-.04.676-.117.208-.078.39-.202.546-.37.156-.17.277-.384.364-.644.087-.26.13-.568.13-.923v-3.172h1.17v6.162zm1.877-6.161h1.352l1.846 4.719 1.768-4.72h1.248l-2.418 6.163h-1.287l-2.509-6.162zm8.975 3.51c0 .268.058.513.175.734.117.221.271.41.462.566.19.156.412.277.663.364.251.086.511.13.78.13.364 0 .68-.085.949-.254.269-.169.516-.392.741-.67l.884.677c-.65.84-1.56 1.26-2.73 1.26-.485 0-.925-.082-1.32-.246a2.873 2.873 0 0 1-1.631-1.71 3.63 3.63 0 0 1-.221-1.28c0-.46.08-.887.24-1.28.16-.395.382-.738.663-1.028.282-.29.618-.518 1.008-.682.39-.165.815-.247 1.274-.247.546 0 1.007.095 1.384.286.377.19.687.44.93.747.243.308.418.654.526 1.04.109.386.163.778.163 1.177v.416h-4.94zm3.692-.936a2.468 2.468 0 0 0-.124-.715 1.573 1.573 0 0 0-.331-.566 1.527 1.527 0 0 0-.553-.377 2.021 2.021 0 0 0-.773-.136 1.916 1.916 0 0 0-1.775 1.163 1.591 1.591 0 0 0-.136.63h3.692zm3.502-2.574h1.17v.949h.026a1.67 1.67 0 0 1 .312-.449c.13-.134.275-.25.435-.344a2.3 2.3 0 0 1 .527-.228 2.01 2.01 0 0 1 .572-.084c.19 0 .364.026.52.078l-.052 1.26a3.394 3.394 0 0 0-.286-.064 1.596 1.596 0 0 0-.286-.026c-.572 0-1.01.16-1.313.48-.303.321-.455.82-.455 1.496v3.094h-1.17v-6.162zm5.27 7.878h-1.066l.897-3.198h1.261l-1.092 3.198zm8.421-10.92h3.198c.399 0 .77.047 1.111.143.343.095.637.236.884.422s.442.425.585.715c.143.29.215.63.215 1.02 0 .53-.147.96-.442 1.294a2.577 2.577 0 0 1-1.144.735v.026c.277.017.537.088.78.214s.453.29.63.494a2.366 2.366 0 0 1 .579 1.58c0 .416-.085.782-.254 1.098-.169.316-.4.583-.695.8a3.229 3.229 0 0 1-1.027.494c-.39.112-.81.169-1.261.169h-3.159v-9.204zm1.248 3.822h1.703c.234 0 .455-.024.663-.072.208-.048.39-.128.546-.24.156-.113.28-.256.37-.43.091-.173.137-.385.137-.636 0-.364-.117-.68-.351-.95-.234-.268-.602-.402-1.105-.402h-1.963v2.73zm0 4.29h1.833c.19 0 .4-.02.63-.059.23-.039.445-.117.644-.234a1.6 1.6 0 0 0 .507-.474c.139-.2.208-.464.208-.793 0-.546-.178-.956-.533-1.229-.355-.273-.836-.41-1.443-.41h-1.846v3.199zm14.201-6.123a2.574 2.574 0 0 0-.988-.78 2.943 2.943 0 0 0-1.235-.273c-.52 0-.99.097-1.41.292-.42.195-.78.462-1.08.8-.299.338-.53.734-.695 1.19a4.265 4.265 0 0 0-.247 1.462c0 .485.078.944.234 1.378.156.433.381.814.676 1.144.295.329.654.589 1.079.78a3.5 3.5 0 0 0 1.443.286c.529 0 .992-.109 1.391-.325.399-.217.737-.52 1.014-.91l1.053.793a4.21 4.21 0 0 1-.364.41 3.66 3.66 0 0 1-.689.532 4.89 4.89 0 0 1-1.034.468 4.419 4.419 0 0 1-1.397.202c-.728 0-1.385-.14-1.97-.416a4.761 4.761 0 0 1-1.495-1.092 4.765 4.765 0 0 1-.942-1.528 4.796 4.796 0 0 1-.325-1.722c0-.711.117-1.368.351-1.97a4.659 4.659 0 0 1 .981-1.56c.42-.438.926-.778 1.515-1.02a5.074 5.074 0 0 1 1.95-.364 4.79 4.79 0 0 1 1.787.35 3.337 3.337 0 0 1 1.437 1.08l-1.04.793zM60.432 139.106l16.482-63.482 12.95 44.24 25.986-90.253 32.876 134.895 19.824-78.993 13.426 49.733L198.17 57.52l55.331-7.697-58.274 4.618-15.304 63.884-12.361-46.36-20.013 74.838L113.363.506l-23.5 110.122-14.37-48.246-18.176 72.864-48.816 9.68zm-15.69 91.159H41.5v-1.125h3.24v1.125zm9.684 2.867h-1.383v-9.952h6.175v1.223h-4.792v3.093h4.484v1.194h-4.484v4.442zm7.392-5.229a21.633 21.633 0 0 0-.056-1.434h1.243a13.302 13.302 0 0 1 .056 1.124h.042c.186-.393.459-.709.817-.948a2.13 2.13 0 0 1 1.208-.358c.205 0 .378.018.517.056l-.056 1.223a2.456 2.456 0 0 0-.6-.07 1.81 1.81 0 0 0-.824.175 1.685 1.685 0 0 0-.58.471 1.995 1.995 0 0 0-.342.682 2.896 2.896 0 0 0-.112.808v3.5h-1.313v-5.229zm13.007 1.884c0 .515-.09.988-.272 1.42a3.375 3.375 0 0 1-.755 1.117c-.321.314-.7.557-1.138.73-.438.174-.908.26-1.411.26s-.973-.086-1.411-.26a3.325 3.325 0 0 1-1.131-.73 3.43 3.43 0 0 1-.748-1.118 3.62 3.62 0 0 1-.272-1.42c0-.515.09-.986.272-1.412.182-.426.43-.794.748-1.103a3.38 3.38 0 0 1 1.131-.724c.438-.174.908-.26 1.41-.26.504 0 .974.086 1.412.26.437.173.817.414 1.138.724.321.309.573.677.755 1.103.181.426.272.897.272 1.413zm-1.37 0a2.84 2.84 0 0 0-.146-.914 2.318 2.318 0 0 0-.426-.766 2.048 2.048 0 0 0-.691-.527 2.163 2.163 0 0 0-.943-.197c-.354 0-.668.066-.943.197a2.048 2.048 0 0 0-.692.527c-.186.22-.328.476-.426.766-.097.29-.146.595-.146.914 0 .318.049.623.146.913.098.29.24.549.426.773.187.225.417.403.692.535.275.13.589.196.943.196s.668-.065.943-.196c.274-.132.505-.31.691-.535a2.4 2.4 0 0 0 .426-.773c.098-.29.147-.595.147-.913zm5.87-3.318a12.32 12.32 0 0 1 .056 1.096h.042c.083-.177.198-.344.342-.498a2.482 2.482 0 0 1 1.11-.682c.224-.065.457-.098.699-.098.428 0 .796.072 1.103.218a2.236 2.236 0 0 1 1.223 1.44c.098.328.146.68.146 1.055v4.132h-1.313v-3.697c0-.271-.02-.53-.063-.773a1.869 1.869 0 0 0-.23-.646 1.253 1.253 0 0 0-.461-.45c-.196-.113-.447-.169-.754-.169-.522 0-.948.2-1.278.598-.331.398-.496.93-.496 1.595v3.542h-1.313v-5.229a21.633 21.633 0 0 0-.056-1.434h1.243zm11.68 1.083h-1.76v3.472c0 .403.074.69.223.864.15.173.387.26.713.26.12 0 .251-.014.39-.042.14-.028.266-.07.378-.127l.042 1.083a3.501 3.501 0 0 1-1.118.183c-.624 0-1.1-.174-1.431-.52-.331-.347-.496-.867-.496-1.56v-3.613h-1.271v-1.083h1.27v-1.911h1.3v1.911h1.76v1.083zm12.688 1.658a2.527 2.527 0 0 0-.133-.738 1.696 1.696 0 0 0-.35-.597 1.642 1.642 0 0 0-.572-.4 2.016 2.016 0 0 0-.803-.148 2.111 2.111 0 0 0-1.432.548c-.182.169-.33.368-.447.597-.116.23-.184.476-.203.738h3.94zm1.327.535v.224c0 .075-.005.15-.014.225h-5.253a2.09 2.09 0 0 0 .657 1.44 2.168 2.168 0 0 0 1.495.584c.447 0 .833-.098 1.16-.295.325-.197.581-.435.767-.717l.922.745a3.28 3.28 0 0 1-1.25 1.034c-.48.22-1.013.33-1.6.33a3.78 3.78 0 0 1-1.396-.253 3.225 3.225 0 0 1-1.104-.71 3.292 3.292 0 0 1-.726-1.103 3.742 3.742 0 0 1-.266-1.434c0-.516.087-.991.259-1.427.172-.436.412-.808.72-1.117.307-.31.67-.55 1.089-.724.419-.174.87-.26 1.355-.26.484 0 .924.08 1.32.239.396.159.73.389 1.006.688.274.3.486.663.635 1.09.15.426.224.906.224 1.44zm4.514-3.276a12.321 12.321 0 0 1 .056 1.096h.042c.083-.177.197-.344.342-.498a2.482 2.482 0 0 1 1.11-.682c.224-.065.457-.098.699-.098.428 0 .796.072 1.103.218a2.236 2.236 0 0 1 1.223 1.44c.097.328.146.68.146 1.055v4.132h-1.313v-3.697c0-.271-.02-.53-.063-.773a1.869 1.869 0 0 0-.23-.646 1.253 1.253 0 0 0-.461-.45c-.196-.113-.447-.169-.755-.169-.521 0-.947.2-1.278.598-.33.398-.496.93-.496 1.595v3.542h-1.313v-5.229a21.635 21.635 0 0 0-.056-1.434h1.244zm13.72 5.609c-.252.403-.594.71-1.027.92a3.078 3.078 0 0 1-1.362.317 3.36 3.36 0 0 1-1.383-.274 3.097 3.097 0 0 1-1.048-.752 3.4 3.4 0 0 1-.67-1.125 3.964 3.964 0 0 1-.238-1.377c0-.488.08-.944.237-1.37.159-.427.385-.8.678-1.118a3.088 3.088 0 0 1 1.055-.745c.41-.178.861-.267 1.355-.267.54 0 1.01.115 1.41.344.4.23.717.508.95.836h.028v-4.961h1.313v10.626h-1.27v-1.054h-.029zm-4.36-2.291c0 .309.047.609.14.9a2.3 2.3 0 0 0 .42.772c.186.225.414.406.684.542a2.1 2.1 0 0 0 .95.203 2.1 2.1 0 0 0 .915-.196 2.2 2.2 0 0 0 .705-.528c.196-.22.347-.475.454-.766.108-.29.161-.595.161-.913a2.62 2.62 0 0 0-.16-.914 2.467 2.467 0 0 0-.455-.773 2.096 2.096 0 0 0-1.62-.73c-.363 0-.68.065-.95.196-.27.131-.498.31-.684.534a2.3 2.3 0 0 0-.42.773c-.093.29-.14.59-.14.9zm19.715 2.29a2.45 2.45 0 0 1-1.027.922c-.433.21-.887.316-1.362.316a3.36 3.36 0 0 1-1.383-.274 3.097 3.097 0 0 1-1.047-.752 3.4 3.4 0 0 1-.67-1.125 3.964 3.964 0 0 1-.238-1.377c0-.488.079-.944.237-1.37.159-.427.384-.8.678-1.118a3.088 3.088 0 0 1 1.054-.745c.41-.178.862-.267 1.355-.267.54 0 1.01.115 1.411.344.4.23.717.508.95.836h.028v-4.961h1.313v10.626h-1.271v-1.054h-.028zm-4.358-2.29c0 .309.046.609.14.9a2.3 2.3 0 0 0 .419.772c.186.225.414.406.684.542a2.1 2.1 0 0 0 .95.203 2.1 2.1 0 0 0 .915-.196 2.2 2.2 0 0 0 .705-.528c.196-.22.347-.475.454-.766.107-.29.16-.595.16-.913a2.62 2.62 0 0 0-.16-.914 2.467 2.467 0 0 0-.454-.773 2.096 2.096 0 0 0-1.62-.73c-.363 0-.68.065-.95.196-.27.131-.498.31-.684.534a2.3 2.3 0 0 0-.42.773c-.093.29-.14.59-.14.9zm14.292-.577a2.527 2.527 0 0 0-.133-.738 1.696 1.696 0 0 0-.349-.597 1.642 1.642 0 0 0-.573-.4 2.016 2.016 0 0 0-.803-.148 2.111 2.111 0 0 0-1.432.548c-.181.169-.33.368-.447.597-.116.23-.184.476-.202.738h3.939zm1.327.535v.224c0 .075-.005.15-.014.225h-5.252c.01.281.072.546.188.795.117.248.273.463.468.646a2.168 2.168 0 0 0 1.495.583c.447 0 .833-.098 1.16-.295.325-.197.581-.435.768-.717l.922.745a3.288 3.288 0 0 1-1.25 1.034c-.48.22-1.013.33-1.6.33a3.78 3.78 0 0 1-1.397-.253 3.225 3.225 0 0 1-1.103-.71 3.292 3.292 0 0 1-.727-1.103 3.742 3.742 0 0 1-.265-1.434c0-.516.086-.991.258-1.427.172-.436.412-.808.72-1.117.307-.31.67-.55 1.09-.724a3.49 3.49 0 0 1 1.354-.26c.484 0 .924.08 1.32.239.396.159.731.389 1.006.688.275.3.487.663.636 1.09.149.426.223.906.223 1.44zm6.442 3.387h-1.425l-2.696-6.663h1.453l1.941 5.243h.028l1.956-5.243h1.397l-2.654 6.663zm10.269-3.922a2.527 2.527 0 0 0-.133-.738 1.696 1.696 0 0 0-.349-.597 1.642 1.642 0 0 0-.573-.4 2.016 2.016 0 0 0-.803-.148 2.111 2.111 0 0 0-1.432.548c-.181.169-.33.368-.447.597-.116.23-.184.476-.202.738h3.939zm1.327.535v.224c0 .075-.005.15-.014.225h-5.252c.009.281.072.546.188.795.117.248.273.463.468.646a2.168 2.168 0 0 0 1.495.583c.447 0 .833-.098 1.16-.295.325-.197.581-.435.768-.717l.922.745a3.288 3.288 0 0 1-1.25 1.034c-.48.22-1.013.33-1.6.33a3.78 3.78 0 0 1-1.397-.253 3.225 3.225 0 0 1-1.104-.71 3.292 3.292 0 0 1-.726-1.103 3.742 3.742 0 0 1-.265-1.434c0-.516.086-.991.258-1.427.172-.436.412-.808.72-1.117.307-.31.67-.55 1.089-.724.42-.174.87-.26 1.355-.26.484 0 .924.08 1.32.239.396.159.731.389 1.006.688.275.3.486.663.635 1.09.15.426.224.906.224 1.44zm4.668 3.387h-1.314v-10.626h1.314v10.626zm10.492-3.345c0 .515-.09.988-.272 1.42a3.375 3.375 0 0 1-.754 1.117 3.398 3.398 0 0 1-1.139.73c-.438.174-.908.26-1.41.26-.504 0-.974-.086-1.412-.26a3.325 3.325 0 0 1-1.131-.73 3.43 3.43 0 0 1-.748-1.118 3.62 3.62 0 0 1-.272-1.42c0-.515.09-.986.272-1.412a3.37 3.37 0 0 1 .748-1.103 3.38 3.38 0 0 1 1.131-.724c.438-.174.908-.26 1.411-.26s.973.086 1.411.26c.438.173.817.414 1.139.724.32.309.572.677.754 1.103.181.426.272.897.272 1.413zm-1.369 0c0-.319-.049-.623-.146-.914a2.318 2.318 0 0 0-.426-.766 2.048 2.048 0 0 0-.692-.527 2.163 2.163 0 0 0-.943-.197c-.354 0-.668.066-.943.197a2.048 2.048 0 0 0-.691.527c-.186.22-.328.476-.426.766-.098.29-.147.595-.147.914 0 .318.049.623.147.913.098.29.24.549.426.773.186.225.417.403.691.535.275.13.59.196.943.196.354 0 .668-.065.943-.196.275-.132.505-.31.692-.535a2.4 2.4 0 0 0 .426-.773c.097-.29.146-.595.146-.913zm5.995 6.719h-1.313v-10.037h1.285v1.04h.042c.214-.355.528-.648.943-.878.414-.23.896-.344 1.446-.344.493 0 .942.089 1.348.267.405.178.754.426 1.047.745.294.318.52.69.678 1.117.158.427.237.883.237 1.37 0 .488-.079.947-.237 1.378a3.4 3.4 0 0 1-.67 1.125 3.13 3.13 0 0 1-1.048.752 3.36 3.36 0 0 1-1.383.274c-.475 0-.922-.103-1.341-.31a2.432 2.432 0 0 1-.992-.87h-.042v4.37zm4.358-6.72c0-.309-.046-.608-.14-.899a2.3 2.3 0 0 0-.419-.773 2.008 2.008 0 0 0-.691-.534 2.197 2.197 0 0 0-.957-.197 2.096 2.096 0 0 0-1.62.731 2.467 2.467 0 0 0-.454.773 2.62 2.62 0 0 0-.16.914c0 .318.053.623.16.913.107.29.258.546.454.766a2.114 2.114 0 0 0 1.62.724c.363 0 .682-.068.957-.203a2.08 2.08 0 0 0 .691-.542 2.3 2.3 0 0 0 .42-.773c.093-.29.14-.59.14-.9zm9.53-.576a2.527 2.527 0 0 0-.134-.738 1.696 1.696 0 0 0-.349-.597 1.642 1.642 0 0 0-.573-.4 2.016 2.016 0 0 0-.803-.148 2.111 2.111 0 0 0-1.432.548c-.181.169-.33.368-.447.597-.116.23-.184.476-.202.738h3.94zm1.326.535v.224c0 .075-.005.15-.014.225h-5.252c.01.281.072.546.188.795.117.248.273.463.468.646a2.168 2.168 0 0 0 1.495.583c.447 0 .834-.098 1.16-.295.325-.197.581-.435.768-.717l.922.745a3.28 3.28 0 0 1-1.25 1.034c-.48.22-1.013.33-1.6.33a3.78 3.78 0 0 1-1.397-.253 3.225 3.225 0 0 1-1.103-.71 3.292 3.292 0 0 1-.727-1.103 3.742 3.742 0 0 1-.265-1.434c0-.516.086-.991.258-1.427.173-.436.412-.808.72-1.117.307-.31.67-.55 1.09-.724a3.49 3.49 0 0 1 1.354-.26c.484 0 .924.08 1.32.239.396.159.731.389 1.006.688.275.3.487.663.636 1.09.149.426.223.906.223 1.44zm3.327-1.842a21.635 21.635 0 0 0-.056-1.434h1.243a13.302 13.302 0 0 1 .056 1.124h.042c.186-.393.458-.709.817-.948a2.13 2.13 0 0 1 1.208-.358c.205 0 .378.018.517.056l-.056 1.223a2.456 2.456 0 0 0-.6-.07c-.317 0-.592.058-.825.175a1.685 1.685 0 0 0-.58.471 1.995 1.995 0 0 0-.341.682 2.896 2.896 0 0 0-.112.808v3.5h-1.313v-5.229zm14.266 2.362h-3.24v-1.125h3.24v1.125zM11.224 205.124h.058l6.123-16.086h4.512v20.935h-2.9v-17.505h-.06l-6.884 17.505h-1.846l-6.855-17.505h-.059v17.505H.501v-20.935h4.512l6.21 16.086zm17.105 4.85h-3.223l8.994-20.936h2.637l8.906 20.935h-3.281l-2.11-5.145H30.41l-2.08 5.145zm3.105-7.718h7.764l-3.867-9.818-3.897 9.818zm27.71-9.344c-.41-.572-.966-1.04-1.67-1.405-.703-.365-1.494-.547-2.372-.547-.47 0-.943.064-1.421.192a3.891 3.891 0 0 0-1.304.621c-.39.286-.708.64-.952 1.065-.244.423-.366.931-.366 1.522 0 .572.112 1.05.337 1.435.224.384.527.71.908.975.38.267.83.493 1.347.68.518.188 1.07.38 1.656.577a33.8 33.8 0 0 1 2.138.74c.723.275 1.377.64 1.963 1.093a5.375 5.375 0 0 1 1.436 1.7c.37.68.556 1.543.556 2.588 0 1.084-.2 2.026-.6 2.824a5.772 5.772 0 0 1-1.597 1.981 6.777 6.777 0 0 1-2.3 1.168 9.429 9.429 0 0 1-2.68.385 9.707 9.707 0 0 1-3.794-.77 7.537 7.537 0 0 1-3.032-2.276l2.255-1.922c.489.73 1.143 1.32 1.963 1.774.82.453 1.71.68 2.666.68a5.36 5.36 0 0 0 1.465-.207 4.102 4.102 0 0 0 1.333-.65c.4-.296.728-.666.982-1.11.253-.443.38-.98.38-1.61 0-.632-.131-1.159-.395-1.583a3.506 3.506 0 0 0-1.07-1.08A7.045 7.045 0 0 0 55.41 201c-.595-.207-1.225-.419-1.89-.636a16.233 16.233 0 0 1-1.962-.724 6.797 6.797 0 0 1-1.729-1.094 5.052 5.052 0 0 1-1.23-1.642c-.313-.65-.469-1.458-.469-2.424 0-1.045.21-1.942.63-2.691.42-.75.967-1.37 1.64-1.863a6.801 6.801 0 0 1 2.286-1.08 9.904 9.904 0 0 1 2.563-.34c1.211 0 2.344.217 3.398.651 1.055.434 1.905 1.015 2.55 1.745l-2.051 2.01zm7.73 17.061h-3.222l8.994-20.935h2.637l8.906 20.935h-3.281l-2.11-5.145h-9.843l-2.08 5.145zm3.106-7.717h7.764l-3.867-9.818-3.897 9.818zm23.726 7.717h-2.93v-9.048l-7.763-11.887h3.574l5.742 9.462 5.772-9.462h3.369l-7.764 11.887v9.048zm18.629.533c-1.367 0-2.559-.232-3.574-.695-1.016-.464-1.856-1.08-2.52-1.848a7.569 7.569 0 0 1-1.48-2.647 9.97 9.97 0 0 1-.483-3.09v-13.188h2.9v13.01c0 .71.088 1.415.264 2.115.176.7.464 1.326.864 1.878.4.552.928.995 1.582 1.33.655.335 1.47.503 2.447.503.957 0 1.767-.168 2.431-.503a4.354 4.354 0 0 0 1.597-1.33c.4-.552.688-1.178.864-1.878a8.64 8.64 0 0 0 .264-2.114v-13.011h2.9v13.188a9.97 9.97 0 0 1-.483 3.09 7.569 7.569 0 0 1-1.48 2.647c-.664.768-1.503 1.384-2.52 1.848-1.015.463-2.206.695-3.573.695zm16.372-12.242h.059l9.258-9.226h4.013l-10.078 9.58 10.694 11.355h-4.16l-9.727-10.822h-.059v10.822h-2.9v-20.935h2.9v9.226zm19.83 11.71h-2.9v-20.936h2.9v20.935zm23.722-17.062c-.41-.572-.967-1.04-1.67-1.405s-1.494-.547-2.373-.547a5.47 5.47 0 0 0-1.42.192 3.891 3.891 0 0 0-1.305.621c-.39.286-.708.64-.952 1.065-.244.423-.366.931-.366 1.522 0 .572.112 1.05.337 1.435.225.384.527.71.908.975.381.267.83.493 1.348.68.517.188 1.07.38 1.655.577.703.217 1.416.463 2.139.74.722.275 1.377.64 1.963 1.093a5.375 5.375 0 0 1 1.435 1.7c.371.68.557 1.543.557 2.588 0 1.084-.2 2.026-.6 2.824a5.772 5.772 0 0 1-1.597 1.981 6.777 6.777 0 0 1-2.3 1.168 9.429 9.429 0 0 1-2.68.385 9.707 9.707 0 0 1-3.795-.77 7.537 7.537 0 0 1-3.032-2.276l2.256-1.922c.488.73 1.142 1.32 1.963 1.774.82.453 1.709.68 2.666.68a5.37 5.37 0 0 0 1.465-.207 4.102 4.102 0 0 0 1.333-.65c.4-.296.727-.666.98-1.11.255-.443.382-.98.382-1.61 0-.632-.132-1.159-.396-1.583a3.506 3.506 0 0 0-1.069-1.08 7.045 7.045 0 0 0-1.567-.753c-.596-.207-1.226-.419-1.89-.636a16.233 16.233 0 0 1-1.963-.724 6.797 6.797 0 0 1-1.728-1.094 5.052 5.052 0 0 1-1.23-1.642c-.313-.65-.47-1.458-.47-2.424 0-1.045.21-1.942.63-2.691.42-.75.967-1.37 1.64-1.863a6.801 6.801 0 0 1 2.286-1.08 9.904 9.904 0 0 1 2.563-.34c1.211 0 2.344.217 3.399.651 1.055.434 1.904 1.015 2.549 1.745l-2.051 2.01zm14.79 17.594c-1.367 0-2.558-.232-3.574-.695-1.015-.464-1.855-1.08-2.52-1.848a7.569 7.569 0 0 1-1.479-2.647 9.97 9.97 0 0 1-.483-3.09v-13.188h2.9v13.01c0 .71.088 1.415.264 2.115.176.7.464 1.326.864 1.878.4.552.928.995 1.582 1.33.655.335 1.47.503 2.447.503.957 0 1.767-.168 2.431-.503a4.354 4.354 0 0 0 1.597-1.33c.4-.552.688-1.178.864-1.878a8.64 8.64 0 0 0 .264-2.114v-13.011h2.9v13.188a9.97 9.97 0 0 1-.483 3.09 7.569 7.569 0 0 1-1.48 2.647c-.664.768-1.504 1.384-2.52 1.848-1.015.463-2.206.695-3.573.695zm27.154-18.896l-11.718 15.761h11.894v2.602h-15.41v-2.572l11.69-15.79h-11.456v-2.573h15v2.572zm12.096 18.896c-1.367 0-2.559-.232-3.574-.695-1.016-.464-1.856-1.08-2.52-1.848a7.569 7.569 0 0 1-1.48-2.647 9.97 9.97 0 0 1-.483-3.09v-13.188h2.9v13.01c0 .71.088 1.415.264 2.115.176.7.464 1.326.864 1.878.4.552.928.995 1.582 1.33.655.335 1.47.503 2.447.503.957 0 1.767-.168 2.431-.503a4.354 4.354 0 0 0 1.597-1.33c.4-.552.688-1.178.864-1.878a8.64 8.64 0 0 0 .264-2.114v-13.011h2.9v13.188a9.97 9.97 0 0 1-.483 3.09 7.569 7.569 0 0 1-1.48 2.647c-.664.768-1.503 1.384-2.52 1.848-1.015.463-2.206.695-3.573.695zm16.372-12.242h.059l9.258-9.226H256l-10.078 9.58 10.694 11.355h-4.16l-9.727-10.822h-.059v10.822h-2.9v-20.935h2.9v9.226zm19.83 11.71h-2.9v-20.936h2.9v20.935z" fill="#3C3C3C"/></svg>