<svg width="46" height="46" viewBox="0 0 46 46" xmlns="http://www.w3.org/2000/svg"><title>photoshop</title><g fill="none" fill-rule="evenodd"><path d="M1.915 1.972h42.124v41.4H1.915z"/><path d="M1.915 1.997h42.124v42.09H1.915V1.996zM0 45.992h46V.058H0v45.934zm31.638-26.003c-1.513 0-2.03.776-2.03 1.416 0 .698.345 1.183 2.374 2.25 3.006 1.474 3.945 2.89 3.945 4.964 0 3.103-2.336 4.771-5.496 4.771-1.665 0-3.102-.349-3.925-.834-.134-.058-.153-.155-.153-.31v-2.85c0-.195.096-.253.23-.156a7.041 7.041 0 0 0 3.848 1.144c1.513 0 2.145-.64 2.145-1.513 0-.698-.44-1.318-2.374-2.327-2.72-1.318-3.849-2.657-3.849-4.887 0-2.502 1.934-4.577 5.285-4.577 1.646 0 2.795.253 3.427.543.153.097.192.252.192.388v2.657c0 .155-.096.252-.288.194-.842-.543-2.087-.873-3.331-.873zM15.17 22.297c.44.039.785.039 1.55.039 2.241 0 4.347-.795 4.347-3.879 0-2.463-1.512-3.704-4.059-3.704-.766 0-1.493.039-1.838.058v7.486zM11.763 12c0-.135.268-.232.42-.232a112.96 112.96 0 0 1 4.94-.097c5.305 0 7.373 2.947 7.373 6.71 0 4.926-3.523 7.04-7.85 7.04-.728 0-.977-.04-1.494-.04v7.448c0 .155-.058.232-.23.232h-2.93c-.153 0-.23-.058-.23-.232v-20.83z" fill="#4E4E4E"/></g></svg>