<svg width="59" height="44" viewBox="0 0 59 44" xmlns="http://www.w3.org/2000/svg"><title>sass</title><path d="M41.717 33.25c-.187-.133-.156-.561.46-1.896.241-.524.793-1.406 1.752-2.249.11.347.178.68.177.989-.013 2.065-1.493 2.836-2.389 3.156zm-7.88 1.787c-.252.13-.482.213-.589.15-.078-.047.104-.22.104-.22s1.28-1.369 1.784-1.992c.293-.363.633-.793 1.003-1.275.003.048.005.096.005.143-.004 1.64-1.597 2.749-2.308 3.194zm-10.23-4.856c-.593 1.436-1.832 5.109-2.586 4.912-.647-.169-1.041-2.961-.129-5.71.46-1.383 1.44-3.036 2.016-3.677.928-1.033 1.95-1.37 2.198-.952.316.533-1.129 4.527-1.5 5.427zm-12.383 8.375c-1.7 1.844-4.074 2.542-5.092 1.954-1.1-.634-.664-3.35 1.421-5.308 1.272-1.193 2.913-2.291 4.002-2.968.247-.149.611-.366 1.054-.63l.114-.065-.001-.002.263-.157c.759 2.786.023 5.24-1.76 7.176zm39.552-13.267a12.185 12.185 0 0 0-5.345 1.238c-.548-1.088-1.102-2.044-1.195-2.755-.109-.83-.235-1.326-.104-2.315.132-.99.707-2.39.699-2.495-.009-.105-.13-.608-1.319-.617-1.19-.008-2.207.228-2.326.54-.12.313-.35 1.016-.492 1.749-.208 1.073-2.374 4.9-3.604 6.902-.403-.782-.745-1.47-.816-2.015-.109-.83-.235-1.326-.103-2.315.13-.99.706-2.39.698-2.495-.009-.105-.13-.609-1.319-.617-1.19-.009-2.207.228-2.326.54-.12.312-.248 1.043-.491 1.749-.244.706-3.124 7.09-3.878 8.744-.384.843-.719 1.52-.955 1.983a.068.068 0 0 0-.001-.002l-.04.082c-.202.394-.322.612-.322.612s0 .003.003.008c-.16.29-.332.558-.417.558-.06 0-.178-.77.026-1.826.428-2.215 1.458-5.668 1.448-5.787-.006-.06.19-.663-.673-.977-.839-.306-1.138.204-1.214.205-.075.002-.13.18-.13.18s.935-3.883-1.783-3.883c-1.7 0-4.056 1.85-5.216 3.527a1532.687 1532.687 0 0 0-5.87 3.201l-.126-.138c-3.297-3.5-9.391-5.975-9.133-10.68.094-1.71.692-6.213 11.71-11.676C25.19 2.04 32.415 3.271 33.664 6c1.784 3.899-3.862 11.145-13.235 12.19-3.572.399-5.452-.978-5.92-1.491-.492-.54-.566-.564-.75-.463-.299.165-.11.642 0 .926.28.725 1.429 2.01 3.387 2.649 1.722.562 5.915.871 10.986-1.08 5.68-2.186 10.115-8.266 8.812-13.348-1.325-5.17-9.94-6.868-18.092-3.987C14 3.111 8.746 5.803 4.97 9.318.48 13.497-.237 17.134.058 18.654c1.048 5.4 8.53 8.916 11.525 11.522l-.413.227c-1.502.739-7.204 3.708-8.63 6.845-1.618 3.559.257 6.112 1.499 6.456 3.847 1.065 7.795-.85 9.917-4 2.12-3.147 1.862-7.246.888-9.117l-.038-.069 1.176-.69a77.33 77.33 0 0 1 2.166-1.215c-.365.993-.632 2.184-.77 3.903-.164 2.02.668 4.631 1.757 5.658.48.453 1.056.463 1.422.463 1.267 0 1.845-1.049 2.482-2.289.78-1.521 1.473-3.292 1.473-3.292s-.87 4.784 1.5 4.784c.863 0 1.73-1.114 2.118-1.681l.001.01.067-.112c.09-.136.14-.223.14-.223l.005-.025c.346-.6 1.116-1.966 2.27-4.219 1.49-2.911 2.92-6.558 2.92-6.558s.134.892.57 2.366c.256.868.8 1.827 1.23 2.746-.346.478-.558.752-.558.752l.006.014a27.88 27.88 0 0 1-.911 1.143c-1.177 1.395-2.578 2.987-2.766 3.446-.221.542-.169.94.258 1.26.313.235.868.271 1.448.232 1.058-.07 1.802-.332 2.169-.49a7.31 7.31 0 0 0 1.864-.976c1.154-.844 1.85-2.052 1.783-3.652-.037-.882-.32-1.756-.677-2.58l.315-.455c1.82-2.646 3.232-5.555 3.232-5.555s.133.892.569 2.366c.22.747.655 1.56 1.046 2.36-1.71 1.382-2.772 2.99-3.14 4.044-.682 1.95-.148 2.834.853 3.035.453.091 1.093-.116 1.575-.318.6-.198 1.32-.527 1.992-1.02 1.154-.844 2.264-2.026 2.197-3.626-.03-.728-.229-1.451-.498-2.146 1.45-.6 3.328-.935 5.72-.657 5.131.596 6.138 3.784 5.946 5.118-.193 1.334-1.27 2.067-1.629 2.289-.36.221-.47.298-.44.463.044.24.21.23.518.179.422-.071 2.694-1.086 2.791-3.548.124-3.127-2.887-6.561-8.22-6.533z" fill="#4E4E4E" fill-rule="evenodd"/></svg>