<svg width="55" height="51" viewBox="0 0 55 51" xmlns="http://www.w3.org/2000/svg"><title>sketch</title><path d="M5.693 19.945h8.673l8.056 19.982-16.73-19.982zm21.805 23.197l-9.372-23.197h18.743l-9.371 23.197zM14.447 16.1H5.156l7.733-11.54h7.036L14.447 16.1zm18.126 23.828l8.056-19.982h8.673l-16.73 19.982zM18.34 16.099L23.819 4.56h7.358l5.478 11.54H18.34zm22.207 0L35.07 4.56h7.036L49.84 16.1h-9.292zm3.787-14.604c-.323-.51-.833-.78-1.37-.78H12.03c-.537 0-1.047.27-1.37.78L.35 16.88c-.51.721-.457 1.773.107 2.464l25.78 30.77a1.623 1.623 0 0 0 2.524 0l25.779-30.77c.564-.691.618-1.743.107-2.464L44.335 1.495z" fill="#3C3C3C" fill-rule="evenodd"/></svg>