<svg width="40" height="46" viewBox="0 0 40 46" xmlns="http://www.w3.org/2000/svg"><title>webpack</title><g fill="none" fill-rule="evenodd"><path fill="#4E4E4E" d="M19.886 0L39.77 11.498v23.004L19.886 46 0 34.502V11.498z"/><path d="M36.43 33.906l-15.766 9.126v-7.097l9.827-5.532 5.94 3.503zm1.08-.996V13.84l-5.767 3.402v12.266l5.766 3.402zm-34 .996l15.765 9.118v-7.097L9.45 30.403l-5.94 3.503zm-1.08-.996V13.84l5.766 3.402v12.266L2.43 32.91zm.672-20.304l16.173-9.35v6.866L8.913 15.946l-.083.046-5.728-3.386zm33.728 0l-16.166-9.35v6.866l10.355 5.832.083.046 5.728-3.394zM19.275 34.314l-9.69-5.454V18.068l9.69 5.716v10.53zm1.39 0l9.69-5.446v-10.8l-9.69 5.716v10.53zM10.233 16.818l9.736-5.47 9.728 5.47-9.728 5.74-9.736-5.74z" fill="#E8E8E0"/></g></svg>